<svg width="100" height="104" viewBox="0 0 100 104" fill="none" xmlns="http://www.w3.org/2000/svg">
<g filter="url(#filter0_d_5_237)">
<path d="M68.339 73.5568L15.7252 82.8761C15.7252 82.8761 12.4256 83.3364 9.78109 83.8402C7.13656 84.344 7.69224 87.5358 9.78109 87.8572C11.8699 88.1785 74.1225 87.8572 74.1225 87.8572C67.5036 85.929 68.339 73.5568 68.339 73.5568Z" fill="#FAE2C0"/>
<path fill-rule="evenodd" clip-rule="evenodd" d="M15.7252 8V80.5463L70.3533 70.5842C70.2195 75.7773 71.2048 86.4935 76.2172 87.8137C79.6059 87.3249 83.36 84.7673 83.36 78.6182V8H15.7252Z" fill="#FDF2E3"/>
<path d="M15.7252 82.8761L68.339 73.5568C68.339 73.5568 67.5036 85.929 74.1225 87.8572C74.7765 87.9283 75.4884 87.9188 76.2172 87.8137C71.2048 86.4935 70.2195 75.7773 70.3533 70.5842L15.7252 80.5463V82.8761Z" fill="#F0D2A8"/>
</g>
<defs>
<filter id="filter0_d_5_237" x="0" y="0" width="99.36" height="104" filterUnits="userSpaceOnUse" color-interpolation-filters="sRGB">
<feFlood flood-opacity="0" result="BackgroundImageFix"/>
<feColorMatrix in="SourceAlpha" type="matrix" values="0 0 0 0 0 0 0 0 0 0 0 0 0 0 0 0 0 0 127 0" result="hardAlpha"/>
<feOffset dx="4" dy="4"/>
<feGaussianBlur stdDeviation="6"/>
<feComposite in2="hardAlpha" operator="out"/>
<feColorMatrix type="matrix" values="0 0 0 0 0 0 0 0 0 0 0 0 0 0 0 0 0 0 0.25 0"/>
<feBlend mode="normal" in2="BackgroundImageFix" result="effect1_dropShadow_5_237"/>
<feBlend mode="normal" in="SourceGraphic" in2="effect1_dropShadow_5_237" result="shape"/>
</filter>
</defs>
</svg>
