<svg width="76" height="80" viewBox="0 0 76 80" fill="none" xmlns="http://www.w3.org/2000/svg">
<g clip-path="url(#clip0_36_25)">
<path d="M60.339 65.5568L7.72524 74.8761C7.72524 74.8761 4.42562 75.3364 1.78109 75.8402C-0.863437 76.344 -0.307761 79.5358 1.78109 79.8572C3.86995 80.1785 66.1225 79.8572 66.1225 79.8572C59.5036 77.929 60.339 65.5568 60.339 65.5568Z" fill="#FAE2C0"/>
<path fill-rule="evenodd" clip-rule="evenodd" d="M7.72524 0V72.5463L62.3533 62.5842C62.2195 67.7773 63.2048 78.4935 68.2172 79.8137C71.6059 79.3249 75.36 76.7673 75.36 70.6182V0H7.72524Z" fill="#FDF2E3"/>
<path d="M7.72524 74.8761L60.339 65.5568C60.339 65.5568 59.5036 77.929 66.1225 79.8572C66.7765 79.9283 67.4884 79.9188 68.2172 79.8137C63.2048 78.4935 62.2195 67.7773 62.3533 62.5842L7.72524 72.5463V74.8761Z" fill="#F0D2A8"/>
</g>
<defs>
<clipPath id="clip0_36_25">
<rect width="75.36" height="80" fill="white"/>
</clipPath>
</defs>
</svg>
