<svg width="120" height="61" viewBox="0 0 120 61" fill="none" xmlns="http://www.w3.org/2000/svg">
<g clip-path="url(#clip0_36_21)">
<path d="M2.83597 41.0063L0.255783 55.6096C-0.213373 57.7125 -0.518273 60.75 3.89151 60.75H54.0879C55.9644 60.75 56.5117 58.3356 56.5508 57.1284V48.6C56.5508 46.9678 54.6352 44.1606 53.2669 42.8755L53.2031 42.8115C43.6712 42.7527 31.8628 42.7732 30.3971 42.4082C29.4588 42.1745 28.8724 42.1745 26.0576 41.0063L10.1074 34.1134C7.83997 34.425 3.21129 36.2397 2.83597 41.0063Z" fill="#95A5A5"/>
<path d="M38.0204 27.5712C33.7982 28.6927 17.6525 32.4 10.1074 34.1134L26.0576 41.0063C28.8724 42.1745 29.4588 42.1745 30.3971 42.4082C31.8628 42.7732 43.6712 42.7527 53.2031 42.8115L38.0204 27.5712Z" fill="#BDC3C7"/>
<path d="M65.3469 0C64.0568 0.116827 61.5248 1.11778 59.2483 3.50481C58.339 4.45819 56.3558 6.46192 54.0397 8.76202C55.0331 7.98317 57.1042 7.24161 57.9582 7.00961C59.2483 6.65913 67.3965 6.33739 71.4455 7.00961C73.5566 7.36009 77.0985 8.03769 80.0071 12.6173C82.9156 17.1969 87.7867 25.1178 89.8587 28.5058C90.6446 29.7909 92.3919 31.4474 94.6672 32.1274C95.8586 32.4834 99.4807 33.3619 103.489 34.3341L103.491 34.3346C103.493 34.3351 103.495 34.3356 103.497 34.336C103.98 34.4532 104.469 34.5717 104.959 34.6908C108.411 35.5288 111.964 36.397 114.37 37.0341V31.7769C114.37 30.375 112.259 27.9216 111.204 26.987C110.07 25.8187 107.169 23.0149 104.636 21.1457C102.103 19.2764 101.548 17.2514 101.587 16.4726V7.00961C101.587 3.27115 98.0684 0.778846 96.3092 0H65.3469Z" fill="#BDC3C7"/>
<path d="M58.31 60.75C59.8347 60.75 62.4149 60.5864 62.4149 57.1284V50.7029V48.6C62.2976 47.5486 61.5704 44.9316 59.6001 42.8755C57.7266 42.8449 55.5329 42.8258 53.2031 42.8115L53.2669 42.8755C54.6352 44.1606 56.5508 46.9678 56.5508 48.6V57.1284C56.5117 58.3356 55.9644 60.75 54.0879 60.75H58.31Z" fill="#95A5A5"/>
<path d="M111.79 50.7029H116.599C117.733 50.625 120 49.8383 120 47.3149V41.5904C118.968 39.0669 115.817 37.5014 114.37 37.0341V47.3149C114.449 48.4442 114.042 50.7029 111.79 50.7029Z" fill="#7F8C8D"/>
<path d="M59.6001 42.8755C57.6298 40.8193 50.2567 33.2957 46.8165 29.7909C46.0317 28.9831 44.2492 27.7603 41.8906 27.3756C40.7244 27.1854 39.4173 27.2001 38.0204 27.5712L53.2031 42.8115C55.5329 42.8258 57.7266 42.8449 59.6001 42.8755Z" fill="#BDC3C7"/>
<path d="M120 32.5947C119.961 31.699 119.343 29.3936 117.185 27.3375C115.027 25.2813 110.813 21.4183 108.976 19.7437C108.389 19.2375 107.216 17.524 107.216 14.7202V7.00961C107.099 4.67307 105.551 0 100.297 0H96.3092C98.0684 0.778846 101.587 3.27115 101.587 7.00961V16.4726C101.548 17.2514 102.103 19.2764 104.636 21.1457C107.169 23.0149 110.07 25.8187 111.204 26.987C112.259 27.9216 114.37 30.375 114.37 31.7769V37.0341C115.817 37.5014 118.968 39.0669 120 41.5904V32.5947Z" fill="#95A5A5"/>
<path fill-rule="evenodd" clip-rule="evenodd" d="M103.489 34.3341L103.491 34.3346C103.493 34.3351 103.495 34.3356 103.497 34.336C103.495 34.3354 103.492 34.3347 103.489 34.3341Z" fill="#95A5A5"/>
<path d="M66.2851 50.7029H111.79C114.042 50.7029 114.449 48.4442 114.37 47.3149V37.0341C111.964 36.397 108.411 35.5288 104.959 34.6908C104.469 34.5717 103.98 34.4532 103.497 34.336L103.491 34.3346L103.489 34.3341C99.4807 33.3619 95.8586 32.4834 94.6672 32.1274C92.3919 31.4474 90.6446 29.7909 89.8587 28.5058C87.7867 25.1178 82.9156 17.1969 80.0071 12.6173C77.0985 8.03769 73.5566 7.36009 71.4455 7.00961C67.3965 6.33739 59.2483 6.65913 57.9582 7.00961C57.1042 7.24161 55.0331 7.98317 54.0397 8.76202C50.6794 12.0989 46.6183 16.0596 44.119 18.3418C43.4153 19.1596 41.9845 21.0288 41.8906 22.8981C41.8853 23.0033 41.8805 23.1086 41.8762 23.2138L43.7671 23.4035C46.1257 23.7882 47.9082 25.011 48.6929 25.8187C49.2555 26.3918 49.9834 27.1291 50.8151 27.9713C55.0694 32.28 62.0382 39.3378 63.4704 41.2399C65.2296 43.5764 66.2851 45.7961 66.2851 46.9644V50.7029Z" fill="#95A5A5"/>
<path d="M59.6001 42.8755C61.5704 44.9316 62.2976 47.5486 62.4149 48.6V50.7029H66.2851V46.9644C66.2851 45.7961 65.2296 43.5764 63.4704 41.2399C62.0382 39.3378 55.0694 32.28 50.8151 27.9713C49.9834 27.1291 49.2555 26.3918 48.6929 25.8187C47.9082 25.011 46.1257 23.7882 43.7671 23.4035L41.8762 23.2138C41.8029 24.9769 41.8537 26.7021 41.8906 27.3756C44.2492 27.7603 46.0317 28.9831 46.8165 29.7909C50.2567 33.2957 57.6298 40.8193 59.6001 42.8755Z" fill="#7F8C8D"/>
</g>
<defs>
<clipPath id="clip0_36_21">
<rect width="120" height="60.75" fill="white"/>
</clipPath>
</defs>
</svg>
