<svg width="144" height="85" viewBox="0 0 144 85" fill="none" xmlns="http://www.w3.org/2000/svg">
<g filter="url(#filter0_d_5_236)">
<path d="M10.836 49.0063L8.25578 63.6096C7.78663 65.7125 7.48173 68.75 11.8915 68.75H62.0879C63.9644 68.75 64.5117 66.3356 64.5508 65.1284V56.6C64.5508 54.9678 62.6352 52.1606 61.2669 50.8755L61.2031 50.8115C51.6712 50.7527 39.8628 50.7732 38.3971 50.4082C37.4588 50.1745 36.8724 50.1745 34.0576 49.0063L18.1074 42.1134C15.84 42.425 11.2113 44.2397 10.836 49.0063Z" fill="#95A5A5"/>
<path d="M46.0204 35.5712C41.7982 36.6927 25.6525 40.4 18.1074 42.1134L34.0576 49.0063C36.8724 50.1745 37.4588 50.1745 38.3971 50.4082C39.8628 50.7732 51.6712 50.7527 61.2031 50.8115L46.0204 35.5712Z" fill="#BDC3C7"/>
<path d="M73.3469 8C72.0568 8.11683 69.5248 9.11778 67.2483 11.5048C66.339 12.4582 64.3558 14.4619 62.0397 16.762C63.0331 15.9832 65.1042 15.2416 65.9582 15.0096C67.2483 14.6591 75.3965 14.3374 79.4455 15.0096C81.5566 15.3601 85.0985 16.0377 88.0071 20.6173C90.9156 25.1969 95.7867 33.1178 97.8587 36.5058C98.6446 37.7909 100.392 39.4475 102.667 40.1274C103.859 40.4834 107.481 41.3619 111.489 42.3341L111.49 42.3342C111.49 42.3343 111.491 42.3345 111.491 42.3346C111.493 42.3351 111.495 42.3356 111.497 42.336C111.98 42.4532 112.469 42.5717 112.959 42.6908C116.411 43.5288 119.964 44.397 122.37 45.0341V39.7769C122.37 38.375 120.259 35.9216 119.204 34.987C118.07 33.8187 115.169 31.0149 112.636 29.1457C110.103 27.2764 109.548 25.2514 109.587 24.4726V15.0096C109.587 11.2712 106.068 8.77885 104.309 8H73.3469Z" fill="#BDC3C7"/>
<path d="M66.31 68.75C67.8347 68.75 70.4149 68.5864 70.4149 65.1284V58.7029V56.6C70.2976 55.5486 69.5704 52.9316 67.6001 50.8755C65.7266 50.8449 63.5329 50.8258 61.2031 50.8115L61.2669 50.8755C62.6352 52.1606 64.5508 54.9678 64.5508 56.6V65.1284C64.5117 66.3356 63.9644 68.75 62.0879 68.75H66.31Z" fill="#95A5A5"/>
<path d="M119.79 58.7029H124.599C125.733 58.625 128 57.8383 128 55.3149V49.5904C126.968 47.0669 123.817 45.5014 122.37 45.0341V55.3149C122.449 56.4442 122.042 58.7029 119.79 58.7029Z" fill="#7F8C8D"/>
<path d="M67.6001 50.8755C65.6298 48.8193 58.2567 41.2957 54.8165 37.7909C54.0317 36.9831 52.2492 35.7603 49.8906 35.3756C48.7244 35.1854 47.4173 35.2001 46.0204 35.5712L61.2031 50.8115C63.5329 50.8258 65.7266 50.8449 67.6001 50.8755Z" fill="#BDC3C7"/>
<path d="M128 40.5947C127.961 39.699 127.343 37.3936 125.185 35.3375C123.027 33.2813 118.813 29.4183 116.976 27.7437C116.389 27.2375 115.216 25.524 115.216 22.7202V15.0096C115.099 12.6731 113.551 8 108.297 8H104.309C106.068 8.77885 109.587 11.2712 109.587 15.0096V24.4726C109.548 25.2514 110.103 27.2764 112.636 29.1457C115.169 31.0149 118.07 33.8187 119.204 34.987C120.259 35.9216 122.37 38.375 122.37 39.7769V45.0341C123.817 45.5014 126.968 47.0669 128 49.5904V40.5947Z" fill="#95A5A5"/>
<path fill-rule="evenodd" clip-rule="evenodd" d="M111.49 42.3342L111.491 42.3346C111.493 42.3351 111.495 42.3356 111.497 42.336C111.495 42.3354 111.492 42.3348 111.49 42.3342Z" fill="#95A5A5"/>
<path d="M74.2851 58.7029H119.79C122.042 58.7029 122.449 56.4442 122.37 55.3149V45.0341C119.964 44.397 116.411 43.5288 112.959 42.6908C112.469 42.5717 111.98 42.4532 111.497 42.336L111.491 42.3346L111.49 42.3342L111.489 42.3341C107.481 41.3619 103.859 40.4834 102.667 40.1274C100.392 39.4475 98.6446 37.7909 97.8587 36.5058C95.7867 33.1178 90.9156 25.1969 88.0071 20.6173C85.0985 16.0377 81.5566 15.3601 79.4455 15.0096C75.3965 14.3374 67.2483 14.6591 65.9582 15.0096C65.1042 15.2416 63.0331 15.9832 62.0397 16.762C58.6794 20.0989 54.6183 24.0596 52.119 26.3418C51.4153 27.1596 49.9845 29.0288 49.8906 30.8981C49.8853 31.0033 49.8805 31.1086 49.8762 31.2138L51.7671 31.4035C54.1257 31.7882 55.9082 33.011 56.6929 33.8187C57.2555 34.3918 57.9834 35.1291 58.8151 35.9713C63.0694 40.28 70.0382 47.3377 71.4704 49.2399C73.2296 51.5764 74.2851 53.7961 74.2851 54.9644V58.7029Z" fill="#95A5A5"/>
<path d="M67.6001 50.8755C69.5704 52.9316 70.2976 55.5486 70.4149 56.6V58.7029H74.2851V54.9644C74.2851 53.7961 73.2296 51.5764 71.4704 49.2399C70.0382 47.3377 63.0694 40.28 58.8151 35.9713C57.9834 35.1291 57.2555 34.3918 56.6929 33.8187C55.9082 33.011 54.1257 31.7882 51.7671 31.4035L49.8762 31.2138C49.8029 32.9769 49.8537 34.7021 49.8906 35.3756C52.2492 35.7603 54.0317 36.9831 54.8165 37.7909C58.2567 41.2957 65.6298 48.8193 67.6001 50.8755Z" fill="#7F8C8D"/>
</g>
<defs>
<filter id="filter0_d_5_236" x="0" y="0" width="144" height="84.75" filterUnits="userSpaceOnUse" color-interpolation-filters="sRGB">
<feFlood flood-opacity="0" result="BackgroundImageFix"/>
<feColorMatrix in="SourceAlpha" type="matrix" values="0 0 0 0 0 0 0 0 0 0 0 0 0 0 0 0 0 0 127 0" result="hardAlpha"/>
<feOffset dx="4" dy="4"/>
<feGaussianBlur stdDeviation="6"/>
<feComposite in2="hardAlpha" operator="out"/>
<feColorMatrix type="matrix" values="0 0 0 0 0 0 0 0 0 0 0 0 0 0 0 0 0 0 0.25 0"/>
<feBlend mode="normal" in2="BackgroundImageFix" result="effect1_dropShadow_5_236"/>
<feBlend mode="normal" in="SourceGraphic" in2="effect1_dropShadow_5_236" result="shape"/>
</filter>
</defs>
</svg>
