<svg width="114" height="114" viewBox="0 0 114 114" fill="none" xmlns="http://www.w3.org/2000/svg">
<g filter="url(#filter0_d_5_238)">
<path fill-rule="evenodd" clip-rule="evenodd" d="M56.0865 59.294L58.1914 53.5535L46.4691 49.5794C44.8208 53.8384 42.4563 60.0112 40.3091 65.741C41.3919 62.8798 38.5414 70.5983 36.2343 76.7803C31.205 90.2565 41.2508 98.5058 50.3514 97.9759C58.1349 97.5227 64.4685 91.6495 64.4685 83.8455C64.4685 76.6702 59.1253 70.744 52.2043 69.8358L56.0865 59.294ZM49.7211 92.3238C54.3991 92.3238 58.1914 88.5279 58.1914 83.8455C58.1914 79.1631 54.3991 75.3673 49.7211 75.3673C45.0431 75.3673 41.2508 79.1631 41.2508 83.8455C41.2508 88.5279 45.0431 92.3238 49.7211 92.3238ZM51.322 56.2913C52.1991 56.2913 52.9101 55.5796 52.9101 54.7016C52.9101 53.8237 52.1991 53.112 51.322 53.112C50.4448 53.112 49.7338 53.8237 49.7338 54.7016C49.7338 55.5796 50.4448 56.2913 51.322 56.2913Z" fill="#E64C3C"/>
<path d="M70.0271 8.248C64.5214 9.59039 60.2039 14.0473 58.7334 16.108L46.4691 49.5794L58.1914 53.5535L62.1745 42.6908L73.2035 13.7235C74.4387 11.339 75.5328 6.90562 70.0271 8.248Z" fill="#BDC3C7"/>
<path fill-rule="evenodd" clip-rule="evenodd" d="M37.2048 67.2054L43.1164 51.1496L36.8519 54.0834C32.6873 45.4639 25.2935 43.7211 22.1171 43.9272C14.3205 43.9272 8 50.2536 8 58.0576C8 65.8616 14.4409 72.188 22.0289 72.4529C25.5847 72.4529 27.6061 71.6281 29.1823 70.9849C29.2097 70.9737 29.2369 70.9626 29.2639 70.9516L37.2048 67.2054ZM30.6756 58.3225C30.6756 63.0049 26.8833 66.8008 22.2053 66.8008C17.5273 66.8008 13.735 63.0049 13.735 58.3225C13.735 53.6401 17.5273 49.8443 22.2053 49.8443C26.8833 49.8443 30.6756 53.6401 30.6756 58.3225Z" fill="#C03A2B"/>
<path d="M97.9967 30.2384C97.8555 26.6352 94.9379 27.5006 93.4968 28.3838L65.7038 41.0787L59.6158 57.6356L91.4675 42.6908C93.7027 40.0414 98.1379 33.8416 97.9967 30.2384Z" fill="#95A5A5"/>
<path d="M62.1745 42.6908L58.1914 53.5535L56.0865 59.294L59.6158 57.6356L65.7038 41.0787L62.1745 42.6908Z" fill="#7F8C8D"/>
<path d="M40.3091 65.741C42.4563 60.0112 44.8208 53.8384 46.4691 49.5794L43.1164 51.1496L37.2048 67.2054L40.3091 65.741Z" fill="#802F34"/>
<path d="M52.9101 54.7016C52.9101 55.5796 52.1991 56.2913 51.322 56.2913C50.4448 56.2913 49.7338 55.5796 49.7338 54.7016C49.7338 53.8237 50.4448 53.112 51.322 53.112C52.1991 53.112 52.9101 53.8237 52.9101 54.7016Z" fill="#7F8C8D"/>
</g>
<defs>
<filter id="filter0_d_5_238" x="0" y="0" width="114" height="114" filterUnits="userSpaceOnUse" color-interpolation-filters="sRGB">
<feFlood flood-opacity="0" result="BackgroundImageFix"/>
<feColorMatrix in="SourceAlpha" type="matrix" values="0 0 0 0 0 0 0 0 0 0 0 0 0 0 0 0 0 0 127 0" result="hardAlpha"/>
<feOffset dx="4" dy="4"/>
<feGaussianBlur stdDeviation="6"/>
<feComposite in2="hardAlpha" operator="out"/>
<feColorMatrix type="matrix" values="0 0 0 0 0 0 0 0 0 0 0 0 0 0 0 0 0 0 0.25 0"/>
<feBlend mode="normal" in2="BackgroundImageFix" result="effect1_dropShadow_5_238"/>
<feBlend mode="normal" in="SourceGraphic" in2="effect1_dropShadow_5_238" result="shape"/>
</filter>
</defs>
</svg>
