<svg width="90" height="90" viewBox="0 0 90 90" fill="none" xmlns="http://www.w3.org/2000/svg">
<g clip-path="url(#clip0_36_23)">
<path fill-rule="evenodd" clip-rule="evenodd" d="M48.0865 51.294L50.1914 45.5535L38.4691 41.5794C36.8208 45.8384 34.4563 52.0112 32.3091 57.741C33.3919 54.8798 30.5414 62.5983 28.2343 68.7803C23.205 82.2565 33.2508 90.5058 42.3514 89.9759C50.1349 89.5227 56.4685 83.6495 56.4685 75.8455C56.4685 68.6702 51.1253 62.744 44.2043 61.8358L48.0865 51.294ZM41.7211 84.3238C46.3991 84.3238 50.1914 80.5279 50.1914 75.8455C50.1914 71.1631 46.3991 67.3673 41.7211 67.3673C37.0431 67.3673 33.2508 71.1631 33.2508 75.8455C33.2508 80.5279 37.0431 84.3238 41.7211 84.3238ZM43.322 48.2913C44.1991 48.2913 44.9101 47.5796 44.9101 46.7016C44.9101 45.8237 44.1991 45.112 43.322 45.112C42.4448 45.112 41.7338 45.8237 41.7338 46.7016C41.7338 47.5796 42.4448 48.2913 43.322 48.2913Z" fill="#E64C3C"/>
<path d="M62.0271 0.248004C56.5214 1.59039 52.2039 6.04735 50.7334 8.10803L38.4691 41.5794L50.1914 45.5535L54.1745 34.6908L65.2035 5.72353C66.4387 3.33903 67.5328 -1.09438 62.0271 0.248004Z" fill="#BDC3C7"/>
<path fill-rule="evenodd" clip-rule="evenodd" d="M29.2048 59.2054L35.1164 43.1496L28.8519 46.0834C24.6873 37.4639 17.2935 35.7211 14.1171 35.9272C6.32046 35.9272 0 42.2536 0 50.0576C0 57.8616 6.44094 64.188 14.0289 64.4529C17.5847 64.4529 19.6061 63.6281 21.1823 62.9849C21.2097 62.9737 21.2369 62.9626 21.2639 62.9516L29.2048 59.2054ZM22.6756 50.3225C22.6756 55.0049 18.8833 58.8008 14.2053 58.8008C9.52727 58.8008 5.735 55.0049 5.735 50.3225C5.735 45.6401 9.52727 41.8443 14.2053 41.8443C18.8833 41.8443 22.6756 45.6401 22.6756 50.3225Z" fill="#C03A2B"/>
<path d="M89.9967 22.2384C89.8555 18.6352 86.9379 19.5006 85.4968 20.3838L57.7038 33.0787L51.6158 49.6356L83.4675 34.6908C85.7027 32.0414 90.1379 25.8416 89.9967 22.2384Z" fill="#95A5A5"/>
<path d="M54.1745 34.6908L50.1914 45.5535L48.0865 51.294L51.6158 49.6356L57.7038 33.0787L54.1745 34.6908Z" fill="#7F8C8D"/>
<path d="M32.3091 57.741C34.4563 52.0112 36.8208 45.8384 38.4691 41.5794L35.1164 43.1496L29.2048 59.2054L32.3091 57.741Z" fill="#802F34"/>
<path d="M44.9101 46.7016C44.9101 47.5796 44.1991 48.2913 43.322 48.2913C42.4448 48.2913 41.7338 47.5796 41.7338 46.7016C41.7338 45.8237 42.4448 45.112 43.322 45.112C44.1991 45.112 44.9101 45.8237 44.9101 46.7016Z" fill="#7F8C8D"/>
</g>
<defs>
<clipPath id="clip0_36_23">
<rect width="90" height="90" fill="white"/>
</clipPath>
</defs>
</svg>
