<svg width="118" height="91" viewBox="0 0 118 91" fill="none" xmlns="http://www.w3.org/2000/svg">
<g clip-path="url(#clip0_39_32)">
<mask id="path-1-outside-1_39_32" maskUnits="userSpaceOnUse" x="-1.83657" y="4.6933" width="122.397" height="82.6499" fill="black">
<rect fill="white" x="-1.83657" y="4.6933" width="122.397" height="82.6499"/>
<path d="M34.8604 73.9533C33.6493 74.2102 32.4123 74.32 31.1493 74.2827C29.8863 74.2455 28.7642 73.9018 27.7831 73.2516C27.6399 72.1937 27.3447 70.6427 26.8976 68.5987C26.4926 66.5472 25.9838 64.2757 25.3711 61.7842C24.7511 59.2507 24.0223 56.7147 23.1848 54.1763C22.3893 51.6304 21.5048 49.3169 20.5313 47.2356C19.5924 45.105 18.6052 43.4377 17.5697 42.2339C16.5343 41.0301 15.4703 40.5245 14.3779 40.7171C13.4114 40.8875 12.4116 41.6054 11.3783 42.8707L10.8704 42.5703C11.4097 38.7493 12.4581 35.7267 14.0155 33.5024C15.615 31.2708 17.4442 29.9734 19.5031 29.6104C21.3099 29.2918 22.9337 29.6554 24.3745 30.7011C25.8153 31.7468 27.0818 33.2781 28.1739 35.2951C29.3007 37.2626 30.2446 39.5441 31.0054 42.1394C31.801 44.6852 32.4395 47.3238 32.9211 50.055C33.3063 52.2399 33.6002 54.3977 33.8025 56.5283C34.0049 58.6588 34.1146 60.6324 34.1317 62.4491C35.8623 59.2411 37.1912 55.8441 38.1186 52.2579C39.0385 48.6297 39.6087 45.1065 39.8292 41.6883C40.0422 38.2281 39.9153 35.1744 39.4486 32.5272C39.3597 32.023 39.2498 31.5225 39.1188 31.0257C38.9805 30.4868 38.8323 30.0147 38.6741 29.6094C39.3565 28.3193 40.3391 27.2579 41.622 26.4251C42.8975 25.5503 44.2285 24.9907 45.6151 24.7462C46.9597 24.5091 48.1881 24.5958 49.3002 25.0062C50.405 25.3746 51.1909 26.1459 51.6578 27.32C51.8155 31.4081 51.4268 35.5924 50.492 39.8731C49.5991 44.1464 48.3269 48.3567 46.6753 52.5038C45.0162 56.6089 43.1447 60.4916 41.0606 64.1517C39.0186 67.8045 36.9518 71.0717 34.8604 73.9533ZM73.3365 67.2989C70.5212 67.7953 68.104 67.7233 66.0848 67.0829C64.1076 66.435 62.5444 65.4326 61.3953 64.0755C60.2462 62.7184 59.5309 61.2415 59.2493 59.6448C58.9752 58.0901 59.094 56.5528 59.6059 55.0328C60.1103 53.4709 60.9743 52.1054 62.1979 50.9365C63.4636 49.7602 65.0628 49.0016 66.9957 48.6608C67.0203 49.0464 67.0623 49.4073 67.1216 49.7434C67.1734 50.0375 67.1994 50.1846 67.1994 50.1846C67.6958 52.9998 68.3615 55.1787 69.1967 56.7211C70.0245 58.2214 70.9216 59.2547 71.8879 59.8208C72.8468 60.3449 73.7675 60.5292 74.6498 60.3736C75.9944 60.1365 77.0994 59.4001 77.9646 58.1645C78.8224 56.8868 79.1254 55.5336 78.8735 54.105C78.5919 52.5083 77.6504 51.2229 76.049 50.2489C74.4895 49.2674 72.5297 48.2266 70.1694 47.1264C68.8373 46.4514 67.4026 45.6863 65.8654 44.8309C64.3628 43.9261 63.0159 42.7988 61.8248 41.4492C60.6263 40.0575 59.8418 38.3112 59.4713 36.2102C59.0861 34.0253 59.2495 32.0035 59.9615 30.145C60.7157 28.279 61.833 26.6306 63.3137 25.1997C64.8291 23.7195 66.5433 22.5074 68.4564 21.5635C70.4042 20.5702 72.3865 19.8957 74.4034 19.5401C76.8825 19.1029 78.9908 19.1428 80.7283 19.6596C82.4657 20.1764 83.8448 20.9947 84.8654 22.1145C85.886 23.2342 86.5149 24.4664 86.752 25.811C86.9742 27.0716 86.8319 28.3531 86.3251 29.6556C85.8528 30.9086 85.0074 32.0108 83.7887 32.9622C82.5701 33.9136 80.9734 34.5634 78.9985 34.9117C79.0208 34.3012 79.0122 33.7611 78.9728 33.2915C78.9259 32.7799 78.8691 32.335 78.8024 31.9568C78.432 29.8559 77.7067 28.4457 76.6267 27.7264C75.5814 26.9575 74.5124 26.6694 73.4199 26.8621C72.3695 27.0473 71.4314 27.6243 70.6058 28.5931C69.7727 29.5198 69.5081 30.8445 69.8118 32.5673C70.0711 34.0379 70.6716 35.2318 71.6131 36.1489C72.5967 37.0586 73.7682 37.8052 75.1275 38.3887C76.5288 38.9648 77.9894 39.5087 79.5094 40.0206C81.0714 40.525 82.5852 41.1246 84.0507 41.8193C85.5509 42.4646 86.8496 43.3187 87.9469 44.3817C89.0441 45.4446 89.7558 46.9005 90.0818 48.7493C90.4226 50.6822 90.2307 52.6656 89.5063 54.6996C88.7744 56.6916 87.631 58.5613 86.0761 60.3085C84.5138 62.0137 82.6303 63.4939 80.4254 64.7492C78.2626 65.997 75.8996 66.847 73.3365 67.2989ZM103.296 62.0162C101.574 62.3199 100.049 62.0256 98.7214 61.1332C97.3943 60.2407 96.59 58.9962 96.3084 57.3995C95.9898 55.5927 96.3707 53.9442 97.451 52.4539C98.5659 50.9143 100.09 49.974 102.023 49.6332C103.745 49.3294 105.27 49.6238 106.597 50.5162C107.967 51.4012 108.792 52.6421 109.074 54.2388C109.392 56.0456 108.994 57.7188 107.879 59.2585C106.757 60.7561 105.229 61.6754 103.296 62.0162Z"/>
</mask>
<path d="M34.8604 73.9533C33.6493 74.2102 32.4123 74.32 31.1493 74.2827C29.8863 74.2455 28.7642 73.9018 27.7831 73.2516C27.6399 72.1937 27.3447 70.6427 26.8976 68.5987C26.4926 66.5472 25.9838 64.2757 25.3711 61.7842C24.7511 59.2507 24.0223 56.7147 23.1848 54.1763C22.3893 51.6304 21.5048 49.3169 20.5313 47.2356C19.5924 45.105 18.6052 43.4377 17.5697 42.2339C16.5343 41.0301 15.4703 40.5245 14.3779 40.7171C13.4114 40.8875 12.4116 41.6054 11.3783 42.8707L10.8704 42.5703C11.4097 38.7493 12.4581 35.7267 14.0155 33.5024C15.615 31.2708 17.4442 29.9734 19.5031 29.6104C21.3099 29.2918 22.9337 29.6554 24.3745 30.7011C25.8153 31.7468 27.0818 33.2781 28.1739 35.2951C29.3007 37.2626 30.2446 39.5441 31.0054 42.1394C31.801 44.6852 32.4395 47.3238 32.9211 50.055C33.3063 52.2399 33.6002 54.3977 33.8025 56.5283C34.0049 58.6588 34.1146 60.6324 34.1317 62.4491C35.8623 59.2411 37.1912 55.8441 38.1186 52.2579C39.0385 48.6297 39.6087 45.1065 39.8292 41.6883C40.0422 38.2281 39.9153 35.1744 39.4486 32.5272C39.3597 32.023 39.2498 31.5225 39.1188 31.0257C38.9805 30.4868 38.8323 30.0147 38.6741 29.6094C39.3565 28.3193 40.3391 27.2579 41.622 26.4251C42.8975 25.5503 44.2285 24.9907 45.6151 24.7462C46.9597 24.5091 48.1881 24.5958 49.3002 25.0062C50.405 25.3746 51.1909 26.1459 51.6578 27.32C51.8155 31.4081 51.4268 35.5924 50.492 39.8731C49.5991 44.1464 48.3269 48.3567 46.6753 52.5038C45.0162 56.6089 43.1447 60.4916 41.0606 64.1517C39.0186 67.8045 36.9518 71.0717 34.8604 73.9533ZM73.3365 67.2989C70.5212 67.7953 68.104 67.7233 66.0848 67.0829C64.1076 66.435 62.5444 65.4326 61.3953 64.0755C60.2462 62.7184 59.5309 61.2415 59.2493 59.6448C58.9752 58.0901 59.094 56.5528 59.6059 55.0328C60.1103 53.4709 60.9743 52.1054 62.1979 50.9365C63.4636 49.7602 65.0628 49.0016 66.9957 48.6608C67.0203 49.0464 67.0623 49.4073 67.1216 49.7434C67.1734 50.0375 67.1994 50.1846 67.1994 50.1846C67.6958 52.9998 68.3615 55.1787 69.1967 56.7211C70.0245 58.2214 70.9216 59.2547 71.8879 59.8208C72.8468 60.3449 73.7675 60.5292 74.6498 60.3736C75.9944 60.1365 77.0994 59.4001 77.9646 58.1645C78.8224 56.8868 79.1254 55.5336 78.8735 54.105C78.5919 52.5083 77.6504 51.2229 76.049 50.2489C74.4895 49.2674 72.5297 48.2266 70.1694 47.1264C68.8373 46.4514 67.4026 45.6863 65.8654 44.8309C64.3628 43.9261 63.0159 42.7988 61.8248 41.4492C60.6263 40.0575 59.8418 38.3112 59.4713 36.2102C59.0861 34.0253 59.2495 32.0035 59.9615 30.145C60.7157 28.279 61.833 26.6306 63.3137 25.1997C64.8291 23.7195 66.5433 22.5074 68.4564 21.5635C70.4042 20.5702 72.3865 19.8957 74.4034 19.5401C76.8825 19.1029 78.9908 19.1428 80.7283 19.6596C82.4657 20.1764 83.8448 20.9947 84.8654 22.1145C85.886 23.2342 86.5149 24.4664 86.752 25.811C86.9742 27.0716 86.8319 28.3531 86.3251 29.6556C85.8528 30.9086 85.0074 32.0108 83.7887 32.9622C82.5701 33.9136 80.9734 34.5634 78.9985 34.9117C79.0208 34.3012 79.0122 33.7611 78.9728 33.2915C78.9259 32.7799 78.8691 32.335 78.8024 31.9568C78.432 29.8559 77.7067 28.4457 76.6267 27.7264C75.5814 26.9575 74.5124 26.6694 73.4199 26.8621C72.3695 27.0473 71.4314 27.6243 70.6058 28.5931C69.7727 29.5198 69.5081 30.8445 69.8118 32.5673C70.0711 34.0379 70.6716 35.2318 71.6131 36.1489C72.5967 37.0586 73.7682 37.8052 75.1275 38.3887C76.5288 38.9648 77.9894 39.5087 79.5094 40.0206C81.0714 40.525 82.5852 41.1246 84.0507 41.8193C85.5509 42.4646 86.8496 43.3187 87.9469 44.3817C89.0441 45.4446 89.7558 46.9005 90.0818 48.7493C90.4226 50.6822 90.2307 52.6656 89.5063 54.6996C88.7744 56.6916 87.631 58.5613 86.0761 60.3085C84.5138 62.0137 82.6303 63.4939 80.4254 64.7492C78.2626 65.997 75.8996 66.847 73.3365 67.2989ZM103.296 62.0162C101.574 62.3199 100.049 62.0256 98.7214 61.1332C97.3943 60.2407 96.59 58.9962 96.3084 57.3995C95.9898 55.5927 96.3707 53.9442 97.451 52.4539C98.5659 50.9143 100.09 49.974 102.023 49.6332C103.745 49.3294 105.27 49.6238 106.597 50.5162C107.967 51.4012 108.792 52.6421 109.074 54.2388C109.392 56.0456 108.994 57.7188 107.879 59.2585C106.757 60.7561 105.229 61.6754 103.296 62.0162Z" fill="#FDF2E3"/>
<path d="M34.8604 73.9533L36.5203 81.7792L39.5286 81.1411L41.335 78.6523L34.8604 73.9533ZM31.1493 74.2827L30.9134 82.2793L30.9134 82.2793L31.1493 74.2827ZM27.7831 73.2516L19.8554 74.3248L20.3417 77.9176L23.3639 79.9203L27.7831 73.2516ZM26.8976 68.5987L19.0492 70.1483L19.065 70.2283L19.0824 70.308L26.8976 68.5987ZM25.3711 61.7842L17.6005 63.6859L17.6025 63.6944L25.3711 61.7842ZM23.1848 54.1763L15.5489 56.5623L15.5678 56.6227L15.5876 56.6828L23.1848 54.1763ZM20.5313 47.2356L13.2106 50.4616L13.2468 50.5438L13.2849 50.6252L20.5313 47.2356ZM17.5697 42.2339L11.5046 47.4507L11.5046 47.4507L17.5697 42.2339ZM11.3783 42.8707L7.30578 49.7566L13.2249 53.2573L17.5746 47.9309L11.3783 42.8707ZM10.8704 42.5703L2.94891 41.4522L2.20275 46.7385L6.79791 49.4562L10.8704 42.5703ZM14.0155 33.5024L7.51314 28.8421L7.48754 28.8778L7.46233 28.9138L14.0155 33.5024ZM24.3745 30.7011L29.0735 24.2265L29.0735 24.2265L24.3745 30.7011ZM28.1739 35.2951L21.1391 39.1044L21.1844 39.1881L21.2317 39.2707L28.1739 35.2951ZM31.0054 42.1394L23.3286 44.3901L23.3485 44.4579L23.3695 44.5254L31.0054 42.1394ZM33.8025 56.5283L41.7667 55.7718L41.7667 55.7718L33.8025 56.5283ZM34.1317 62.4491L26.132 62.5241L41.1725 66.2474L34.1317 62.4491ZM38.1186 52.2579L45.8638 54.2608L45.8685 54.2425L45.8732 54.2241L38.1186 52.2579ZM39.8292 41.6883L47.8126 42.2032L47.8133 42.1915L47.814 42.1799L39.8292 41.6883ZM39.1188 31.0257L31.3701 33.015L31.3765 33.0397L31.383 33.0643L39.1188 31.0257ZM38.6741 29.6094L31.6024 25.869L29.8905 29.1056L31.2211 32.5167L38.6741 29.6094ZM41.622 26.4251L45.9778 33.1353L46.063 33.08L46.1468 33.0225L41.622 26.4251ZM49.3002 25.0062L46.5305 32.5114L46.6492 32.5553L46.7694 32.5953L49.3002 25.0062ZM51.6578 27.32L59.6519 27.0118L59.599 25.6395L59.0914 24.3634L51.6578 27.32ZM50.492 39.8731L42.6762 38.1662L42.6685 38.2016L42.6611 38.237L50.492 39.8731ZM46.6753 52.5038L54.0925 55.5013L54.1001 55.4826L54.1075 55.4637L46.6753 52.5038ZM41.0606 64.1517L34.1086 60.1933L34.093 60.2206L34.0777 60.248L41.0606 64.1517ZM33.2006 66.1274C32.6251 66.2494 32.0248 66.3051 31.3851 66.2862L30.9134 82.2793C32.7997 82.3349 34.6736 82.1709 36.5203 81.7792L33.2006 66.1274ZM31.3851 66.2862C31.4139 66.2871 31.5306 66.2949 31.7036 66.3478C31.8803 66.402 32.0534 66.4843 32.2022 66.5829L23.3639 79.9203C25.6803 81.4553 28.2736 82.2014 30.9134 82.2793L31.3851 66.2862ZM35.7108 72.1784C35.5229 70.7909 35.1713 68.985 34.7129 66.8893L19.0824 70.308C19.5182 72.3005 19.7568 73.5965 19.8554 74.3248L35.7108 72.1784ZM34.7461 67.049C34.3126 64.8534 33.7755 62.4594 33.1397 59.874L17.6025 63.6944C18.1921 66.0919 18.6726 68.241 19.0492 70.1483L34.7461 67.049ZM33.1418 59.8825C32.4707 57.1402 31.6836 54.4025 30.782 51.6697L15.5876 56.6828C16.361 59.027 17.0315 61.3612 17.6005 63.6859L33.1418 59.8825ZM30.8207 51.7903C29.9347 48.9546 28.9253 46.2995 27.7777 43.846L13.2849 50.6252C14.0843 52.3342 14.844 54.3062 15.5489 56.5623L30.8207 51.7903ZM27.852 44.0096C26.7288 41.4607 25.3637 39.0271 23.6348 37.0171L11.5046 47.4507C11.8467 47.8483 12.4559 48.7492 13.2106 50.4616L27.852 44.0096ZM23.6348 37.0171C21.6338 34.6906 17.9686 31.9606 12.9887 32.8387L15.767 48.5956C14.5728 48.8062 13.432 48.5911 12.5616 48.1775C12.1711 47.992 11.8985 47.7974 11.7366 47.6656C11.6547 47.5989 11.5962 47.5443 11.5597 47.5083C11.5232 47.4722 11.5053 47.4514 11.5046 47.4507L23.6348 37.0171ZM12.9887 32.8387C9.22846 33.5017 6.6812 35.9746 5.18192 37.8105L17.5746 47.9309C17.7821 47.6768 17.7914 47.7221 17.5688 47.8819C17.3352 48.0496 16.727 48.4263 15.767 48.5956L12.9887 32.8387ZM15.4507 35.9849L14.9429 35.6845L6.79791 49.4562L7.30578 49.7566L15.4507 35.9849ZM18.7919 43.6885C19.2244 40.6239 19.9739 38.9406 20.5688 38.091L7.46233 28.9138C4.94231 32.5128 3.59504 36.8746 2.94891 41.4522L18.7919 43.6885ZM20.5179 38.1628C20.9125 37.6123 21.166 37.4159 21.2151 37.3811C21.2361 37.3662 21.2122 37.3859 21.1438 37.4151C21.0737 37.445 20.9864 37.4723 20.8923 37.4889L18.1139 21.7319C13.4122 22.561 9.93578 25.4619 7.51314 28.8421L20.5179 38.1628ZM20.8923 37.4889C20.8625 37.4941 20.648 37.5225 20.3282 37.4509C20.0029 37.378 19.7752 37.2479 19.6755 37.1756L29.0735 24.2265C25.8181 21.8639 21.9831 21.0497 18.1139 21.7319L20.8923 37.4889ZM19.6755 37.1756C19.9108 37.3464 20.458 37.8467 21.1391 39.1044L35.2088 31.4858C33.7055 28.7095 31.7197 26.1471 29.0735 24.2265L19.6755 37.1756ZM21.2317 39.2707C21.9939 40.6017 22.7114 42.285 23.3286 44.3901L38.6823 39.8887C37.7777 36.8032 36.6075 33.9236 35.1161 31.3194L21.2317 39.2707ZM23.3695 44.5254C24.059 46.7318 24.6181 49.0368 25.0426 51.4442L40.7995 48.6658C40.2609 45.6108 39.5429 42.6387 38.6414 39.7534L23.3695 44.5254ZM25.0426 51.4442C25.3923 53.4271 25.6569 55.3737 25.8384 57.2848L41.7667 55.7718C41.5435 53.4217 41.2204 51.0528 40.7995 48.6658L25.0426 51.4442ZM25.8384 57.2848C26.0229 59.2274 26.1175 60.9708 26.132 62.5241L42.1313 62.374C42.1118 60.2941 41.9869 58.0903 41.7667 55.7718L25.8384 57.2848ZM41.1725 66.2474C43.2144 62.4624 44.7776 58.4614 45.8638 54.2608L30.3733 50.2551C29.6049 53.2268 28.5101 56.0199 27.0909 58.6508L41.1725 66.2474ZM45.8732 54.2241C46.9028 50.1636 47.5578 46.1539 47.8126 42.2032L31.8458 41.1734C31.6596 44.0591 31.1743 47.0959 30.364 50.2917L45.8732 54.2241ZM47.814 42.1799C48.0553 38.2617 47.9294 34.5544 47.327 31.138L31.5701 33.9164C31.9013 35.7944 32.0291 38.1944 31.8443 41.1967L47.814 42.1799ZM47.327 31.138C47.1995 30.4147 47.0419 29.6975 46.8547 28.987L31.383 33.0643C31.4576 33.3475 31.5199 33.6313 31.5701 33.9164L47.327 31.138ZM46.8675 29.0363C46.67 28.2669 46.4291 27.4762 46.1272 26.7021L31.2211 32.5167C31.2354 32.5533 31.291 32.7067 31.3701 33.015L46.8675 29.0363ZM45.7459 33.3497C45.7598 33.3235 45.7815 33.2627 45.9778 33.1353L37.2662 19.7149C34.8967 21.253 32.9532 23.3151 31.6024 25.869L45.7459 33.3497ZM46.1468 33.0225C46.5741 32.7295 46.849 32.652 47.0043 32.6247L44.2259 16.8677C41.608 17.3293 39.2208 18.3712 37.0972 19.8277L46.1468 33.0225ZM47.0043 32.6247C47.1013 32.6075 47.0863 32.6209 46.9817 32.6135C46.871 32.6057 46.7109 32.578 46.5305 32.5114L52.07 17.501C49.4384 16.5298 46.7507 16.4225 44.2259 16.8677L47.0043 32.6247ZM46.7694 32.5953C46.2361 32.4175 45.6397 32.0859 45.1147 31.5707C44.6036 31.0691 44.342 30.5727 44.2242 30.2766L59.0914 24.3634C57.837 21.2093 55.3801 18.6007 51.8311 17.4171L46.7694 32.5953ZM43.6638 27.6282C43.7935 30.9936 43.4768 34.5003 42.6762 38.1662L58.3077 41.58C59.3769 36.6846 59.8374 31.8225 59.6519 27.0118L43.6638 27.6282ZM42.6611 38.237C41.8647 42.0483 40.7276 45.816 39.243 49.5439L54.1075 55.4637C55.9261 50.8973 57.3335 46.2446 58.3229 41.5093L42.6611 38.237ZM39.2581 49.5062C37.7258 53.2978 36.0077 56.858 34.1086 60.1933L48.0126 68.1102C50.2817 64.1251 52.3067 59.92 54.0925 55.5013L39.2581 49.5062ZM34.0777 60.248C32.1635 63.6721 30.2637 66.667 28.3859 69.2543L41.335 78.6523C43.64 75.4763 45.8736 71.9369 48.0435 68.0555L34.0777 60.248ZM66.0848 67.0829L63.5938 74.6852L63.63 74.697L63.6662 74.7085L66.0848 67.0829ZM61.3953 64.0755L67.5006 58.9058L61.3953 64.0755ZM59.6059 55.0328L67.1876 57.5859L67.2034 57.5387L67.2187 57.4913L59.6059 55.0328ZM62.1979 50.9365L56.7516 45.0767L56.7115 45.114L56.6719 45.1518L62.1979 50.9365ZM66.9957 48.6608L74.9793 48.1502L74.4088 39.2303L65.6065 40.7824L66.9957 48.6608ZM69.1967 56.7211L62.1619 60.5303L62.1769 60.558L62.1921 60.5856L69.1967 56.7211ZM71.8879 59.8208L67.8439 66.7234L67.9466 66.7836L68.051 66.8407L71.8879 59.8208ZM77.9646 58.1645L84.5178 62.7531L84.5628 62.6888L84.6065 62.6237L77.9646 58.1645ZM76.049 50.2489L71.7878 57.0196L71.8395 57.0521L71.8918 57.0839L76.049 50.2489ZM70.1694 47.1264L66.5537 54.2627L66.6706 54.3219L66.7895 54.3773L70.1694 47.1264ZM65.8654 44.8309L61.7386 51.6843L61.8559 51.7549L61.9755 51.8215L65.8654 44.8309ZM61.8248 41.4492L55.763 46.6697L55.7946 46.7064L55.8267 46.7428L61.8248 41.4492ZM59.9615 30.145L52.5444 27.1474L52.5171 27.2148L52.4911 27.2828L59.9615 30.145ZM63.3137 25.1997L68.873 30.9526L68.8886 30.9375L68.9041 30.9223L63.3137 25.1997ZM68.4564 21.5635L71.996 28.7378L72.0436 28.7143L72.0909 28.6902L68.4564 21.5635ZM80.7283 19.6596L78.4474 27.3276L78.4474 27.3276L80.7283 19.6596ZM84.8654 22.1145L90.778 16.7255L90.778 16.7255L84.8654 22.1145ZM86.3251 29.6556L78.8697 26.7543L78.8542 26.7942L78.8391 26.8342L86.3251 29.6556ZM83.7887 32.9622L88.7118 39.2681L88.7118 39.2681L83.7887 32.9622ZM78.9985 34.9117L71.0038 34.6193L70.6421 44.5085L80.3877 42.7901L78.9985 34.9117ZM78.9728 33.2915L86.9446 32.6213L86.9421 32.5914L86.9394 32.5614L78.9728 33.2915ZM76.6267 27.7264L71.887 34.1711L72.0369 34.2813L72.1917 34.3845L76.6267 27.7264ZM70.6058 28.5931L76.5553 33.9412L76.6259 33.8627L76.6944 33.7823L70.6058 28.5931ZM71.6131 36.1489L66.0312 41.8797L66.1053 41.9519L66.1812 42.0221L71.6131 36.1489ZM75.1275 38.3887L71.9719 45.74L72.0286 45.7644L72.0857 45.7878L75.1275 38.3887ZM79.5094 40.0206L76.9563 47.6022L77.0035 47.6181L77.0509 47.6334L79.5094 40.0206ZM84.0507 41.8193L80.624 49.0482L80.7557 49.1107L80.8896 49.1682L84.0507 41.8193ZM87.9469 44.3817L82.3806 50.1276L82.3806 50.1276L87.9469 44.3817ZM89.5063 54.6996L97.0155 57.4585L97.0292 57.4213L97.0425 57.3838L89.5063 54.6996ZM86.0761 60.3085L91.9747 65.7128L92.0138 65.6701L92.0523 65.6268L86.0761 60.3085ZM80.4254 64.7492L76.4673 57.7969L76.4474 57.8083L76.4274 57.8198L80.4254 64.7492ZM71.9473 59.4204C69.9788 59.7675 68.9385 59.5952 68.5034 59.4572L63.6662 74.7085C67.2695 75.8514 71.0636 75.8231 74.7256 75.1774L71.9473 59.4204ZM68.5757 59.4805C67.7624 59.2141 67.5406 58.953 67.5006 58.9058L55.29 69.2452C57.5483 71.9121 60.4527 73.656 63.5938 74.6852L68.5757 59.4805ZM67.5006 58.9058C67.1756 58.5221 67.14 58.3248 67.1278 58.2556L51.3709 61.034C51.9218 64.1583 53.3167 66.9148 55.29 69.2452L67.5006 58.9058ZM67.1278 58.2556C67.0899 58.0409 67.0958 57.8584 67.1876 57.5859L52.0242 52.4798C51.0923 55.2472 50.8605 58.1393 51.3709 61.034L67.1278 58.2556ZM67.2187 57.4913C67.3018 57.2343 67.4306 57.0015 67.724 56.7212L56.6719 45.1518C54.5181 47.2093 52.9189 49.7074 51.993 52.5744L67.2187 57.4913ZM67.6442 56.7963C67.6637 56.7783 67.6958 56.7511 67.7751 56.7135C67.8611 56.6726 68.0485 56.5986 68.3848 56.5393L65.6065 40.7824C62.3673 41.3535 59.295 42.7128 56.7516 45.0767L67.6442 56.7963ZM59.012 49.1715C59.0531 49.8139 59.1264 50.4708 59.2431 51.1326L75 48.3542C74.9982 48.3437 74.9876 48.2788 74.9793 48.1502L59.012 49.1715ZM59.2431 51.1326C59.2432 51.1332 59.2433 51.1337 59.2434 51.1343C59.2435 51.1349 59.2436 51.1355 59.2437 51.136C59.2438 51.1366 59.2439 51.1372 59.244 51.1377C59.2441 51.1383 59.2442 51.1389 59.2443 51.1395C59.2444 51.14 59.2445 51.1406 59.2446 51.1412C59.2447 51.1417 59.2448 51.1423 59.2449 51.1429C59.245 51.1434 59.2451 51.144 59.2452 51.1446C59.2453 51.1451 59.2454 51.1457 59.2455 51.1463C59.2456 51.1468 59.2457 51.1474 59.2458 51.148C59.2459 51.1485 59.246 51.1491 59.2461 51.1497C59.2462 51.1502 59.2463 51.1508 59.2464 51.1513C59.2465 51.1519 59.2466 51.1525 59.2467 51.153C59.2468 51.1536 59.2469 51.1541 59.247 51.1547C59.2471 51.1553 59.2472 51.1558 59.2473 51.1564C59.2474 51.1569 59.2475 51.1575 59.2476 51.1581C59.2477 51.1586 59.2478 51.1592 59.2479 51.1597C59.248 51.1603 59.2481 51.1608 59.2482 51.1614C59.2483 51.162 59.2484 51.1625 59.2485 51.1631C59.2486 51.1636 59.2487 51.1642 59.2488 51.1647C59.2489 51.1653 59.249 51.1658 59.2491 51.1664C59.2492 51.1669 59.2492 51.1675 59.2493 51.168C59.2494 51.1686 59.2495 51.1691 59.2496 51.1697C59.2497 51.1702 59.2498 51.1708 59.2499 51.1713C59.25 51.1719 59.2501 51.1724 59.2502 51.173C59.2503 51.1735 59.2504 51.1741 59.2505 51.1746C59.2506 51.1752 59.2507 51.1757 59.2508 51.1763C59.2509 51.1768 59.251 51.1773 59.2511 51.1779C59.2512 51.1784 59.2513 51.179 59.2514 51.1795C59.2515 51.1801 59.2516 51.1806 59.2517 51.1811C59.2518 51.1817 59.2518 51.1822 59.2519 51.1828C59.252 51.1833 59.2521 51.1839 59.2522 51.1844C59.2523 51.1849 59.2524 51.1855 59.2525 51.186C59.2526 51.1865 59.2527 51.1871 59.2528 51.1876C59.2529 51.1882 59.253 51.1887 59.2531 51.1892C59.2532 51.1898 59.2533 51.1903 59.2534 51.1908C59.2535 51.1914 59.2536 51.1919 59.2536 51.1924C59.2537 51.193 59.2538 51.1935 59.2539 51.194C59.254 51.1946 59.2541 51.1951 59.2542 51.1956C59.2543 51.1962 59.2544 51.1967 59.2545 51.1972C59.2546 51.1978 59.2547 51.1983 59.2548 51.1988C59.2549 51.1994 59.255 51.1999 59.2551 51.2004C59.2551 51.2009 59.2552 51.2015 59.2553 51.202C59.2554 51.2025 59.2555 51.2031 59.2556 51.2036C59.2557 51.2041 59.2558 51.2046 59.2559 51.2052C59.256 51.2057 59.2561 51.2062 59.2562 51.2067C59.2563 51.2073 59.2564 51.2078 59.2564 51.2083C59.2565 51.2088 59.2566 51.2093 59.2567 51.2099C59.2568 51.2104 59.2569 51.2109 59.257 51.2114C59.2571 51.212 59.2572 51.2125 59.2573 51.213C59.2574 51.2135 59.2575 51.214 59.2575 51.2145C59.2576 51.2151 59.2577 51.2156 59.2578 51.2161C59.2579 51.2166 59.258 51.2171 59.2581 51.2177C59.2582 51.2182 59.2583 51.2187 59.2584 51.2192C59.2585 51.2197 59.2585 51.2202 59.2586 51.2207C59.2587 51.2213 59.2588 51.2218 59.2589 51.2223C59.259 51.2228 59.2591 51.2233 59.2592 51.2238C59.2593 51.2243 59.2594 51.2248 59.2595 51.2254C59.2595 51.2259 59.2596 51.2264 59.2597 51.2269C59.2598 51.2274 59.2599 51.2279 59.26 51.2284C59.2601 51.2289 59.2602 51.2294 59.2603 51.2299C59.2603 51.2304 59.2604 51.2309 59.2605 51.2315C59.2606 51.232 59.2607 51.2325 59.2608 51.233C59.2609 51.2335 59.261 51.234 59.2611 51.2345C59.2611 51.235 59.2612 51.2355 59.2613 51.236C59.2614 51.2365 59.2615 51.237 59.2616 51.2375C59.2617 51.238 59.2618 51.2385 59.2619 51.239C59.2619 51.2395 59.262 51.24 59.2621 51.2405C59.2622 51.241 59.2623 51.2415 59.2624 51.242C59.2625 51.2425 59.2626 51.243 59.2626 51.2435C59.2627 51.244 59.2628 51.2445 59.2629 51.245C59.263 51.2455 59.2631 51.246 59.2632 51.2465C59.2633 51.247 59.2633 51.2475 59.2634 51.2479C59.2635 51.2484 59.2636 51.2489 59.2637 51.2494C59.2638 51.2499 59.2639 51.2504 59.264 51.2509C59.264 51.2514 59.2641 51.2519 59.2642 51.2524C59.2643 51.2529 59.2644 51.2534 59.2645 51.2538C59.2646 51.2543 59.2646 51.2548 59.2647 51.2553C59.2648 51.2558 59.2649 51.2563 59.265 51.2568C59.2651 51.2573 59.2652 51.2577 59.2652 51.2582C59.2653 51.2587 59.2654 51.2592 59.2655 51.2597C59.2656 51.2602 59.2657 51.2607 59.2658 51.2611C59.2658 51.2616 59.2659 51.2621 59.266 51.2626C59.2661 51.2631 59.2662 51.2636 59.2663 51.264C59.2664 51.2645 59.2664 51.265 59.2665 51.2655C59.2666 51.266 59.2667 51.2664 59.2668 51.2669C59.2669 51.2674 59.2669 51.2679 59.267 51.2684C59.2671 51.2688 59.2672 51.2693 59.2673 51.2698C59.2674 51.2703 59.2675 51.2707 59.2675 51.2712C59.2676 51.2717 59.2677 51.2722 59.2678 51.2726C59.2679 51.2731 59.268 51.2736 59.268 51.2741C59.2681 51.2745 59.2682 51.275 59.2683 51.2755C59.2684 51.276 59.2685 51.2764 59.2685 51.2769C59.2686 51.2774 59.2687 51.2778 59.2688 51.2783C59.2689 51.2788 59.269 51.2792 59.269 51.2797C59.2691 51.2802 59.2692 51.2807 59.2693 51.2811C59.2694 51.2816 59.2694 51.2821 59.2695 51.2825C59.2696 51.283 59.2697 51.2835 59.2698 51.2839C59.2699 51.2844 59.2699 51.2849 59.27 51.2853C59.2701 51.2858 59.2702 51.2862 59.2703 51.2867C59.2704 51.2872 59.2704 51.2876 59.2705 51.2881C59.2706 51.2886 59.2707 51.289 59.2708 51.2895C59.2708 51.2899 59.2709 51.2904 59.271 51.2909C59.2711 51.2913 59.2712 51.2918 59.2712 51.2922C59.2713 51.2927 59.2714 51.2932 59.2715 51.2936C59.2716 51.2941 59.2716 51.2945 59.2717 51.295C59.2718 51.2954 59.2719 51.2959 59.272 51.2964C59.2721 51.2968 59.2721 51.2973 59.2722 51.2977C59.2723 51.2982 59.2724 51.2986 59.2725 51.2991C59.2725 51.2995 59.2726 51.3 59.2727 51.3004C59.2728 51.3009 59.2729 51.3013 59.2729 51.3018C59.273 51.3022 59.2731 51.3027 59.2732 51.3031C59.2732 51.3036 59.2733 51.304 59.2734 51.3045C59.2735 51.3049 59.2736 51.3054 59.2736 51.3058C59.2737 51.3063 59.2738 51.3067 59.2739 51.3072C59.274 51.3076 59.274 51.3081 59.2741 51.3085C59.2742 51.309 59.2743 51.3094 59.2744 51.3099C59.2744 51.3103 59.2745 51.3107 59.2746 51.3112C59.2747 51.3116 59.2747 51.3121 59.2748 51.3125C59.2749 51.313 59.275 51.3134 59.2751 51.3138C59.2751 51.3143 59.2752 51.3147 59.2753 51.3152C59.2754 51.3156 59.2754 51.316 59.2755 51.3165C59.2756 51.3169 59.2757 51.3174 59.2758 51.3178C59.2758 51.3182 59.2759 51.3187 59.276 51.3191C59.2761 51.3195 59.2761 51.32 59.2762 51.3204C59.2763 51.3208 59.2764 51.3213 59.2764 51.3217C59.2765 51.3221 59.2766 51.3226 59.2767 51.323C59.2767 51.3234 59.2768 51.3239 59.2769 51.3243C59.277 51.3247 59.2771 51.3252 59.2771 51.3256C59.2772 51.326 59.2773 51.3265 59.2774 51.3269C59.2774 51.3273 59.2775 51.3278 59.2776 51.3282C59.2777 51.3286 59.2777 51.329 59.2778 51.3295C59.2779 51.3299 59.278 51.3303 59.278 51.3308C59.2781 51.3312 59.2782 51.3316 59.2783 51.332C59.2783 51.3325 59.2784 51.3329 59.2785 51.3333C59.2786 51.3337 59.2786 51.3341 59.2787 51.3346C59.2788 51.335 59.2789 51.3354 59.2789 51.3358C59.279 51.3363 59.2791 51.3367 59.2792 51.3371C59.2792 51.3375 59.2793 51.3379 59.2794 51.3384C59.2795 51.3388 59.2795 51.3392 59.2796 51.3396C59.2797 51.34 59.2797 51.3405 59.2798 51.3409C59.2799 51.3413 59.28 51.3417 59.28 51.3421C59.2801 51.3425 59.2802 51.343 59.2803 51.3434C59.2803 51.3438 59.2804 51.3442 59.2805 51.3446C59.2806 51.345 59.2806 51.3454 59.2807 51.3459C59.2808 51.3463 59.2808 51.3467 59.2809 51.3471C59.281 51.3475 59.2811 51.3479 59.2811 51.3483C59.2812 51.3487 59.2813 51.3491 59.2814 51.3496C59.2814 51.35 59.2815 51.3504 59.2816 51.3508C59.2816 51.3512 59.2817 51.3516 59.2818 51.352C59.2819 51.3524 59.2819 51.3528 59.282 51.3532C59.2821 51.3536 59.2821 51.354 59.2822 51.3544C59.2823 51.3549 59.2824 51.3553 59.2824 51.3557C59.2825 51.3561 59.2826 51.3565 59.2826 51.3569C59.2827 51.3573 59.2828 51.3577 59.2829 51.3581C59.2829 51.3585 59.283 51.3589 59.2831 51.3593C59.2831 51.3597 59.2832 51.3601 59.2833 51.3605C59.2833 51.3609 59.2834 51.3613 59.2835 51.3617C59.2836 51.3621 59.2836 51.3625 59.2837 51.3629C59.2838 51.3633 59.2838 51.3637 59.2839 51.3641C59.284 51.3645 59.284 51.3649 59.2841 51.3652C59.2842 51.3656 59.2843 51.366 59.2843 51.3664C59.2844 51.3668 59.2845 51.3672 59.2845 51.3676C59.2846 51.368 59.2847 51.3684 59.2847 51.3688C59.2848 51.3692 59.2849 51.3696 59.2849 51.37C59.285 51.3703 59.2851 51.3707 59.2852 51.3711C59.2852 51.3715 59.2853 51.3719 59.2854 51.3723C59.2854 51.3727 59.2855 51.3731 59.2856 51.3735C59.2856 51.3738 59.2857 51.3742 59.2858 51.3746C59.2858 51.375 59.2859 51.3754 59.286 51.3758C59.286 51.3762 59.2861 51.3765 59.2862 51.3769C59.2862 51.3773 59.2863 51.3777 59.2864 51.3781C59.2864 51.3785 59.2865 51.3788 59.2866 51.3792C59.2866 51.3796 59.2867 51.38 59.2868 51.3804C59.2869 51.3807 59.2869 51.3811 59.287 51.3815C59.2871 51.3819 59.2871 51.3823 59.2872 51.3826C59.2873 51.383 59.2873 51.3834 59.2874 51.3838C59.2875 51.3841 59.2875 51.3845 59.2876 51.3849C59.2877 51.3853 59.2877 51.3857 59.2878 51.386C59.2878 51.3864 59.2879 51.3868 59.288 51.3872C59.288 51.3875 59.2881 51.3879 59.2882 51.3883C59.2882 51.3886 59.2883 51.389 59.2884 51.3894C59.2884 51.3898 59.2885 51.3901 59.2886 51.3905C59.2886 51.3909 59.2887 51.3912 59.2888 51.3916C59.2888 51.392 59.2889 51.3923 59.289 51.3927C59.289 51.3931 59.2891 51.3934 59.2892 51.3938C59.2892 51.3942 59.2893 51.3945 59.2893 51.3949C59.2894 51.3953 59.2895 51.3956 59.2895 51.396C59.2896 51.3964 59.2897 51.3967 59.2897 51.3971C59.2898 51.3975 59.2899 51.3978 59.2899 51.3982C59.29 51.3986 59.2901 51.3989 59.2901 51.3993C59.2902 51.3996 59.2902 51.4 59.2903 51.4004C59.2904 51.4007 59.2904 51.4011 59.2905 51.4014C59.2906 51.4018 59.2906 51.4022 59.2907 51.4025C59.2908 51.4029 59.2908 51.4032 59.2909 51.4036C59.2909 51.4039 59.291 51.4043 59.2911 51.4047C59.2911 51.405 59.2912 51.4054 59.2913 51.4057C59.2913 51.4061 59.2914 51.4064 59.2914 51.4068C59.2915 51.4071 59.2916 51.4075 59.2916 51.4078C59.2917 51.4082 59.2918 51.4085 59.2918 51.4089C59.2919 51.4092 59.2919 51.4096 59.292 51.4099C59.2921 51.4103 59.2921 51.4106 59.2922 51.411C59.2922 51.4113 59.2923 51.4117 59.2924 51.412C59.2924 51.4124 59.2925 51.4127 59.2926 51.4131C59.2926 51.4134 59.2927 51.4138 59.2927 51.4141C59.2928 51.4145 59.2929 51.4148 59.2929 51.4152C59.293 51.4155 59.293 51.4158 59.2931 51.4162C59.2932 51.4165 59.2932 51.4169 59.2933 51.4172C59.2933 51.4176 59.2934 51.4179 59.2935 51.4182C59.2935 51.4186 59.2936 51.4189 59.2936 51.4193C59.2937 51.4196 59.2938 51.4199 59.2938 51.4203C59.2939 51.4206 59.2939 51.421 59.294 51.4213C59.2941 51.4216 59.2941 51.422 59.2942 51.4223C59.2942 51.4226 59.2943 51.423 59.2944 51.4233C59.2944 51.4237 59.2945 51.424 59.2945 51.4243C59.2946 51.4247 59.2947 51.425 59.2947 51.4253C59.2948 51.4257 59.2948 51.426 59.2949 51.4263C59.2949 51.4267 59.295 51.427 59.2951 51.4273C59.2951 51.4276 59.2952 51.428 59.2952 51.4283C59.2953 51.4286 59.2954 51.429 59.2954 51.4293C59.2955 51.4296 59.2955 51.4299 59.2956 51.4303C59.2956 51.4306 59.2957 51.4309 59.2958 51.4313C59.2958 51.4316 59.2959 51.4319 59.2959 51.4322C59.296 51.4326 59.296 51.4329 59.2961 51.4332C59.2962 51.4335 59.2962 51.4339 59.2963 51.4342C59.2963 51.4345 59.2964 51.4348 59.2964 51.4351C59.2965 51.4355 59.2966 51.4358 59.2966 51.4361C59.2967 51.4364 59.2967 51.4368 59.2968 51.4371C59.2968 51.4374 59.2969 51.4377 59.297 51.438C59.297 51.4384 59.2971 51.4387 59.2971 51.439C59.2972 51.4393 59.2972 51.4396 59.2973 51.4399C59.2973 51.4403 59.2974 51.4406 59.2975 51.4409C59.2975 51.4412 59.2976 51.4415 59.2976 51.4418C59.2977 51.4421 59.2977 51.4425 59.2978 51.4428C59.2978 51.4431 59.2979 51.4434 59.298 51.4437C59.298 51.444 59.2981 51.4443 59.2981 51.4446C59.2982 51.445 59.2982 51.4453 59.2983 51.4456C59.2983 51.4459 59.2984 51.4462 59.2984 51.4465C59.2985 51.4468 59.2986 51.4471 59.2986 51.4474C59.2987 51.4477 59.2987 51.448 59.2988 51.4483C59.2988 51.4487 59.2989 51.449 59.2989 51.4493C59.299 51.4496 59.299 51.4499 59.2991 51.4502C59.2991 51.4505 59.2992 51.4508 59.2993 51.4511C59.2993 51.4514 59.2994 51.4517 59.2994 51.452C59.2995 51.4523 59.2995 51.4526 59.2996 51.4529C59.2996 51.4532 59.2997 51.4535 59.2997 51.4538C59.2998 51.4541 59.2998 51.4544 59.2999 51.4547C59.2999 51.455 59.3 51.4553 59.3 51.4556C59.3001 51.4559 59.3002 51.4562 59.3002 51.4565C59.3003 51.4568 59.3003 51.4571 59.3004 51.4574C59.3004 51.4577 59.3005 51.458 59.3005 51.4582C59.3006 51.4585 59.3006 51.4588 59.3007 51.4591C59.3007 51.4594 59.3008 51.4597 59.3008 51.46C59.3009 51.4603 59.3009 51.4606 59.301 51.4609C59.301 51.4612 59.3011 51.4615 59.3011 51.4618C59.3012 51.462 59.3012 51.4623 59.3013 51.4626C59.3013 51.4629 59.3014 51.4632 59.3014 51.4635C59.3015 51.4638 59.3015 51.4641 59.3016 51.4643C59.3016 51.4646 59.3017 51.4649 59.3017 51.4652C59.3018 51.4655 59.3018 51.4658 59.3019 51.4661C59.3019 51.4663 59.302 51.4666 59.302 51.4669C59.3021 51.4672 59.3021 51.4675 59.3022 51.4677C59.3022 51.468 59.3023 51.4683 59.3023 51.4686C59.3024 51.4689 59.3024 51.4692 59.3025 51.4694C59.3025 51.4697 59.3026 51.47 59.3026 51.4703C59.3027 51.4705 59.3027 51.4708 59.3028 51.4711C59.3028 51.4714 59.3029 51.4717 59.3029 51.4719C59.303 51.4722 59.303 51.4725 59.3031 51.4728C59.3031 51.473 59.3032 51.4733 59.3032 51.4736C59.3033 51.4739 59.3033 51.4741 59.3034 51.4744C59.3034 51.4747 59.3035 51.4749 59.3035 51.4752C59.3036 51.4755 59.3036 51.4758 59.3037 51.476C59.3037 51.4763 59.3037 51.4766 59.3038 51.4768C59.3038 51.4771 59.3039 51.4774 59.3039 51.4776C59.304 51.4779 59.304 51.4782 59.3041 51.4784C59.3041 51.4787 59.3042 51.479 59.3042 51.4792C59.3043 51.4795 59.3043 51.4798 59.3044 51.48C59.3044 51.4803 59.3045 51.4806 59.3045 51.4808C59.3045 51.4811 59.3046 51.4814 59.3046 51.4816C59.3047 51.4819 59.3047 51.4821 59.3048 51.4824C59.3048 51.4827 59.3049 51.4829 59.3049 51.4832C59.305 51.4835 59.305 51.4837 59.3051 51.484C59.3051 51.4842 59.3051 51.4845 59.3052 51.4847C59.3052 51.485 59.3053 51.4853 59.3053 51.4855C59.3054 51.4858 59.3054 51.486 59.3055 51.4863C59.3055 51.4865 59.3056 51.4868 59.3056 51.4871C59.3056 51.4873 59.3057 51.4876 59.3057 51.4878C59.3058 51.4881 59.3058 51.4883 59.3059 51.4886C59.3059 51.4888 59.306 51.4891 59.306 51.4893C59.306 51.4896 59.3061 51.4898 59.3061 51.4901C59.3062 51.4903 59.3062 51.4906 59.3063 51.4908C59.3063 51.4911 59.3064 51.4913 59.3064 51.4916C59.3064 51.4918 59.3065 51.4921 59.3065 51.4923C59.3066 51.4926 59.3066 51.4928 59.3067 51.4931C59.3067 51.4933 59.3067 51.4936 59.3068 51.4938C59.3068 51.494 59.3069 51.4943 59.3069 51.4945C59.307 51.4948 59.307 51.495 59.307 51.4953C59.3071 51.4955 59.3071 51.4957 59.3072 51.496C59.3072 51.4962 59.3073 51.4965 59.3073 51.4967C59.3073 51.4969 59.3074 51.4972 59.3074 51.4974C59.3075 51.4977 59.3075 51.4979 59.3076 51.4981C59.3076 51.4984 59.3076 51.4986 59.3077 51.4988C59.3077 51.4991 59.3078 51.4993 59.3078 51.4996C59.3078 51.4998 59.3079 51.5 59.3079 51.5003C59.308 51.5005 59.308 51.5007 59.308 51.501C59.3081 51.5012 59.3081 51.5014 59.3082 51.5017C59.3082 51.5019 59.3083 51.5021 59.3083 51.5024C59.3083 51.5026 59.3084 51.5028 59.3084 51.503C59.3085 51.5033 59.3085 51.5035 59.3085 51.5037C59.3086 51.504 59.3086 51.5042 59.3087 51.5044C59.3087 51.5047 59.3087 51.5049 59.3088 51.5051C59.3088 51.5053 59.3089 51.5056 59.3089 51.5058C59.3089 51.506 59.309 51.5062 59.309 51.5065C59.3091 51.5067 59.3091 51.5069 59.3091 51.5071C59.3092 51.5074 59.3092 51.5076 59.3093 51.5078C59.3093 51.508 59.3093 51.5082 59.3094 51.5085C59.3094 51.5087 59.3094 51.5089 59.3095 51.5091C59.3095 51.5093 59.3096 51.5096 59.3096 51.5098C59.3096 51.51 59.3097 51.5102 59.3097 51.5104C59.3098 51.5107 59.3098 51.5109 59.3098 51.5111C59.3099 51.5113 59.3099 51.5115 59.3099 51.5117C59.31 51.512 59.31 51.5122 59.3101 51.5124C59.3101 51.5126 59.3101 51.5128 59.3102 51.513C59.3102 51.5132 59.3103 51.5134 59.3103 51.5137C59.3103 51.5139 59.3104 51.5141 59.3104 51.5143C59.3104 51.5145 59.3105 51.5147 59.3105 51.5149C59.3105 51.5151 59.3106 51.5153 59.3106 51.5156C59.3107 51.5158 59.3107 51.516 59.3107 51.5162C59.3108 51.5164 59.3108 51.5166 59.3108 51.5168C59.3109 51.517 59.3109 51.5172 59.3109 51.5174C59.311 51.5176 59.311 51.5178 59.3111 51.518C59.3111 51.5182 59.3111 51.5184 59.3112 51.5186C59.3112 51.5188 59.3112 51.519 59.3113 51.5192C59.3113 51.5195 59.3113 51.5197 59.3114 51.5199C59.3114 51.5201 59.3115 51.5203 59.3115 51.5205C59.3115 51.5207 59.3116 51.5209 59.3116 51.5211C59.3116 51.5212 59.3117 51.5214 59.3117 51.5216C59.3117 51.5218 59.3118 51.522 59.3118 51.5222C59.3118 51.5224 59.3119 51.5226 59.3119 51.5228C59.3119 51.523 59.312 51.5232 59.312 51.5234C59.312 51.5236 59.3121 51.5238 59.3121 51.524C59.3121 51.5242 59.3122 51.5244 59.3122 51.5246C59.3122 51.5248 59.3123 51.5249 59.3123 51.5251C59.3123 51.5253 59.3124 51.5255 59.3124 51.5257C59.3124 51.5259 59.3125 51.5261 59.3125 51.5263C59.3125 51.5265 59.3126 51.5267 59.3126 51.5268C59.3126 51.527 59.3127 51.5272 59.3127 51.5274C59.3127 51.5276 59.3128 51.5278 59.3128 51.528C59.3128 51.5281 59.3129 51.5283 59.3129 51.5285C59.3129 51.5287 59.313 51.5289 59.313 51.5291C59.313 51.5292 59.3131 51.5294 59.3131 51.5296C59.3131 51.5298 59.3132 51.53 59.3132 51.5302C59.3132 51.5303 59.3133 51.5305 59.3133 51.5307C59.3133 51.5309 59.3134 51.5311 59.3134 51.5312C59.3134 51.5314 59.3134 51.5316 59.3135 51.5318C59.3135 51.5319 59.3135 51.5321 59.3136 51.5323C59.3136 51.5325 59.3136 51.5326 59.3137 51.5328C59.3137 51.533 59.3137 51.5332 59.3138 51.5333C59.3138 51.5335 59.3138 51.5337 59.3139 51.5339C59.3139 51.534 59.3139 51.5342 59.3139 51.5344C59.314 51.5346 59.314 51.5347 59.314 51.5349C59.3141 51.5351 59.3141 51.5352 59.3141 51.5354C59.3142 51.5356 59.3142 51.5357 59.3142 51.5359C59.3142 51.5361 59.3143 51.5362 59.3143 51.5364C59.3143 51.5366 59.3144 51.5367 59.3144 51.5369C59.3144 51.5371 59.3144 51.5372 59.3145 51.5374C59.3145 51.5376 59.3145 51.5377 59.3146 51.5379C59.3146 51.5381 59.3146 51.5382 59.3146 51.5384C59.3147 51.5386 59.3147 51.5387 59.3147 51.5389C59.3148 51.539 59.3148 51.5392 59.3148 51.5394C59.3148 51.5395 59.3149 51.5397 59.3149 51.5398C59.3149 51.54 59.315 51.5402 59.315 51.5403C59.315 51.5405 59.315 51.5406 59.3151 51.5408C59.3151 51.5409 59.3151 51.5411 59.3152 51.5413C59.3152 51.5414 59.3152 51.5416 59.3152 51.5417C59.3153 51.5419 59.3153 51.542 59.3153 51.5422C59.3153 51.5423 59.3154 51.5425 59.3154 51.5426C59.3154 51.5428 59.3155 51.543 59.3155 51.5431C59.3155 51.5433 59.3155 51.5434 59.3156 51.5436C59.3156 51.5437 59.3156 51.5439 59.3156 51.544C59.3157 51.5442 59.3157 51.5443 59.3157 51.5445C59.3157 51.5446 59.3158 51.5447 59.3158 51.5449C59.3158 51.545 59.3158 51.5452 59.3159 51.5453C59.3159 51.5455 59.3159 51.5456 59.3159 51.5458C59.316 51.5459 59.316 51.5461 59.316 51.5462C59.3161 51.5463 59.3161 51.5465 59.3161 51.5466C59.3161 51.5468 59.3162 51.5469 59.3162 51.5471C59.3162 51.5472 59.3162 51.5473 59.3163 51.5475C59.3163 51.5476 59.3163 51.5478 59.3163 51.5479C59.3163 51.548 59.3164 51.5482 59.3164 51.5483C59.3164 51.5485 59.3164 51.5486 59.3165 51.5487C59.3165 51.5489 59.3165 51.549 59.3165 51.5491C59.3166 51.5493 59.3166 51.5494 59.3166 51.5495C59.3166 51.5497 59.3167 51.5498 59.3167 51.5499C59.3167 51.5501 59.3167 51.5502 59.3168 51.5503C59.3168 51.5505 59.3168 51.5506 59.3168 51.5507C59.3168 51.5509 59.3169 51.551 59.3169 51.5511C59.3169 51.5513 59.3169 51.5514 59.317 51.5515C59.317 51.5516 59.317 51.5518 59.317 51.5519C59.3171 51.552 59.3171 51.5522 59.3171 51.5523C59.3171 51.5524 59.3171 51.5525 59.3172 51.5527C59.3172 51.5528 59.3172 51.5529 59.3172 51.553C59.3173 51.5532 59.3173 51.5533 59.3173 51.5534C59.3173 51.5535 59.3173 51.5537 59.3174 51.5538C59.3174 51.5539 59.3174 51.554 59.3174 51.5541C59.3174 51.5543 59.3175 51.5544 59.3175 51.5545C59.3175 51.5546 59.3175 51.5547 59.3176 51.5549C59.3176 51.555 59.3176 51.5551 59.3176 51.5552C59.3176 51.5553 59.3177 51.5555 59.3177 51.5556C59.3177 51.5557 59.3177 51.5558 59.3177 51.5559C59.3178 51.556 59.3178 51.5562 59.3178 51.5563C59.3178 51.5564 59.3178 51.5565 59.3179 51.5566C59.3179 51.5567 59.3179 51.5568 59.3179 51.5569C59.3179 51.5571 59.318 51.5572 59.318 51.5573C59.318 51.5574 59.318 51.5575 59.318 51.5576C59.3181 51.5577 59.3181 51.5578 59.3181 51.5579C59.3181 51.5581 59.3181 51.5582 59.3182 51.5583C59.3182 51.5584 59.3182 51.5585 59.3182 51.5586C59.3182 51.5587 59.3182 51.5588 59.3183 51.5589C59.3183 51.559 59.3183 51.5591 59.3183 51.5592C59.3183 51.5593 59.3184 51.5594 59.3184 51.5595C59.3184 51.5596 59.3184 51.5597 59.3184 51.5598C59.3184 51.5599 59.3185 51.56 59.3185 51.5601C59.3185 51.5602 59.3185 51.5603 59.3185 51.5604C59.3186 51.5605 59.3186 51.5606 59.3186 51.5607C59.3186 51.5608 59.3186 51.5609 59.3186 51.561C59.3187 51.5611 59.3187 51.5612 59.3187 51.5613C59.3187 51.5614 59.3187 51.5615 59.3187 51.5616C59.3188 51.5617 59.3188 51.5618 59.3188 51.5619C59.3188 51.562 59.3188 51.5621 59.3188 51.5622C59.3189 51.5623 59.3189 51.5624 59.3189 51.5625C59.3189 51.5626 59.3189 51.5626 59.3189 51.5627C59.319 51.5628 59.319 51.5629 59.319 51.563C59.319 51.5631 59.319 51.5632 59.319 51.5633C59.3191 51.5634 59.3191 51.5635 59.3191 51.5635C59.3191 51.5636 59.3191 51.5637 59.3191 51.5638C59.3191 51.5639 59.3192 51.564 59.3192 51.5641C59.3192 51.5641 59.3192 51.5642 59.3192 51.5643C59.3192 51.5644 59.3192 51.5645 59.3193 51.5646C59.3193 51.5646 59.3193 51.5647 59.3193 51.5648C59.3193 51.5649 59.3193 51.565 59.3193 51.5651C59.3194 51.5651 59.3194 51.5652 59.3194 51.5653C59.3194 51.5654 59.3194 51.5655 59.3194 51.5655C59.3194 51.5656 59.3195 51.5657 59.3195 51.5658C59.3195 51.5658 59.3195 51.5659 59.3195 51.566C59.3195 51.5661 59.3195 51.5661 59.3196 51.5662C59.3196 51.5663 59.3196 51.5664 59.3196 51.5664C59.3196 51.5665 59.3196 51.5666 59.3196 51.5667C59.3196 51.5667 59.3197 51.5668 59.3197 51.5669C59.3197 51.567 59.3197 51.567 59.3197 51.5671C59.3197 51.5672 59.3197 51.5672 59.3197 51.5673C59.3198 51.5674 59.3198 51.5674 59.3198 51.5675C59.3198 51.5676 59.3198 51.5677 59.3198 51.5677C59.3198 51.5678 59.3198 51.5679 59.3199 51.5679C59.3199 51.568 59.3199 51.5681 59.3199 51.5681C59.3199 51.5682 59.3199 51.5682 59.3199 51.5683C59.3199 51.5684 59.3199 51.5684 59.32 51.5685C59.32 51.5686 59.32 51.5686 59.32 51.5687C59.32 51.5687 59.32 51.5688 59.32 51.5689C59.32 51.5689 59.32 51.569 59.3201 51.5691C59.3201 51.5691 59.3201 51.5692 59.3201 51.5692C59.3201 51.5693 59.3201 51.5693 59.3201 51.5694C59.3201 51.5695 59.3201 51.5695 59.3201 51.5696C59.3202 51.5696 59.3202 51.5697 59.3202 51.5697C59.3202 51.5698 59.3202 51.5698 59.3202 51.5699C59.3202 51.57 59.3202 51.57 59.3202 51.5701C59.3202 51.5701 59.3203 51.5702 59.3203 51.5702C59.3203 51.5703 59.3203 51.5703 59.3203 51.5704C59.3203 51.5704 59.3203 51.5705 59.3203 51.5705C59.3203 51.5706 59.3203 51.5706 59.3203 51.5707C59.3203 51.5707 59.3204 51.5708 59.3204 51.5708C59.3204 51.5709 59.3204 51.5709 59.3204 51.5709C59.3204 51.571 59.3204 51.571 59.3204 51.5711C59.3204 51.5711 59.3204 51.5712 59.3204 51.5712C59.3204 51.5713 59.3205 51.5713 59.3205 51.5713C59.3205 51.5714 59.3205 51.5714 59.3205 51.5715C59.3205 51.5715 59.3205 51.5716 59.3205 51.5716C59.3205 51.5716 59.3205 51.5717 59.3205 51.5717C59.3205 51.5718 59.3205 51.5718 59.3205 51.5718C59.3206 51.5719 59.3206 51.5719 59.3206 51.5719C59.3206 51.572 59.3206 51.572 59.3206 51.5721C59.3206 51.5721 59.3206 51.5721 59.3206 51.5722C59.3206 51.5722 59.3206 51.5722 59.3206 51.5723C59.3206 51.5723 59.3206 51.5723 59.3206 51.5724C59.3206 51.5724 59.3206 51.5724 59.3207 51.5725C59.3207 51.5725 59.3207 51.5725 59.3207 51.5726C59.3207 51.5726 59.3207 51.5726 59.3207 51.5726C59.3207 51.5727 59.3207 51.5727 59.3207 51.5727C59.3207 51.5728 59.3207 51.5728 59.3207 51.5728C59.3207 51.5728 59.3207 51.5729 59.3207 51.5729C59.3207 51.5729 59.3207 51.5729 59.3207 51.573C59.3207 51.573 59.3208 51.573 59.3208 51.573C59.3208 51.5731 59.3208 51.5731 59.3208 51.5731C59.3208 51.5731 59.3208 51.5731 59.3208 51.5732C59.3208 51.5732 59.3208 51.5732 59.3208 51.5732C59.3208 51.5733 59.3208 51.5733 59.3208 51.5733C59.3208 51.5733 59.3208 51.5733 59.3208 51.5733C59.3208 51.5734 59.3208 51.5734 59.3208 51.5734C59.3208 51.5734 59.3208 51.5734 59.3208 51.5734C59.3208 51.5735 59.3208 51.5735 59.3208 51.5735C59.3208 51.5735 59.3208 51.5735 59.3208 51.5735C59.3208 51.5735 59.3209 51.5736 59.3209 51.5736C59.3209 51.5736 59.3209 51.5736 59.3209 51.5736C59.3209 51.5736 59.3209 51.5736 59.3209 51.5736C59.3209 51.5737 59.3209 51.5737 59.3209 51.5737C59.3209 51.5737 59.3209 51.5737 59.3209 51.5737C59.3209 51.5737 59.3209 51.5737 59.3209 51.5737C59.3209 51.5737 59.3209 51.5737 59.3209 51.5737C59.3209 51.5737 59.3209 51.5737 59.3209 51.5738C59.3209 51.5738 59.3209 51.5738 59.3209 51.5738C59.3209 51.5738 59.3209 51.5738 59.3209 51.5738C59.3209 51.5738 59.3209 51.5738 59.3209 51.5738C59.3209 51.5738 59.3209 51.5738 67.1994 50.1846C75.0778 48.7954 75.0778 48.7954 75.0778 48.7954C75.0778 48.7954 75.0778 48.7954 75.0778 48.7954C75.0778 48.7954 75.0778 48.7954 75.0778 48.7954C75.0778 48.7954 75.0778 48.7954 75.0778 48.7954C75.0778 48.7954 75.0778 48.7954 75.0778 48.7954C75.0778 48.7954 75.0778 48.7954 75.0778 48.7953C75.0778 48.7953 75.0778 48.7953 75.0778 48.7953C75.0778 48.7953 75.0778 48.7953 75.0778 48.7953C75.0778 48.7953 75.0778 48.7953 75.0778 48.7953C75.0778 48.7953 75.0778 48.7953 75.0778 48.7952C75.0778 48.7952 75.0778 48.7952 75.0778 48.7952C75.0778 48.7952 75.0778 48.7952 75.0778 48.7952C75.0778 48.7952 75.0778 48.7951 75.0778 48.7951C75.0778 48.7951 75.0778 48.7951 75.0778 48.7951C75.0778 48.7951 75.0777 48.795 75.0777 48.795C75.0777 48.795 75.0777 48.795 75.0777 48.795C75.0777 48.795 75.0777 48.7949 75.0777 48.7949C75.0777 48.7949 75.0777 48.7949 75.0777 48.7949C75.0777 48.7948 75.0777 48.7948 75.0777 48.7948C75.0777 48.7948 75.0777 48.7948 75.0777 48.7947C75.0777 48.7947 75.0777 48.7947 75.0777 48.7947C75.0777 48.7946 75.0777 48.7946 75.0777 48.7946C75.0777 48.7946 75.0777 48.7945 75.0777 48.7945C75.0777 48.7945 75.0776 48.7945 75.0776 48.7944C75.0776 48.7944 75.0776 48.7944 75.0776 48.7944C75.0776 48.7943 75.0776 48.7943 75.0776 48.7943C75.0776 48.7942 75.0776 48.7942 75.0776 48.7942C75.0776 48.7942 75.0776 48.7941 75.0776 48.7941C75.0776 48.7941 75.0776 48.794 75.0776 48.794C75.0776 48.794 75.0776 48.7939 75.0775 48.7939C75.0775 48.7939 75.0775 48.7938 75.0775 48.7938C75.0775 48.7938 75.0775 48.7937 75.0775 48.7937C75.0775 48.7936 75.0775 48.7936 75.0775 48.7936C75.0775 48.7935 75.0775 48.7935 75.0775 48.7935C75.0775 48.7934 75.0775 48.7934 75.0774 48.7933C75.0774 48.7933 75.0774 48.7933 75.0774 48.7932C75.0774 48.7932 75.0774 48.7931 75.0774 48.7931C75.0774 48.7931 75.0774 48.793 75.0774 48.793C75.0774 48.7929 75.0774 48.7929 75.0774 48.7928C75.0774 48.7928 75.0773 48.7928 75.0773 48.7927C75.0773 48.7927 75.0773 48.7926 75.0773 48.7926C75.0773 48.7925 75.0773 48.7925 75.0773 48.7924C75.0773 48.7924 75.0773 48.7923 75.0773 48.7923C75.0773 48.7922 75.0772 48.7922 75.0772 48.7921C75.0772 48.7921 75.0772 48.7921 75.0772 48.792C75.0772 48.7919 75.0772 48.7919 75.0772 48.7918C75.0772 48.7918 75.0772 48.7917 75.0772 48.7917C75.0771 48.7916 75.0771 48.7916 75.0771 48.7915C75.0771 48.7915 75.0771 48.7914 75.0771 48.7914C75.0771 48.7913 75.0771 48.7913 75.0771 48.7912C75.0771 48.7911 75.0771 48.7911 75.077 48.791C75.077 48.791 75.077 48.7909 75.077 48.7909C75.077 48.7908 75.077 48.7907 75.077 48.7907C75.077 48.7906 75.077 48.7906 75.0769 48.7905C75.0769 48.7904 75.0769 48.7904 75.0769 48.7903C75.0769 48.7903 75.0769 48.7902 75.0769 48.7901C75.0769 48.7901 75.0769 48.79 75.0768 48.7899C75.0768 48.7899 75.0768 48.7898 75.0768 48.7897C75.0768 48.7897 75.0768 48.7896 75.0768 48.7895C75.0768 48.7895 75.0768 48.7894 75.0767 48.7893C75.0767 48.7893 75.0767 48.7892 75.0767 48.7891C75.0767 48.7891 75.0767 48.789 75.0767 48.7889C75.0767 48.7889 75.0766 48.7888 75.0766 48.7887C75.0766 48.7887 75.0766 48.7886 75.0766 48.7885C75.0766 48.7884 75.0766 48.7884 75.0766 48.7883C75.0765 48.7882 75.0765 48.7882 75.0765 48.7881C75.0765 48.788 75.0765 48.7879 75.0765 48.7879C75.0765 48.7878 75.0765 48.7877 75.0764 48.7876C75.0764 48.7875 75.0764 48.7875 75.0764 48.7874C75.0764 48.7873 75.0764 48.7872 75.0764 48.7872C75.0763 48.7871 75.0763 48.787 75.0763 48.7869C75.0763 48.7868 75.0763 48.7868 75.0763 48.7867C75.0763 48.7866 75.0762 48.7865 75.0762 48.7864C75.0762 48.7864 75.0762 48.7863 75.0762 48.7862C75.0762 48.7861 75.0762 48.786 75.0761 48.7859C75.0761 48.7859 75.0761 48.7858 75.0761 48.7857C75.0761 48.7856 75.0761 48.7855 75.0761 48.7854C75.076 48.7853 75.076 48.7853 75.076 48.7852C75.076 48.7851 75.076 48.785 75.076 48.7849C75.0759 48.7848 75.0759 48.7847 75.0759 48.7846C75.0759 48.7845 75.0759 48.7845 75.0759 48.7844C75.0758 48.7843 75.0758 48.7842 75.0758 48.7841C75.0758 48.784 75.0758 48.7839 75.0758 48.7838C75.0758 48.7837 75.0757 48.7836 75.0757 48.7835C75.0757 48.7834 75.0757 48.7833 75.0757 48.7832C75.0757 48.7832 75.0756 48.7831 75.0756 48.783C75.0756 48.7829 75.0756 48.7828 75.0756 48.7827C75.0755 48.7826 75.0755 48.7825 75.0755 48.7824C75.0755 48.7823 75.0755 48.7822 75.0755 48.7821C75.0754 48.782 75.0754 48.7819 75.0754 48.7818C75.0754 48.7817 75.0754 48.7816 75.0754 48.7815C75.0753 48.7814 75.0753 48.7813 75.0753 48.7812C75.0753 48.7811 75.0753 48.781 75.0752 48.7809C75.0752 48.7807 75.0752 48.7806 75.0752 48.7805C75.0752 48.7804 75.0752 48.7803 75.0751 48.7802C75.0751 48.7801 75.0751 48.78 75.0751 48.7799C75.0751 48.7798 75.075 48.7797 75.075 48.7796C75.075 48.7795 75.075 48.7794 75.075 48.7792C75.0749 48.7791 75.0749 48.779 75.0749 48.7789C75.0749 48.7788 75.0749 48.7787 75.0748 48.7786C75.0748 48.7785 75.0748 48.7784 75.0748 48.7782C75.0748 48.7781 75.0747 48.778 75.0747 48.7779C75.0747 48.7778 75.0747 48.7777 75.0747 48.7776C75.0746 48.7774 75.0746 48.7773 75.0746 48.7772C75.0746 48.7771 75.0746 48.777 75.0745 48.7769C75.0745 48.7767 75.0745 48.7766 75.0745 48.7765C75.0745 48.7764 75.0744 48.7763 75.0744 48.7761C75.0744 48.776 75.0744 48.7759 75.0744 48.7758C75.0743 48.7757 75.0743 48.7755 75.0743 48.7754C75.0743 48.7753 75.0742 48.7752 75.0742 48.775C75.0742 48.7749 75.0742 48.7748 75.0742 48.7747C75.0741 48.7745 75.0741 48.7744 75.0741 48.7743C75.0741 48.7742 75.074 48.774 75.074 48.7739C75.074 48.7738 75.074 48.7737 75.074 48.7735C75.0739 48.7734 75.0739 48.7733 75.0739 48.7731C75.0739 48.773 75.0738 48.7729 75.0738 48.7728C75.0738 48.7726 75.0738 48.7725 75.0737 48.7724C75.0737 48.7722 75.0737 48.7721 75.0737 48.772C75.0737 48.7718 75.0736 48.7717 75.0736 48.7716C75.0736 48.7714 75.0736 48.7713 75.0735 48.7712C75.0735 48.771 75.0735 48.7709 75.0735 48.7708C75.0734 48.7706 75.0734 48.7705 75.0734 48.7704C75.0734 48.7702 75.0733 48.7701 75.0733 48.7699C75.0733 48.7698 75.0733 48.7697 75.0732 48.7695C75.0732 48.7694 75.0732 48.7693 75.0732 48.7691C75.0732 48.769 75.0731 48.7688 75.0731 48.7687C75.0731 48.7685 75.0731 48.7684 75.073 48.7683C75.073 48.7681 75.073 48.768 75.0729 48.7678C75.0729 48.7677 75.0729 48.7675 75.0729 48.7674C75.0728 48.7673 75.0728 48.7671 75.0728 48.767C75.0728 48.7668 75.0727 48.7667 75.0727 48.7665C75.0727 48.7664 75.0727 48.7662 75.0726 48.7661C75.0726 48.7659 75.0726 48.7658 75.0726 48.7656C75.0725 48.7655 75.0725 48.7653 75.0725 48.7652C75.0725 48.765 75.0724 48.7649 75.0724 48.7647C75.0724 48.7646 75.0723 48.7644 75.0723 48.7643C75.0723 48.7641 75.0723 48.764 75.0722 48.7638C75.0722 48.7637 75.0722 48.7635 75.0722 48.7634C75.0721 48.7632 75.0721 48.763 75.0721 48.7629C75.0721 48.7627 75.072 48.7626 75.072 48.7624C75.072 48.7623 75.0719 48.7621 75.0719 48.7619C75.0719 48.7618 75.0719 48.7616 75.0718 48.7615C75.0718 48.7613 75.0718 48.7612 75.0717 48.761C75.0717 48.7608 75.0717 48.7607 75.0717 48.7605C75.0716 48.7603 75.0716 48.7602 75.0716 48.76C75.0715 48.7599 75.0715 48.7597 75.0715 48.7595C75.0715 48.7594 75.0714 48.7592 75.0714 48.759C75.0714 48.7589 75.0713 48.7587 75.0713 48.7585C75.0713 48.7584 75.0713 48.7582 75.0712 48.758C75.0712 48.7579 75.0712 48.7577 75.0711 48.7575C75.0711 48.7574 75.0711 48.7572 75.071 48.757C75.071 48.7569 75.071 48.7567 75.071 48.7565C75.0709 48.7564 75.0709 48.7562 75.0709 48.756C75.0708 48.7558 75.0708 48.7557 75.0708 48.7555C75.0707 48.7553 75.0707 48.7551 75.0707 48.755C75.0707 48.7548 75.0706 48.7546 75.0706 48.7544C75.0706 48.7543 75.0705 48.7541 75.0705 48.7539C75.0705 48.7537 75.0704 48.7536 75.0704 48.7534C75.0704 48.7532 75.0703 48.753 75.0703 48.7529C75.0703 48.7527 75.0702 48.7525 75.0702 48.7523C75.0702 48.7521 75.0702 48.752 75.0701 48.7518C75.0701 48.7516 75.0701 48.7514 75.07 48.7512C75.07 48.7511 75.07 48.7509 75.0699 48.7507C75.0699 48.7505 75.0699 48.7503 75.0698 48.7501C75.0698 48.75 75.0698 48.7498 75.0697 48.7496C75.0697 48.7494 75.0697 48.7492 75.0696 48.749C75.0696 48.7488 75.0696 48.7487 75.0695 48.7485C75.0695 48.7483 75.0695 48.7481 75.0694 48.7479C75.0694 48.7477 75.0694 48.7475 75.0693 48.7473C75.0693 48.7471 75.0693 48.747 75.0692 48.7468C75.0692 48.7466 75.0692 48.7464 75.0691 48.7462C75.0691 48.746 75.0691 48.7458 75.069 48.7456C75.069 48.7454 75.069 48.7452 75.0689 48.745C75.0689 48.7448 75.0689 48.7446 75.0688 48.7445C75.0688 48.7443 75.0688 48.7441 75.0687 48.7439C75.0687 48.7437 75.0687 48.7435 75.0686 48.7433C75.0686 48.7431 75.0685 48.7429 75.0685 48.7427C75.0685 48.7425 75.0684 48.7423 75.0684 48.7421C75.0684 48.7419 75.0683 48.7417 75.0683 48.7415C75.0683 48.7413 75.0682 48.7411 75.0682 48.7409C75.0682 48.7407 75.0681 48.7405 75.0681 48.7403C75.0681 48.7401 75.068 48.7399 75.068 48.7397C75.0679 48.7395 75.0679 48.7393 75.0679 48.739C75.0678 48.7388 75.0678 48.7386 75.0678 48.7384C75.0677 48.7382 75.0677 48.738 75.0677 48.7378C75.0676 48.7376 75.0676 48.7374 75.0675 48.7372C75.0675 48.737 75.0675 48.7368 75.0674 48.7366C75.0674 48.7363 75.0674 48.7361 75.0673 48.7359C75.0673 48.7357 75.0672 48.7355 75.0672 48.7353C75.0672 48.7351 75.0671 48.7349 75.0671 48.7347C75.0671 48.7344 75.067 48.7342 75.067 48.734C75.0669 48.7338 75.0669 48.7336 75.0669 48.7334C75.0668 48.7331 75.0668 48.7329 75.0668 48.7327C75.0667 48.7325 75.0667 48.7323 75.0666 48.7321C75.0666 48.7318 75.0666 48.7316 75.0665 48.7314C75.0665 48.7312 75.0665 48.731 75.0664 48.7308C75.0664 48.7305 75.0663 48.7303 75.0663 48.7301C75.0663 48.7299 75.0662 48.7296 75.0662 48.7294C75.0661 48.7292 75.0661 48.729 75.0661 48.7288C75.066 48.7285 75.066 48.7283 75.0659 48.7281C75.0659 48.7279 75.0659 48.7276 75.0658 48.7274C75.0658 48.7272 75.0657 48.727 75.0657 48.7267C75.0657 48.7265 75.0656 48.7263 75.0656 48.7261C75.0655 48.7258 75.0655 48.7256 75.0655 48.7254C75.0654 48.7251 75.0654 48.7249 75.0653 48.7247C75.0653 48.7244 75.0653 48.7242 75.0652 48.724C75.0652 48.7238 75.0651 48.7235 75.0651 48.7233C75.0651 48.7231 75.065 48.7228 75.065 48.7226C75.0649 48.7224 75.0649 48.7221 75.0648 48.7219C75.0648 48.7217 75.0648 48.7214 75.0647 48.7212C75.0647 48.721 75.0646 48.7207 75.0646 48.7205C75.0646 48.7202 75.0645 48.72 75.0645 48.7198C75.0644 48.7195 75.0644 48.7193 75.0643 48.7191C75.0643 48.7188 75.0643 48.7186 75.0642 48.7183C75.0642 48.7181 75.0641 48.7179 75.0641 48.7176C75.0641 48.7174 75.064 48.7171 75.064 48.7169C75.0639 48.7166 75.0639 48.7164 75.0638 48.7162C75.0638 48.7159 75.0638 48.7157 75.0637 48.7154C75.0637 48.7152 75.0636 48.7149 75.0636 48.7147C75.0635 48.7144 75.0635 48.7142 75.0634 48.7139C75.0634 48.7137 75.0634 48.7135 75.0633 48.7132C75.0633 48.713 75.0632 48.7127 75.0632 48.7125C75.0631 48.7122 75.0631 48.712 75.0631 48.7117C75.063 48.7115 75.063 48.7112 75.0629 48.711C75.0629 48.7107 75.0628 48.7105 75.0628 48.7102C75.0627 48.71 75.0627 48.7097 75.0627 48.7094C75.0626 48.7092 75.0626 48.7089 75.0625 48.7087C75.0625 48.7084 75.0624 48.7082 75.0624 48.7079C75.0623 48.7077 75.0623 48.7074 75.0622 48.7071C75.0622 48.7069 75.0622 48.7066 75.0621 48.7064C75.0621 48.7061 75.062 48.7059 75.062 48.7056C75.0619 48.7053 75.0619 48.7051 75.0618 48.7048C75.0618 48.7046 75.0617 48.7043 75.0617 48.704C75.0617 48.7038 75.0616 48.7035 75.0616 48.7033C75.0615 48.703 75.0615 48.7027 75.0614 48.7025C75.0614 48.7022 75.0613 48.7019 75.0613 48.7017C75.0612 48.7014 75.0612 48.7011 75.0611 48.7009C75.0611 48.7006 75.061 48.7003 75.061 48.7001C75.061 48.6998 75.0609 48.6995 75.0609 48.6993C75.0608 48.699 75.0608 48.6987 75.0607 48.6985C75.0607 48.6982 75.0606 48.6979 75.0606 48.6977C75.0605 48.6974 75.0605 48.6971 75.0604 48.6968C75.0604 48.6966 75.0603 48.6963 75.0603 48.696C75.0602 48.6958 75.0602 48.6955 75.0601 48.6952C75.0601 48.6949 75.06 48.6947 75.06 48.6944C75.06 48.6941 75.0599 48.6938 75.0599 48.6936C75.0598 48.6933 75.0598 48.693 75.0597 48.6927C75.0597 48.6925 75.0596 48.6922 75.0596 48.6919C75.0595 48.6916 75.0595 48.6913 75.0594 48.6911C75.0594 48.6908 75.0593 48.6905 75.0593 48.6902C75.0592 48.6899 75.0592 48.6897 75.0591 48.6894C75.0591 48.6891 75.059 48.6888 75.059 48.6885C75.0589 48.6882 75.0589 48.688 75.0588 48.6877C75.0588 48.6874 75.0587 48.6871 75.0587 48.6868C75.0586 48.6865 75.0586 48.6863 75.0585 48.686C75.0585 48.6857 75.0584 48.6854 75.0584 48.6851C75.0583 48.6848 75.0583 48.6845 75.0582 48.6842C75.0582 48.684 75.0581 48.6837 75.0581 48.6834C75.058 48.6831 75.058 48.6828 75.0579 48.6825C75.0579 48.6822 75.0578 48.6819 75.0578 48.6816C75.0577 48.6813 75.0576 48.6811 75.0576 48.6808C75.0575 48.6805 75.0575 48.6802 75.0574 48.6799C75.0574 48.6796 75.0573 48.6793 75.0573 48.679C75.0572 48.6787 75.0572 48.6784 75.0571 48.6781C75.0571 48.6778 75.057 48.6775 75.057 48.6772C75.0569 48.6769 75.0569 48.6766 75.0568 48.6763C75.0568 48.676 75.0567 48.6757 75.0567 48.6754C75.0566 48.6751 75.0566 48.6748 75.0565 48.6745C75.0564 48.6742 75.0564 48.6739 75.0563 48.6736C75.0563 48.6733 75.0562 48.673 75.0562 48.6727C75.0561 48.6724 75.0561 48.6721 75.056 48.6718C75.056 48.6715 75.0559 48.6712 75.0559 48.6709C75.0558 48.6706 75.0557 48.6703 75.0557 48.67C75.0556 48.6697 75.0556 48.6694 75.0555 48.6691C75.0555 48.6687 75.0554 48.6684 75.0554 48.6681C75.0553 48.6678 75.0553 48.6675 75.0552 48.6672C75.0552 48.6669 75.0551 48.6666 75.055 48.6663C75.055 48.666 75.0549 48.6656 75.0549 48.6653C75.0548 48.665 75.0548 48.6647 75.0547 48.6644C75.0547 48.6641 75.0546 48.6638 75.0545 48.6635C75.0545 48.6631 75.0544 48.6628 75.0544 48.6625C75.0543 48.6622 75.0543 48.6619 75.0542 48.6616C75.0542 48.6613 75.0541 48.6609 75.054 48.6606C75.054 48.6603 75.0539 48.66 75.0539 48.6597C75.0538 48.6593 75.0538 48.659 75.0537 48.6587C75.0537 48.6584 75.0536 48.6581 75.0535 48.6577C75.0535 48.6574 75.0534 48.6571 75.0534 48.6568C75.0533 48.6565 75.0533 48.6561 75.0532 48.6558C75.0531 48.6555 75.0531 48.6552 75.053 48.6548C75.053 48.6545 75.0529 48.6542 75.0529 48.6539C75.0528 48.6535 75.0527 48.6532 75.0527 48.6529C75.0526 48.6526 75.0526 48.6522 75.0525 48.6519C75.0525 48.6516 75.0524 48.6513 75.0523 48.6509C75.0523 48.6506 75.0522 48.6503 75.0522 48.6499C75.0521 48.6496 75.052 48.6493 75.052 48.6489C75.0519 48.6486 75.0519 48.6483 75.0518 48.6479C75.0518 48.6476 75.0517 48.6473 75.0516 48.647C75.0516 48.6466 75.0515 48.6463 75.0515 48.6459C75.0514 48.6456 75.0513 48.6453 75.0513 48.6449C75.0512 48.6446 75.0512 48.6443 75.0511 48.6439C75.051 48.6436 75.051 48.6433 75.0509 48.6429C75.0509 48.6426 75.0508 48.6422 75.0507 48.6419C75.0507 48.6416 75.0506 48.6412 75.0506 48.6409C75.0505 48.6406 75.0504 48.6402 75.0504 48.6399C75.0503 48.6395 75.0503 48.6392 75.0502 48.6388C75.0501 48.6385 75.0501 48.6382 75.05 48.6378C75.05 48.6375 75.0499 48.6371 75.0498 48.6368C75.0498 48.6364 75.0497 48.6361 75.0497 48.6357C75.0496 48.6354 75.0495 48.6351 75.0495 48.6347C75.0494 48.6344 75.0494 48.634 75.0493 48.6337C75.0492 48.6333 75.0492 48.633 75.0491 48.6326C75.049 48.6323 75.049 48.6319 75.0489 48.6316C75.0489 48.6312 75.0488 48.6309 75.0487 48.6305C75.0487 48.6302 75.0486 48.6298 75.0486 48.6295C75.0485 48.6291 75.0484 48.6288 75.0484 48.6284C75.0483 48.6281 75.0482 48.6277 75.0482 48.6273C75.0481 48.627 75.0481 48.6266 75.048 48.6263C75.0479 48.6259 75.0479 48.6256 75.0478 48.6252C75.0477 48.6249 75.0477 48.6245 75.0476 48.6241C75.0475 48.6238 75.0475 48.6234 75.0474 48.6231C75.0474 48.6227 75.0473 48.6223 75.0472 48.622C75.0472 48.6216 75.0471 48.6213 75.047 48.6209C75.047 48.6205 75.0469 48.6202 75.0469 48.6198C75.0468 48.6195 75.0467 48.6191 75.0467 48.6187C75.0466 48.6184 75.0465 48.618 75.0465 48.6176C75.0464 48.6173 75.0463 48.6169 75.0463 48.6165C75.0462 48.6162 75.0461 48.6158 75.0461 48.6154C75.046 48.6151 75.0459 48.6147 75.0459 48.6143C75.0458 48.614 75.0458 48.6136 75.0457 48.6132C75.0456 48.6129 75.0456 48.6125 75.0455 48.6121C75.0454 48.6118 75.0454 48.6114 75.0453 48.611C75.0452 48.6106 75.0452 48.6103 75.0451 48.6099C75.045 48.6095 75.045 48.6092 75.0449 48.6088C75.0448 48.6084 75.0448 48.608 75.0447 48.6077C75.0446 48.6073 75.0446 48.6069 75.0445 48.6065C75.0444 48.6062 75.0444 48.6058 75.0443 48.6054C75.0442 48.605 75.0442 48.6046 75.0441 48.6043C75.044 48.6039 75.044 48.6035 75.0439 48.6031C75.0438 48.6028 75.0438 48.6024 75.0437 48.602C75.0436 48.6016 75.0436 48.6012 75.0435 48.6009C75.0434 48.6005 75.0434 48.6001 75.0433 48.5997C75.0432 48.5993 75.0432 48.5989 75.0431 48.5986C75.043 48.5982 75.043 48.5978 75.0429 48.5974C75.0428 48.597 75.0428 48.5966 75.0427 48.5962C75.0426 48.5959 75.0426 48.5955 75.0425 48.5951C75.0424 48.5947 75.0424 48.5943 75.0423 48.5939C75.0422 48.5935 75.0421 48.5931 75.0421 48.5928C75.042 48.5924 75.0419 48.592 75.0419 48.5916C75.0418 48.5912 75.0417 48.5908 75.0417 48.5904C75.0416 48.59 75.0415 48.5896 75.0415 48.5892C75.0414 48.5888 75.0413 48.5885 75.0413 48.5881C75.0412 48.5877 75.0411 48.5873 75.041 48.5869C75.041 48.5865 75.0409 48.5861 75.0408 48.5857C75.0408 48.5853 75.0407 48.5849 75.0406 48.5845C75.0406 48.5841 75.0405 48.5837 75.0404 48.5833C75.0403 48.5829 75.0403 48.5825 75.0402 48.5821C75.0401 48.5817 75.0401 48.5813 75.04 48.5809C75.0399 48.5805 75.0398 48.5801 75.0398 48.5797C75.0397 48.5793 75.0396 48.5789 75.0396 48.5785C75.0395 48.5781 75.0394 48.5777 75.0394 48.5773C75.0393 48.5769 75.0392 48.5765 75.0391 48.5761C75.0391 48.5757 75.039 48.5753 75.0389 48.5749C75.0389 48.5745 75.0388 48.574 75.0387 48.5736C75.0386 48.5732 75.0386 48.5728 75.0385 48.5724C75.0384 48.572 75.0383 48.5716 75.0383 48.5712C75.0382 48.5708 75.0381 48.5704 75.0381 48.57C75.038 48.5695 75.0379 48.5691 75.0378 48.5687C75.0378 48.5683 75.0377 48.5679 75.0376 48.5675C75.0376 48.5671 75.0375 48.5667 75.0374 48.5662C75.0373 48.5658 75.0373 48.5654 75.0372 48.565C75.0371 48.5646 75.037 48.5642 75.037 48.5638C75.0369 48.5633 75.0368 48.5629 75.0367 48.5625C75.0367 48.5621 75.0366 48.5617 75.0365 48.5613C75.0364 48.5608 75.0364 48.5604 75.0363 48.56C75.0362 48.5596 75.0362 48.5592 75.0361 48.5587C75.036 48.5583 75.0359 48.5579 75.0359 48.5575C75.0358 48.557 75.0357 48.5566 75.0356 48.5562C75.0356 48.5558 75.0355 48.5554 75.0354 48.5549C75.0353 48.5545 75.0353 48.5541 75.0352 48.5537C75.0351 48.5532 75.035 48.5528 75.035 48.5524C75.0349 48.552 75.0348 48.5515 75.0347 48.5511C75.0347 48.5507 75.0346 48.5502 75.0345 48.5498C75.0344 48.5494 75.0344 48.549 75.0343 48.5485C75.0342 48.5481 75.0341 48.5477 75.0341 48.5472C75.034 48.5468 75.0339 48.5464 75.0338 48.5459C75.0337 48.5455 75.0337 48.5451 75.0336 48.5446C75.0335 48.5442 75.0334 48.5438 75.0334 48.5433C75.0333 48.5429 75.0332 48.5425 75.0331 48.542C75.0331 48.5416 75.033 48.5412 75.0329 48.5407C75.0328 48.5403 75.0328 48.5399 75.0327 48.5394C75.0326 48.539 75.0325 48.5385 75.0324 48.5381C75.0324 48.5377 75.0323 48.5372 75.0322 48.5368C75.0321 48.5363 75.0321 48.5359 75.032 48.5355C75.0319 48.535 75.0318 48.5346 75.0317 48.5341C75.0317 48.5337 75.0316 48.5333 75.0315 48.5328C75.0314 48.5324 75.0314 48.5319 75.0313 48.5315C75.0312 48.531 75.0311 48.5306 75.031 48.5301C75.031 48.5297 75.0309 48.5293 75.0308 48.5288C75.0307 48.5284 75.0306 48.5279 75.0306 48.5275C75.0305 48.527 75.0304 48.5266 75.0303 48.5261C75.0303 48.5257 75.0302 48.5252 75.0301 48.5248C75.03 48.5243 75.0299 48.5239 75.0299 48.5234C75.0298 48.523 75.0297 48.5225 75.0296 48.5221C75.0295 48.5216 75.0295 48.5212 75.0294 48.5207C75.0293 48.5203 75.0292 48.5198 75.0291 48.5194C75.0291 48.5189 75.029 48.5184 75.0289 48.518C75.0288 48.5175 75.0287 48.5171 75.0287 48.5166C75.0286 48.5162 75.0285 48.5157 75.0284 48.5152C75.0283 48.5148 75.0283 48.5143 75.0282 48.5139C75.0281 48.5134 75.028 48.513 75.0279 48.5125C75.0278 48.512 75.0278 48.5116 75.0277 48.5111C75.0276 48.5106 75.0275 48.5102 75.0274 48.5097C75.0274 48.5093 75.0273 48.5088 75.0272 48.5083C75.0271 48.5079 75.027 48.5074 75.0269 48.5069C75.0269 48.5065 75.0268 48.506 75.0267 48.5055C75.0266 48.5051 75.0265 48.5046 75.0265 48.5042C75.0264 48.5037 75.0263 48.5032 75.0262 48.5027C75.0261 48.5023 75.026 48.5018 75.026 48.5013C75.0259 48.5009 75.0258 48.5004 75.0257 48.4999C75.0256 48.4995 75.0255 48.499 75.0255 48.4985C75.0254 48.4981 75.0253 48.4976 75.0252 48.4971C75.0251 48.4966 75.025 48.4962 75.025 48.4957C75.0249 48.4952 75.0248 48.4947 75.0247 48.4943C75.0246 48.4938 75.0245 48.4933 75.0245 48.4928C75.0244 48.4924 75.0243 48.4919 75.0242 48.4914C75.0241 48.4909 75.024 48.4905 75.024 48.49C75.0239 48.4895 75.0238 48.489 75.0237 48.4885C75.0236 48.4881 75.0235 48.4876 75.0234 48.4871C75.0234 48.4866 75.0233 48.4861 75.0232 48.4857C75.0231 48.4852 75.023 48.4847 75.0229 48.4842C75.0229 48.4837 75.0228 48.4833 75.0227 48.4828C75.0226 48.4823 75.0225 48.4818 75.0224 48.4813C75.0223 48.4808 75.0223 48.4803 75.0222 48.4799C75.0221 48.4794 75.022 48.4789 75.0219 48.4784C75.0218 48.4779 75.0217 48.4774 75.0217 48.4769C75.0216 48.4765 75.0215 48.476 75.0214 48.4755C75.0213 48.475 75.0212 48.4745 75.0211 48.474C75.0211 48.4735 75.021 48.473 75.0209 48.4725C75.0208 48.472 75.0207 48.4715 75.0206 48.4711C75.0205 48.4706 75.0204 48.4701 75.0204 48.4696C75.0203 48.4691 75.0202 48.4686 75.0201 48.4681C75.02 48.4676 75.0199 48.4671 75.0198 48.4666C75.0197 48.4661 75.0197 48.4656 75.0196 48.4651C75.0195 48.4646 75.0194 48.4641 75.0193 48.4636C75.0192 48.4631 75.0191 48.4626 75.019 48.4621C75.019 48.4616 75.0189 48.4611 75.0188 48.4606C75.0187 48.4601 75.0186 48.4596 75.0185 48.4591C75.0184 48.4586 75.0183 48.4581 75.0183 48.4576C75.0182 48.4571 75.0181 48.4566 75.018 48.4561C75.0179 48.4556 75.0178 48.4551 75.0177 48.4546C75.0176 48.4541 75.0175 48.4536 75.0175 48.4531C75.0174 48.4526 75.0173 48.4521 75.0172 48.4516C75.0171 48.4511 75.017 48.4505 75.0169 48.45C75.0168 48.4495 75.0167 48.449 75.0166 48.4485C75.0166 48.448 75.0165 48.4475 75.0164 48.447C75.0163 48.4465 75.0162 48.446 75.0161 48.4454C75.016 48.4449 75.0159 48.4444 75.0158 48.4439C75.0157 48.4434 75.0157 48.4429 75.0156 48.4424C75.0155 48.4419 75.0154 48.4413 75.0153 48.4408C75.0152 48.4403 75.0151 48.4398 75.015 48.4393C75.0149 48.4388 75.0148 48.4382 75.0147 48.4377C75.0147 48.4372 75.0146 48.4367 75.0145 48.4362C75.0144 48.4357 75.0143 48.4351 75.0142 48.4346C75.0141 48.4341 75.014 48.4336 75.0139 48.4331C75.0138 48.4325 75.0137 48.432 75.0136 48.4315C75.0136 48.431 75.0135 48.4305 75.0134 48.4299C75.0133 48.4294 75.0132 48.4289 75.0131 48.4284C75.013 48.4278 75.0129 48.4273 75.0128 48.4268C75.0127 48.4263 75.0126 48.4257 75.0125 48.4252C75.0124 48.4247 75.0124 48.4242 75.0123 48.4236C75.0122 48.4231 75.0121 48.4226 75.012 48.422C75.0119 48.4215 75.0118 48.421 75.0117 48.4205C75.0116 48.4199 75.0115 48.4194 75.0114 48.4189C75.0113 48.4183 75.0112 48.4178 75.0111 48.4173C75.011 48.4167 75.0109 48.4162 75.0109 48.4157C75.0108 48.4151 75.0107 48.4146 75.0106 48.4141C75.0105 48.4135 75.0104 48.413 75.0103 48.4125C75.0102 48.4119 75.0101 48.4114 75.01 48.4109C75.0099 48.4103 75.0098 48.4098 75.0097 48.4093C75.0096 48.4087 75.0095 48.4082 75.0094 48.4076C75.0093 48.4071 75.0092 48.4066 75.0092 48.406C75.0091 48.4055 75.009 48.4049 75.0089 48.4044C75.0088 48.4039 75.0087 48.4033 75.0086 48.4028C75.0085 48.4022 75.0084 48.4017 75.0083 48.4012C75.0082 48.4006 75.0081 48.4001 75.008 48.3995C75.0079 48.399 75.0078 48.3984 75.0077 48.3979C75.0076 48.3973 75.0075 48.3968 75.0074 48.3962C75.0073 48.3957 75.0072 48.3952 75.0071 48.3946C75.007 48.3941 75.0069 48.3935 75.0068 48.393C75.0068 48.3924 75.0067 48.3919 75.0066 48.3913C75.0065 48.3908 75.0064 48.3902 75.0063 48.3897C75.0062 48.3891 75.0061 48.3886 75.006 48.388C75.0059 48.3875 75.0058 48.3869 75.0057 48.3864C75.0056 48.3858 75.0055 48.3852 75.0054 48.3847C75.0053 48.3841 75.0052 48.3836 75.0051 48.383C75.005 48.3825 75.0049 48.3819 75.0048 48.3814C75.0047 48.3808 75.0046 48.3802 75.0045 48.3797C75.0044 48.3791 75.0043 48.3786 75.0042 48.378C75.0041 48.3775 75.004 48.3769 75.0039 48.3763C75.0038 48.3758 75.0037 48.3752 75.0036 48.3747C75.0035 48.3741 75.0034 48.3735 75.0033 48.373C75.0032 48.3724 75.0031 48.3718 75.003 48.3713C75.0029 48.3707 75.0028 48.3702 75.0027 48.3696C75.0026 48.369 75.0025 48.3685 75.0024 48.3679C75.0023 48.3673 75.0022 48.3668 75.0021 48.3662C75.002 48.3656 75.0019 48.3651 75.0018 48.3645C75.0017 48.3639 75.0016 48.3634 75.0015 48.3628C75.0014 48.3622 75.0013 48.3617 75.0012 48.3611C75.0011 48.3605 75.001 48.3599 75.0009 48.3594C75.0008 48.3588 75.0007 48.3582 75.0006 48.3577C75.0005 48.3571 75.0004 48.3565 75.0003 48.3559C75.0002 48.3554 75.0001 48.3548 75 48.3542L59.2431 51.1326ZM59.3209 51.5738C59.885 54.7731 60.7414 57.907 62.1619 60.5303L76.2316 52.9118C75.9817 52.4503 75.5065 51.2266 75.0778 48.7954L59.3209 51.5738ZM62.1921 60.5856C63.3759 62.7313 65.1438 65.1415 67.8439 66.7234L75.9319 52.9182C76.3456 53.1606 76.531 53.3762 76.5314 53.3766C76.5347 53.3805 76.5037 53.3451 76.4436 53.2568C76.3837 53.1687 76.3017 53.0382 76.2014 52.8565L62.1921 60.5856ZM68.051 66.8407C70.2428 68.0387 73.0006 68.7878 76.039 68.2521L73.2607 52.4952C73.8459 52.392 74.3996 52.414 74.8676 52.5077C75.3178 52.5978 75.6081 52.7372 75.7248 52.801L68.051 66.8407ZM76.039 68.2521C79.7018 67.6062 82.5756 65.5268 84.5178 62.7531L71.4114 53.5759C71.4725 53.4886 71.6699 53.24 72.0503 52.9865C72.4446 52.7237 72.8752 52.5631 73.2607 52.4952L76.039 68.2521ZM84.6065 62.6237C86.5394 59.7448 87.3862 56.3131 86.7519 52.7158L70.995 55.4941C70.9462 55.2172 70.9386 54.8449 71.0285 54.4435C71.1163 54.0511 71.2592 53.7998 71.3227 53.7052L84.6065 62.6237ZM86.7519 52.7158C86.0067 48.4893 83.4341 45.3771 80.2061 43.4138L71.8918 57.0839C71.9518 57.1204 71.7508 57.0099 71.5023 56.6707C71.2356 56.3067 71.0632 55.881 70.995 55.4941L86.7519 52.7158ZM80.3101 43.4782C78.3783 42.2623 76.0999 41.0644 73.5494 39.8755L66.7895 54.3773C68.9594 55.3888 70.6007 56.2725 71.7878 57.0196L80.3101 43.4782ZM73.7851 39.9901C72.5599 39.3693 71.2175 38.6539 69.7554 37.8403L61.9755 51.8215C63.5878 52.7186 65.1148 53.5336 66.5537 54.2627L73.7851 39.9901ZM69.9923 37.9775C69.2078 37.5051 68.488 36.9091 67.823 36.1556L55.8267 46.7428C57.5439 48.6886 59.5179 50.3471 61.7386 51.6843L69.9923 37.9775ZM67.8866 36.2286C67.7699 36.0931 67.5113 35.7368 67.3498 34.8211L51.5929 37.5994C52.1723 40.8856 53.4826 44.0218 55.763 46.6697L67.8866 36.2286ZM67.3498 34.8211C67.1866 33.8958 67.2966 33.3607 67.432 33.0072L52.4911 27.2828C51.2024 30.6464 50.9855 34.1548 51.5929 37.5994L67.3498 34.8211ZM67.3787 33.1425C67.7034 32.3393 68.1785 31.6237 68.873 30.9526L57.7545 19.4469C55.4876 21.6375 53.728 24.2187 52.5444 27.1474L67.3787 33.1425ZM68.9041 30.9223C69.8122 30.0352 70.8332 29.3115 71.996 28.7378L64.9169 14.3891C62.2533 15.7032 59.8459 17.4037 57.7234 19.4772L68.9041 30.9223ZM72.0909 28.6902C73.3795 28.0331 74.6084 27.6273 75.7926 27.4185L73.0142 11.6616C70.1647 12.1641 67.429 13.1072 64.822 14.4367L72.0909 28.6902ZM75.7926 27.4185C77.4966 27.1181 78.2708 27.275 78.4474 27.3276L83.0091 11.9916C79.7108 11.0105 76.2684 11.0878 73.0142 11.6616L75.7926 27.4185ZM78.4474 27.3276C78.766 27.4223 78.9275 27.5078 78.9832 27.5409C79.0321 27.5699 79.0058 27.5616 78.9528 27.5035L90.778 16.7255C88.5995 14.3354 85.8663 12.8415 83.0091 11.9916L78.4474 27.3276ZM78.9528 27.5035C79.0277 27.5856 79.016 27.5918 78.9769 27.5151C78.9581 27.4784 78.9369 27.4301 78.9175 27.3721C78.8979 27.3139 78.8833 27.2555 78.8735 27.2002L94.6304 24.4218C94.1018 21.424 92.7038 18.8384 90.778 16.7255L78.9528 27.5035ZM78.8735 27.2002C78.8514 27.0749 78.8485 26.9453 78.8608 26.8347C78.8726 26.7287 78.8918 26.6974 78.8697 26.7543L93.7804 32.5569C94.7679 30.0195 95.1301 27.2554 94.6304 24.4218L78.8735 27.2002ZM78.8391 26.8342C78.8629 26.771 78.8906 26.7124 78.9193 26.6611C78.9479 26.61 78.9731 26.5739 78.9891 26.5531C79.0219 26.5103 79.0005 26.5511 78.8657 26.6564L88.7118 39.2681C90.9063 37.5548 92.7448 35.3061 93.8111 32.4769L78.8391 26.8342ZM78.8657 26.6564C78.9397 26.5986 78.6665 26.8468 77.6093 27.0332L80.3877 42.7901C83.2802 42.2801 86.2006 41.2286 88.7118 39.2681L78.8657 26.6564ZM86.9931 35.2041C87.024 34.361 87.0175 33.4885 86.9446 32.6213L71.0009 33.9617C71.0069 34.0337 71.0177 34.2414 71.0038 34.6193L86.9931 35.2041ZM86.9394 32.5614C86.8785 31.8975 86.7964 31.2228 86.6809 30.5676L70.9239 33.346C70.9418 33.4472 70.9732 33.6623 71.0062 34.0216L86.9394 32.5614ZM86.6809 30.5676C86.165 27.6419 84.8407 23.5854 81.0618 21.0682L72.1917 34.3845C71.3718 33.8383 70.9896 33.222 70.8663 32.9823C70.76 32.7754 70.8333 32.8319 70.9239 33.346L86.6809 30.5676ZM81.3665 21.2816C78.8848 19.4565 75.6436 18.3466 72.0308 18.9836L74.8091 34.7405C74.2035 34.8473 73.5588 34.8197 72.9592 34.658C72.3864 34.5037 72.0282 34.2749 71.887 34.1711L81.3665 21.2816ZM72.0308 18.9836C68.8108 19.5514 66.3059 21.305 64.5171 23.4038L76.6944 33.7823C76.6467 33.8383 76.4658 34.0352 76.1199 34.2479C75.7587 34.4701 75.309 34.6524 74.8091 34.7405L72.0308 18.9836ZM64.6562 23.2449C61.5856 26.6608 61.3845 30.844 61.9334 33.9565L77.6903 31.1781C77.6626 31.0209 77.738 31.2958 77.6275 31.8489C77.5031 32.4717 77.1785 33.248 76.5553 33.9412L64.6562 23.2449ZM61.9334 33.9565C62.4427 36.8452 63.7281 39.6364 66.0312 41.8797L77.1951 30.4181C77.3718 30.5902 77.5113 30.7876 77.6037 30.9712C77.6916 31.1461 77.7004 31.2355 77.6903 31.1781L61.9334 33.9565ZM66.1812 42.0221C67.8998 43.6116 69.8619 44.8343 71.9719 45.74L78.2831 31.0373C77.6744 30.7761 77.2936 30.5056 77.0451 30.2758L66.1812 42.0221ZM72.0857 45.7878C73.6569 46.4338 75.281 47.0381 76.9563 47.6022L82.0625 32.4389C80.6978 31.9793 79.4007 31.4958 78.1692 30.9895L72.0857 45.7878ZM77.0509 47.6334C78.2861 48.0323 79.4763 48.5042 80.624 49.0482L87.4775 34.5904C85.6941 33.745 83.8566 33.0176 81.9679 32.4077L77.0509 47.6334ZM80.8896 49.1682C81.5594 49.4564 82.028 49.7861 82.3806 50.1276L93.5132 38.6357C91.6713 36.8514 89.5424 35.4728 87.2119 34.4703L80.8896 49.1682ZM82.3806 50.1276C82.3077 50.0571 82.2471 49.9852 82.1995 49.919C82.1524 49.8534 82.1265 49.805 82.1162 49.7839C82.0963 49.7432 82.1501 49.837 82.2033 50.1385L97.9602 47.3601C97.4097 44.2379 96.0749 41.1173 93.5132 38.6357L82.3806 50.1276ZM82.2033 50.1385C82.2799 50.5732 82.2773 51.1526 81.97 52.0154L97.0425 57.3838C98.1841 54.1786 98.5652 50.7911 97.9602 47.3601L82.2033 50.1385ZM81.9971 51.9407C81.6448 52.8993 81.056 53.9158 80.0999 54.9901L92.0523 65.6268C94.206 63.2067 95.9039 60.484 97.0155 57.4585L81.9971 51.9407ZM80.1775 54.9042C79.2294 55.939 78.0185 56.9138 76.4673 57.7969L84.3835 71.7014C87.242 70.074 89.7983 68.0883 91.9747 65.7128L80.1775 54.9042ZM76.4274 57.8198C75.1061 58.5821 73.6315 59.1235 71.9473 59.4204L74.7256 75.1774C78.1677 74.5704 81.419 73.412 84.4234 71.6786L76.4274 57.8198ZM98.7214 61.1332L94.2573 67.7718L94.2573 67.7718L98.7214 61.1332ZM97.451 52.4539L103.928 57.1493L103.931 57.146L97.451 52.4539ZM106.597 50.5162L102.133 57.1548L102.194 57.1954L102.255 57.2348L106.597 50.5162ZM107.879 59.2585L114.281 64.056L114.32 64.0036L114.359 63.9505L107.879 59.2585ZM101.907 54.1377C101.887 54.1413 102.067 54.1084 102.377 54.1682C102.7 54.2307 102.985 54.3598 103.186 54.4946L94.2573 67.7718C97.4703 69.9324 101.134 70.5209 104.685 69.8946L101.907 54.1377ZM103.186 54.4946C103.349 54.6047 103.61 54.8299 103.842 55.1881C104.072 55.5442 104.16 55.8564 104.187 56.0103L88.43 58.7887C89.0832 62.4931 91.0981 65.6474 94.2573 67.7718L103.186 54.4946ZM104.187 56.0103C104.198 56.075 104.221 56.3005 104.15 56.6088C104.079 56.9165 103.961 57.1043 103.928 57.1493L90.9739 47.7585C88.6263 50.997 87.7337 54.8398 88.43 58.7887L104.187 56.0103ZM103.931 57.146C103.927 57.1507 103.899 57.1877 103.842 57.2412C103.785 57.2955 103.713 57.3518 103.631 57.4024C103.452 57.5124 103.346 57.5233 103.412 57.5117L100.633 41.7548C96.7283 42.4433 93.3483 44.4795 90.9714 47.7619L103.931 57.146ZM103.412 57.5117C103.432 57.5081 103.252 57.541 102.942 57.4812C102.619 57.4187 102.334 57.2896 102.133 57.1548L111.062 43.8776C107.849 41.717 104.185 41.1285 100.633 41.7548L103.412 57.5117ZM102.255 57.2348C102.105 57.1381 101.832 56.917 101.582 56.5412C101.332 56.1644 101.229 55.82 101.195 55.628L116.952 52.8496C116.282 49.0484 114.166 45.8827 110.94 43.7977L102.255 57.2348ZM101.195 55.628C101.178 55.5286 101.161 55.2924 101.231 54.9969C101.3 54.7076 101.405 54.5586 101.399 54.5665L114.359 63.9505C116.692 60.7278 117.662 56.8742 116.952 52.8496L101.195 55.628ZM101.477 54.461C101.485 54.4509 101.515 54.4133 101.57 54.3625C101.627 54.3111 101.694 54.2604 101.767 54.2165C101.925 54.1212 102.004 54.1206 101.907 54.1377L104.685 69.8946C108.512 69.2198 111.876 67.2654 114.281 64.056L101.477 54.461Z" fill="#4579A0" mask="url(#path-1-outside-1_39_32)"/>
</g>
<defs>
<clipPath id="clip0_39_32">
<rect width="117.625" height="90.0452" fill="white"/>
</clipPath>
</defs>
</svg>
