<svg width="162" height="123" viewBox="0 0 162 123" fill="none" xmlns="http://www.w3.org/2000/svg">
<g filter="url(#filter0_d_3_8)">
<mask id="path-1-outside-1_3_8" maskUnits="userSpaceOnUse" x="15.9418" y="16.4502" width="122.397" height="82.6499" fill="black">
<rect fill="white" x="15.9418" y="16.4502" width="122.397" height="82.6499"/>
<path d="M52.6388 85.7102C51.4277 85.9671 50.1906 86.0769 48.9276 86.0397C47.6646 86.0024 46.5426 85.6587 45.5614 85.0085C45.4182 83.9507 45.1231 82.3997 44.676 80.3556C44.271 78.3041 43.7621 76.0326 43.1495 73.5411C42.5295 71.0077 41.8007 68.4717 40.9632 65.9332C40.1677 63.3873 39.2832 61.0738 38.3096 58.9926C37.3707 56.8619 36.3836 55.1946 35.3481 53.9908C34.3127 52.787 33.2487 52.2814 32.1562 52.474C31.1898 52.6445 30.1899 53.3623 29.1566 54.6276L28.6488 54.3273C29.1881 50.5062 30.2365 47.4836 31.7939 45.2594C33.3934 43.0277 35.2225 41.7304 37.2814 41.3673C39.0882 41.0487 40.712 41.4123 42.1528 42.458C43.5936 43.5037 44.8601 45.035 45.9523 47.052C47.0791 49.0196 48.0229 51.301 48.7838 53.8963C49.5793 56.4422 50.2179 59.0807 50.6995 61.8119C51.0847 63.9969 51.3785 66.1546 51.5809 68.2852C51.7833 70.4158 51.893 72.3894 51.9101 74.206C53.6406 70.9981 54.9696 67.601 55.8969 64.0148C56.8169 60.3866 57.3871 56.8634 57.6075 53.4452C57.8206 49.985 57.6937 46.9313 57.227 44.2841C57.138 43.7799 57.0281 43.2794 56.8972 42.7826C56.7589 42.2438 56.6106 41.7717 56.4525 41.3663C57.1349 40.0762 58.1175 39.0148 59.4004 38.182C60.6758 37.3073 62.0069 36.7476 63.3935 36.5031C64.7381 36.266 65.9664 36.3527 67.0786 36.7632C68.1834 37.1316 68.9692 37.9028 69.4362 39.0769C69.5938 43.165 69.2052 47.3494 68.2703 51.6301C67.3775 55.9034 66.1053 60.1136 64.4536 64.2607C62.7946 68.3658 60.9231 72.2485 58.839 75.9087C56.7969 79.5614 54.7302 82.8286 52.6388 85.7102ZM91.1148 79.0558C88.2996 79.5522 85.8824 79.4802 83.8631 78.8398C81.8859 78.192 80.3228 77.1895 79.1737 75.8324C78.0246 74.4753 77.3092 72.9985 77.0277 71.4018C76.7536 69.8471 76.8724 68.3097 77.3842 66.7898C77.8887 65.2278 78.7527 63.8623 79.9763 62.6934C81.2419 61.5171 82.8412 60.7586 84.774 60.4177C84.7987 60.8033 84.8407 61.1642 84.8999 61.5003C84.9518 61.7945 84.9777 61.9415 84.9777 61.9415C85.4741 64.7568 86.1399 66.9356 86.9751 68.478C87.8029 69.9784 88.6999 71.0116 89.6663 71.5778C90.6252 72.1019 91.5458 72.2861 92.4282 72.1306C93.7728 71.8935 94.8777 71.1571 95.743 69.9214C96.6008 68.6437 96.9037 67.2905 96.6518 65.8619C96.3703 64.2652 95.4288 62.9798 93.8273 62.0058C92.2679 61.0243 90.308 59.9835 87.9478 58.8833C86.6157 58.2084 85.181 57.4432 83.6438 56.5878C82.1412 55.683 80.7943 54.5558 79.6032 53.2061C78.4046 51.8144 77.6201 50.0681 77.2497 47.9672C76.8644 45.7822 77.0278 43.7605 77.7399 41.9019C78.494 40.0359 79.6114 38.3875 81.0921 36.9567C82.6074 35.4764 84.3217 34.2643 86.2348 33.3204C88.1826 32.3271 90.1649 31.6526 92.1818 31.297C94.6609 30.8599 96.7692 30.8997 98.5066 31.4165C100.244 31.9333 101.623 32.7516 102.644 33.8714C103.664 34.9912 104.293 36.2234 104.53 37.568C104.753 38.8285 104.61 40.11 104.103 41.4125C103.631 42.6655 102.786 43.7678 101.567 44.7192C100.348 45.6706 98.7517 46.3204 96.7769 46.6686C96.7992 46.0581 96.7906 45.5181 96.7511 45.0484C96.7042 44.5368 96.6475 44.0919 96.5808 43.7138C96.2103 41.6128 95.4851 40.2027 94.4051 39.4833C93.3597 38.7145 92.2908 38.4264 91.1983 38.619C90.1479 38.8042 89.2098 39.3812 88.3841 40.35C87.5511 41.2767 87.2864 42.6015 87.5902 44.3242C87.8495 45.7949 88.4499 46.9887 89.3915 47.9058C90.3751 48.8155 91.5465 49.5621 92.9058 50.1456C94.3072 50.7217 95.7678 51.2657 97.2878 51.7775C98.8498 52.2819 100.364 52.8815 101.829 53.5762C103.329 54.2215 104.628 55.0756 105.725 56.1386C106.823 57.2015 107.534 58.6574 107.86 60.5062C108.201 62.4391 108.009 64.4225 107.285 66.4566C106.553 68.4486 105.409 70.3182 103.854 72.0654C102.292 73.7706 100.409 75.2508 98.2038 76.5061C96.0409 77.754 93.678 78.6039 91.1148 79.0558ZM121.075 73.7731C119.352 74.0769 117.827 73.7825 116.5 72.8901C115.173 71.9977 114.368 70.7531 114.087 69.1564C113.768 67.3496 114.149 65.7011 115.229 64.2109C116.344 62.6712 117.868 61.731 119.801 61.3901C121.524 61.0864 123.049 61.3807 124.376 62.2731C125.745 63.1582 126.57 64.399 126.852 65.9957C127.17 67.8025 126.772 69.4758 125.657 71.0154C124.535 72.5131 123.007 73.4323 121.075 73.7731Z"/>
</mask>
<path d="M52.6388 85.7102C51.4277 85.9671 50.1906 86.0769 48.9276 86.0397C47.6646 86.0024 46.5426 85.6587 45.5614 85.0085C45.4182 83.9507 45.1231 82.3997 44.676 80.3556C44.271 78.3041 43.7621 76.0326 43.1495 73.5411C42.5295 71.0077 41.8007 68.4717 40.9632 65.9332C40.1677 63.3873 39.2832 61.0738 38.3096 58.9926C37.3707 56.8619 36.3836 55.1946 35.3481 53.9908C34.3127 52.787 33.2487 52.2814 32.1562 52.474C31.1898 52.6445 30.1899 53.3623 29.1566 54.6276L28.6488 54.3273C29.1881 50.5062 30.2365 47.4836 31.7939 45.2594C33.3934 43.0277 35.2225 41.7304 37.2814 41.3673C39.0882 41.0487 40.712 41.4123 42.1528 42.458C43.5936 43.5037 44.8601 45.035 45.9523 47.052C47.0791 49.0196 48.0229 51.301 48.7838 53.8963C49.5793 56.4422 50.2179 59.0807 50.6995 61.8119C51.0847 63.9969 51.3785 66.1546 51.5809 68.2852C51.7833 70.4158 51.893 72.3894 51.9101 74.206C53.6406 70.9981 54.9696 67.601 55.8969 64.0148C56.8169 60.3866 57.3871 56.8634 57.6075 53.4452C57.8206 49.985 57.6937 46.9313 57.227 44.2841C57.138 43.7799 57.0281 43.2794 56.8972 42.7826C56.7589 42.2438 56.6106 41.7717 56.4525 41.3663C57.1349 40.0762 58.1175 39.0148 59.4004 38.182C60.6758 37.3073 62.0069 36.7476 63.3935 36.5031C64.7381 36.266 65.9664 36.3527 67.0786 36.7632C68.1834 37.1316 68.9692 37.9028 69.4362 39.0769C69.5938 43.165 69.2052 47.3494 68.2703 51.6301C67.3775 55.9034 66.1053 60.1136 64.4536 64.2607C62.7946 68.3658 60.9231 72.2485 58.839 75.9087C56.7969 79.5614 54.7302 82.8286 52.6388 85.7102ZM91.1148 79.0558C88.2996 79.5522 85.8824 79.4802 83.8631 78.8398C81.8859 78.192 80.3228 77.1895 79.1737 75.8324C78.0246 74.4753 77.3092 72.9985 77.0277 71.4018C76.7536 69.8471 76.8724 68.3097 77.3842 66.7898C77.8887 65.2278 78.7527 63.8623 79.9763 62.6934C81.2419 61.5171 82.8412 60.7586 84.774 60.4177C84.7987 60.8033 84.8407 61.1642 84.8999 61.5003C84.9518 61.7945 84.9777 61.9415 84.9777 61.9415C85.4741 64.7568 86.1399 66.9356 86.9751 68.478C87.8029 69.9784 88.6999 71.0116 89.6663 71.5778C90.6252 72.1019 91.5458 72.2861 92.4282 72.1306C93.7728 71.8935 94.8777 71.1571 95.743 69.9214C96.6008 68.6437 96.9037 67.2905 96.6518 65.8619C96.3703 64.2652 95.4288 62.9798 93.8273 62.0058C92.2679 61.0243 90.308 59.9835 87.9478 58.8833C86.6157 58.2084 85.181 57.4432 83.6438 56.5878C82.1412 55.683 80.7943 54.5558 79.6032 53.2061C78.4046 51.8144 77.6201 50.0681 77.2497 47.9672C76.8644 45.7822 77.0278 43.7605 77.7399 41.9019C78.494 40.0359 79.6114 38.3875 81.0921 36.9567C82.6074 35.4764 84.3217 34.2643 86.2348 33.3204C88.1826 32.3271 90.1649 31.6526 92.1818 31.297C94.6609 30.8599 96.7692 30.8997 98.5066 31.4165C100.244 31.9333 101.623 32.7516 102.644 33.8714C103.664 34.9912 104.293 36.2234 104.53 37.568C104.753 38.8285 104.61 40.11 104.103 41.4125C103.631 42.6655 102.786 43.7678 101.567 44.7192C100.348 45.6706 98.7517 46.3204 96.7769 46.6686C96.7992 46.0581 96.7906 45.5181 96.7511 45.0484C96.7042 44.5368 96.6475 44.0919 96.5808 43.7138C96.2103 41.6128 95.4851 40.2027 94.4051 39.4833C93.3597 38.7145 92.2908 38.4264 91.1983 38.619C90.1479 38.8042 89.2098 39.3812 88.3841 40.35C87.5511 41.2767 87.2864 42.6015 87.5902 44.3242C87.8495 45.7949 88.4499 46.9887 89.3915 47.9058C90.3751 48.8155 91.5465 49.5621 92.9058 50.1456C94.3072 50.7217 95.7678 51.2657 97.2878 51.7775C98.8498 52.2819 100.364 52.8815 101.829 53.5762C103.329 54.2215 104.628 55.0756 105.725 56.1386C106.823 57.2015 107.534 58.6574 107.86 60.5062C108.201 62.4391 108.009 64.4225 107.285 66.4566C106.553 68.4486 105.409 70.3182 103.854 72.0654C102.292 73.7706 100.409 75.2508 98.2038 76.5061C96.0409 77.754 93.678 78.6039 91.1148 79.0558ZM121.075 73.7731C119.352 74.0769 117.827 73.7825 116.5 72.8901C115.173 71.9977 114.368 70.7531 114.087 69.1564C113.768 67.3496 114.149 65.7011 115.229 64.2109C116.344 62.6712 117.868 61.731 119.801 61.3901C121.524 61.0864 123.049 61.3807 124.376 62.2731C125.745 63.1582 126.57 64.399 126.852 65.9957C127.17 67.8025 126.772 69.4758 125.657 71.0154C124.535 72.5131 123.007 73.4323 121.075 73.7731Z" fill="#FDF2E3"/>
<path d="M52.6388 85.7102L54.2987 93.5361L57.307 92.8981L59.1133 90.4092L52.6388 85.7102ZM48.9276 86.0397L48.6918 94.0362L48.6918 94.0362L48.9276 86.0397ZM45.5614 85.0085L37.6338 86.0817L38.1201 89.6745L41.1423 91.6772L45.5614 85.0085ZM44.676 80.3556L36.8275 81.9052L36.8433 81.9853L36.8608 82.0649L44.676 80.3556ZM43.1495 73.5411L35.3788 75.4429L35.3809 75.4513L43.1495 73.5411ZM40.9632 65.9332L33.3273 68.3192L33.3462 68.3796L33.366 68.4398L40.9632 65.9332ZM38.3096 58.9926L30.9889 62.2186L31.0252 62.3008L31.0632 62.3822L38.3096 58.9926ZM35.3481 53.9908L29.283 59.2076L29.283 59.2076L35.3481 53.9908ZM29.1566 54.6276L25.0842 61.5135L31.0032 65.0142L35.353 59.6878L29.1566 54.6276ZM28.6488 54.3273L20.7273 53.2091L19.9811 58.4954L24.5763 61.2131L28.6488 54.3273ZM31.7939 45.2594L25.2915 40.599L25.2659 40.6347L25.2407 40.6707L31.7939 45.2594ZM42.1528 42.458L46.8518 35.9835L46.8518 35.9835L42.1528 42.458ZM45.9523 47.052L38.9174 50.8613L38.9628 50.945L39.0101 51.0277L45.9523 47.052ZM48.7838 53.8963L41.107 56.147L41.1268 56.2148L41.1479 56.2823L48.7838 53.8963ZM51.5809 68.2852L59.5451 67.5287L59.5451 67.5287L51.5809 68.2852ZM51.9101 74.206L43.9104 74.2811L58.9509 78.0043L51.9101 74.206ZM55.8969 64.0148L63.6422 66.0177L63.6469 65.9994L63.6516 65.9811L55.8969 64.0148ZM57.6075 53.4452L65.591 53.9601L65.5917 53.9485L65.5924 53.9368L57.6075 53.4452ZM56.8972 42.7826L49.1485 44.7719L49.1548 44.7966L49.1613 44.8213L56.8972 42.7826ZM56.4525 41.3663L49.3807 37.6259L47.6689 40.8625L48.9995 44.2736L56.4525 41.3663ZM59.4004 38.182L63.7561 44.8923L63.8414 44.8369L63.9251 44.7795L59.4004 38.182ZM67.0786 36.7632L64.3088 44.2684L64.4276 44.3122L64.5477 44.3523L67.0786 36.7632ZM69.4362 39.0769L77.4303 38.7687L77.3774 37.3964L76.8698 36.1203L69.4362 39.0769ZM68.2703 51.6301L60.4545 49.9232L60.4468 49.9585L60.4394 49.9939L68.2703 51.6301ZM64.4536 64.2607L71.8708 67.2583L71.8784 67.2395L71.8859 67.2207L64.4536 64.2607ZM58.839 75.9087L51.887 71.9502L51.8714 71.9775L51.8561 72.0049L58.839 75.9087ZM50.9789 77.8843C50.4034 78.0064 49.8032 78.062 49.1635 78.0431L48.6918 94.0362C50.5781 94.0918 52.4519 93.9278 54.2987 93.5361L50.9789 77.8843ZM49.1635 78.0431C49.1923 78.044 49.309 78.0518 49.4819 78.1048C49.6587 78.1589 49.8318 78.2413 49.9806 78.3398L41.1423 91.6772C43.4587 93.2122 46.052 93.9583 48.6918 94.0362L49.1635 78.0431ZM53.4891 83.9353C53.3013 82.5478 52.9496 80.742 52.4913 78.6463L36.8608 82.0649C37.2966 84.0574 37.5352 85.3535 37.6338 86.0817L53.4891 83.9353ZM52.5245 78.8059C52.091 76.6103 51.5538 74.2164 50.9181 71.631L35.3809 75.4513C35.9704 77.8489 36.4509 79.9979 36.8275 81.9052L52.5245 78.8059ZM50.9202 71.6394C50.2491 68.8971 49.462 66.1594 48.5604 63.4266L33.366 68.4398C34.1394 70.7839 34.8099 73.1182 35.3788 75.4429L50.9202 71.6394ZM48.5991 63.5472C47.713 60.7116 46.7037 58.0564 45.5561 55.6029L31.0632 62.3822C31.8626 64.0912 32.6223 66.0631 33.3273 68.3192L48.5991 63.5472ZM45.6304 55.7665C44.5071 53.2176 43.142 50.784 41.4132 48.7741L29.283 59.2076C29.6251 59.6053 30.2343 60.5061 30.9889 62.2186L45.6304 55.7665ZM41.4132 48.7741C39.4121 46.4476 35.747 43.7175 30.767 44.5956L33.5454 60.3525C32.3512 60.5631 31.2104 60.3481 30.3399 59.9344C29.9495 59.7489 29.6768 59.5543 29.5149 59.4225C29.4331 59.3558 29.3746 59.3012 29.3381 59.2652C29.3015 59.2291 29.2836 59.2083 29.283 59.2076L41.4132 48.7741ZM30.767 44.5956C27.0068 45.2586 24.4596 47.7315 22.9603 49.5675L35.353 59.6878C35.5604 59.4338 35.5698 59.479 35.3472 59.6388C35.1136 59.8066 34.5053 60.1833 33.5454 60.3525L30.767 44.5956ZM33.2291 47.7418L32.7212 47.4414L24.5763 61.2131L25.0842 61.5135L33.2291 47.7418ZM36.5702 55.4454C37.0028 52.3809 37.7523 50.6975 38.3471 49.848L25.2407 40.6707C22.7207 44.2697 21.3734 48.6316 20.7273 53.2091L36.5702 55.4454ZM38.2963 49.9197C38.6909 49.3692 38.9443 49.1729 38.9935 49.138C39.0145 49.1231 38.9905 49.1428 38.9222 49.172C38.8521 49.2019 38.7648 49.2292 38.6706 49.2458L35.8923 33.4889C31.1906 34.3179 27.7142 37.2188 25.2915 40.599L38.2963 49.9197ZM38.6706 49.2458C38.6409 49.251 38.4264 49.2794 38.1065 49.2078C37.7813 49.135 37.5535 49.0049 37.4538 48.9325L46.8518 35.9835C43.5964 33.6208 39.7615 32.8066 35.8923 33.4889L38.6706 49.2458ZM37.4538 48.9325C37.6892 49.1033 38.2364 49.6036 38.9174 50.8613L52.9872 43.2427C51.4838 40.4664 49.4981 37.904 46.8518 35.9835L37.4538 48.9325ZM39.0101 51.0277C39.7723 52.3586 40.4898 54.0419 41.107 56.147L56.4607 51.6456C55.5561 48.5601 54.3859 45.6806 52.8945 43.0764L39.0101 51.0277ZM41.1479 56.2823C41.8374 58.4888 42.3965 60.7937 42.821 63.2011L58.5779 60.4227C58.0392 57.3677 57.3213 54.3956 56.4197 51.5103L41.1479 56.2823ZM42.821 63.2011C43.1706 65.184 43.4352 67.1307 43.6168 69.0417L59.5451 67.5287C59.3218 65.1786 58.9988 62.8097 58.5779 60.4227L42.821 63.2011ZM43.6168 69.0417C43.8013 70.9843 43.8958 72.7277 43.9104 74.2811L59.9097 74.1309C59.8902 72.051 59.7653 69.8472 59.5451 67.5287L43.6168 69.0417ZM58.9509 78.0043C60.9928 74.2193 62.5559 70.2184 63.6422 66.0177L48.1517 62.012C47.3833 64.9837 46.2885 67.7769 44.8693 70.4077L58.9509 78.0043ZM63.6516 65.9811C64.6811 61.9205 65.3362 57.9108 65.591 53.9601L49.6241 52.9304C49.438 55.8161 48.9527 58.8528 48.1423 62.0486L63.6516 65.9811ZM65.5924 53.9368C65.8337 50.0187 65.7078 46.3113 65.1054 42.895L49.3485 45.6733C49.6796 47.5513 49.8075 49.9513 49.6227 52.9536L65.5924 53.9368ZM65.1054 42.895C64.9779 42.1716 64.8203 41.4544 64.6331 40.7439L49.1613 44.8213C49.2359 45.1044 49.2982 45.3882 49.3485 45.6733L65.1054 42.895ZM64.6459 40.7933C64.4484 40.0238 64.2075 39.2331 63.9055 38.459L48.9995 44.2736C49.0138 44.3102 49.0694 44.4637 49.1485 44.7719L64.6459 40.7933ZM63.5243 45.1066C63.5381 45.0804 63.5599 45.0196 63.7561 44.8923L55.0446 31.4718C52.675 33.0099 50.7316 35.072 49.3807 37.6259L63.5243 45.1066ZM63.9251 44.7795C64.3524 44.4864 64.6274 44.409 64.7827 44.3816L62.0043 28.6247C59.3864 29.0863 56.9992 30.1281 54.8756 31.5846L63.9251 44.7795ZM64.7827 44.3816C64.8797 44.3645 64.8647 44.3779 64.7601 44.3705C64.6494 44.3627 64.4893 44.335 64.3088 44.2684L69.8484 29.2579C67.2168 28.2868 64.5291 28.1795 62.0043 28.6247L64.7827 44.3816ZM64.5477 44.3523C64.0145 44.1744 63.418 43.8428 62.8931 43.3276C62.382 42.826 62.1204 42.3296 62.0026 42.0335L76.8698 36.1203C75.6153 32.9662 73.1585 30.3576 69.6095 29.174L64.5477 44.3523ZM61.4422 39.3851C61.5719 42.7505 61.2552 46.2572 60.4545 49.9232L76.0861 53.337C77.1552 48.4415 77.6158 43.5795 77.4303 38.7687L61.4422 39.3851ZM60.4394 49.9939C59.6431 53.8052 58.506 57.5729 57.0214 61.3008L71.8859 67.2207C73.7045 62.6543 75.1119 58.0015 76.1012 53.2662L60.4394 49.9939ZM57.0365 61.2632C55.5041 65.0548 53.786 68.615 51.887 71.9502L65.791 79.8671C68.0601 75.882 70.0851 71.6769 71.8708 67.2583L57.0365 61.2632ZM51.8561 72.0049C49.9419 75.429 48.042 78.424 46.1643 81.0112L59.1133 90.4092C61.4184 87.2332 63.652 83.6938 65.8219 79.8124L51.8561 72.0049ZM83.8631 78.8398L81.3722 86.4421L81.4083 86.4539L81.4445 86.4654L83.8631 78.8398ZM79.1737 75.8324L85.279 70.6627L79.1737 75.8324ZM77.3842 66.7898L84.9659 69.3428L84.9818 69.2956L84.9971 69.2483L77.3842 66.7898ZM79.9763 62.6934L74.53 56.8336L74.4899 56.8709L74.4502 56.9087L79.9763 62.6934ZM84.774 60.4177L92.7577 59.9071L92.1872 50.9872L83.3848 52.5393L84.774 60.4177ZM86.9751 68.478L79.9402 72.2873L79.9552 72.315L79.9705 72.3425L86.9751 68.478ZM89.6663 71.5778L85.6223 78.4804L85.725 78.5405L85.8294 78.5976L89.6663 71.5778ZM95.743 69.9214L102.296 74.51L102.341 74.4458L102.385 74.3807L95.743 69.9214ZM93.8273 62.0058L89.5662 68.7765L89.6179 68.8091L89.6701 68.8408L93.8273 62.0058ZM87.9478 58.8833L84.3321 66.0196L84.449 66.0789L84.5679 66.1342L87.9478 58.8833ZM83.6438 56.5878L79.5169 63.4412L79.6342 63.5118L79.7539 63.5784L83.6438 56.5878ZM79.6032 53.2061L73.5413 58.4266L73.573 58.4634L73.605 58.4997L79.6032 53.2061ZM77.7399 41.9019L70.3227 38.9044L70.2955 38.9718L70.2695 39.0397L77.7399 41.9019ZM81.0921 36.9567L86.6513 42.7095L86.6669 42.6944L86.6825 42.6793L81.0921 36.9567ZM86.2348 33.3204L89.7744 40.4948L89.822 40.4713L89.8693 40.4472L86.2348 33.3204ZM98.5066 31.4165L96.2258 39.0845L96.2258 39.0845L98.5066 31.4165ZM102.644 33.8714L108.556 28.4824L108.556 28.4824L102.644 33.8714ZM104.103 41.4125L96.6481 38.5112L96.6326 38.5511L96.6175 38.5911L104.103 41.4125ZM101.567 44.7192L106.49 51.025L106.49 51.025L101.567 44.7192ZM96.7769 46.6686L88.7822 46.3762L88.4205 56.2655L98.166 54.5471L96.7769 46.6686ZM96.7511 45.0484L104.723 44.3783L104.72 44.3483L104.718 44.3183L96.7511 45.0484ZM94.4051 39.4833L89.6654 45.928L89.8153 46.0383L89.9701 46.1414L94.4051 39.4833ZM88.3841 40.35L94.3337 45.6982L94.4043 45.6196L94.4728 45.5392L88.3841 40.35ZM89.3915 47.9058L83.8096 53.6366L83.8836 53.7088L83.9595 53.779L89.3915 47.9058ZM92.9058 50.1456L89.7502 57.497L89.807 57.5213L89.8641 57.5448L92.9058 50.1456ZM97.2878 51.7775L94.7347 59.3592L94.7819 59.3751L94.8293 59.3904L97.2878 51.7775ZM101.829 53.5762L98.4024 60.8052L98.5341 60.8676L98.668 60.9252L101.829 53.5762ZM105.725 56.1386L100.159 61.8845L100.159 61.8846L105.725 56.1386ZM107.285 66.4566L114.794 69.2155L114.808 69.1782L114.821 69.1408L107.285 66.4566ZM103.854 72.0654L109.753 77.4697L109.792 77.427L109.831 77.3838L103.854 72.0654ZM98.2038 76.5061L94.2457 69.5539L94.2257 69.5652L94.2058 69.5767L98.2038 76.5061ZM89.7256 71.1774C87.7572 71.5245 86.7169 71.3522 86.2817 71.2142L81.4445 86.4654C85.0479 87.6083 88.842 87.58 92.504 86.9343L89.7256 71.1774ZM86.3541 71.2375C85.5408 70.971 85.3189 70.71 85.279 70.6627L73.0684 81.0021C75.3266 83.669 78.2311 85.4129 81.3722 86.4421L86.3541 71.2375ZM85.279 70.6627C84.954 70.279 84.9184 70.0817 84.9062 70.0126L69.1492 72.7909C69.7001 75.9152 71.0951 78.6717 73.0684 81.0021L85.279 70.6627ZM84.9062 70.0126C84.8683 69.7979 84.8742 69.6154 84.9659 69.3428L69.8026 64.2367C68.8707 67.0041 68.6388 69.8963 69.1492 72.7909L84.9062 70.0126ZM84.9971 69.2483C85.0801 68.9912 85.209 68.7584 85.5024 68.4781L74.4502 56.9087C72.2964 58.9663 70.6972 61.4643 69.7714 64.3313L84.9971 69.2483ZM85.4226 68.5533C85.4421 68.5352 85.4742 68.508 85.5534 68.4704C85.6395 68.4296 85.8269 68.3555 86.1632 68.2962L83.3848 52.5393C80.1456 53.1104 77.0734 54.4697 74.53 56.8336L85.4226 68.5533ZM76.7903 60.9284C76.8314 61.5709 76.9048 62.2278 77.0215 62.8895L92.7784 60.1111C92.7765 60.1006 92.7659 60.0358 92.7577 59.9071L76.7903 60.9284ZM77.0215 62.8895C77.0216 62.8901 77.0217 62.8907 77.0218 62.8912C77.0219 62.8918 77.022 62.8924 77.0221 62.893C77.0222 62.8935 77.0223 62.8941 77.0224 62.8947C77.0225 62.8952 77.0226 62.8958 77.0227 62.8964C77.0228 62.897 77.0229 62.8975 77.023 62.8981C77.0231 62.8987 77.0232 62.8992 77.0233 62.8998C77.0234 62.9004 77.0235 62.9009 77.0236 62.9015C77.0237 62.9021 77.0238 62.9026 77.0239 62.9032C77.024 62.9038 77.0241 62.9043 77.0242 62.9049C77.0243 62.9055 77.0244 62.906 77.0245 62.9066C77.0246 62.9071 77.0247 62.9077 77.0248 62.9083C77.0249 62.9088 77.025 62.9094 77.0251 62.91C77.0252 62.9105 77.0253 62.9111 77.0254 62.9116C77.0255 62.9122 77.0256 62.9128 77.0257 62.9133C77.0258 62.9139 77.0259 62.9144 77.026 62.915C77.0261 62.9155 77.0262 62.9161 77.0263 62.9167C77.0264 62.9172 77.0264 62.9178 77.0265 62.9183C77.0266 62.9189 77.0267 62.9194 77.0268 62.92C77.0269 62.9205 77.027 62.9211 77.0271 62.9217C77.0272 62.9222 77.0273 62.9228 77.0274 62.9233C77.0275 62.9239 77.0276 62.9244 77.0277 62.925C77.0278 62.9255 77.0279 62.9261 77.028 62.9266C77.0281 62.9272 77.0282 62.9277 77.0283 62.9283C77.0284 62.9288 77.0285 62.9294 77.0286 62.9299C77.0287 62.9305 77.0288 62.931 77.0289 62.9316C77.029 62.9321 77.0291 62.9326 77.0292 62.9332C77.0293 62.9337 77.0294 62.9343 77.0295 62.9348C77.0296 62.9354 77.0296 62.9359 77.0297 62.9365C77.0298 62.937 77.0299 62.9375 77.03 62.9381C77.0301 62.9386 77.0302 62.9392 77.0303 62.9397C77.0304 62.9402 77.0305 62.9408 77.0306 62.9413C77.0307 62.9419 77.0308 62.9424 77.0309 62.9429C77.031 62.9435 77.0311 62.944 77.0312 62.9446C77.0313 62.9451 77.0314 62.9456 77.0315 62.9462C77.0315 62.9467 77.0316 62.9472 77.0317 62.9478C77.0318 62.9483 77.0319 62.9488 77.032 62.9494C77.0321 62.9499 77.0322 62.9504 77.0323 62.951C77.0324 62.9515 77.0325 62.952 77.0326 62.9526C77.0327 62.9531 77.0328 62.9536 77.0329 62.9542C77.033 62.9547 77.0331 62.9552 77.0331 62.9558C77.0332 62.9563 77.0333 62.9568 77.0334 62.9573C77.0335 62.9579 77.0336 62.9584 77.0337 62.9589C77.0338 62.9595 77.0339 62.96 77.034 62.9605C77.0341 62.961 77.0342 62.9616 77.0343 62.9621C77.0344 62.9626 77.0344 62.9631 77.0345 62.9637C77.0346 62.9642 77.0347 62.9647 77.0348 62.9652C77.0349 62.9658 77.035 62.9663 77.0351 62.9668C77.0352 62.9673 77.0353 62.9678 77.0354 62.9684C77.0355 62.9689 77.0356 62.9694 77.0356 62.9699C77.0357 62.9704 77.0358 62.971 77.0359 62.9715C77.036 62.972 77.0361 62.9725 77.0362 62.973C77.0363 62.9736 77.0364 62.9741 77.0365 62.9746C77.0366 62.9751 77.0366 62.9756 77.0367 62.9761C77.0368 62.9766 77.0369 62.9772 77.037 62.9777C77.0371 62.9782 77.0372 62.9787 77.0373 62.9792C77.0374 62.9797 77.0375 62.9802 77.0376 62.9807C77.0376 62.9813 77.0377 62.9818 77.0378 62.9823C77.0379 62.9828 77.038 62.9833 77.0381 62.9838C77.0382 62.9843 77.0383 62.9848 77.0384 62.9853C77.0385 62.9858 77.0385 62.9864 77.0386 62.9869C77.0387 62.9874 77.0388 62.9879 77.0389 62.9884C77.039 62.9889 77.0391 62.9894 77.0392 62.9899C77.0393 62.9904 77.0393 62.9909 77.0394 62.9914C77.0395 62.9919 77.0396 62.9924 77.0397 62.9929C77.0398 62.9934 77.0399 62.9939 77.04 62.9944C77.0401 62.9949 77.0401 62.9954 77.0402 62.9959C77.0403 62.9964 77.0404 62.9969 77.0405 62.9974C77.0406 62.9979 77.0407 62.9984 77.0408 62.9989C77.0408 62.9994 77.0409 62.9999 77.041 63.0004C77.0411 63.0009 77.0412 63.0014 77.0413 63.0019C77.0414 63.0024 77.0415 63.0029 77.0415 63.0034C77.0416 63.0039 77.0417 63.0044 77.0418 63.0049C77.0419 63.0054 77.042 63.0059 77.0421 63.0064C77.0422 63.0069 77.0422 63.0073 77.0423 63.0078C77.0424 63.0083 77.0425 63.0088 77.0426 63.0093C77.0427 63.0098 77.0428 63.0103 77.0428 63.0108C77.0429 63.0113 77.043 63.0118 77.0431 63.0122C77.0432 63.0127 77.0433 63.0132 77.0434 63.0137C77.0435 63.0142 77.0435 63.0147 77.0436 63.0152C77.0437 63.0156 77.0438 63.0161 77.0439 63.0166C77.044 63.0171 77.044 63.0176 77.0441 63.0181C77.0442 63.0186 77.0443 63.019 77.0444 63.0195C77.0445 63.02 77.0446 63.0205 77.0446 63.021C77.0447 63.0214 77.0448 63.0219 77.0449 63.0224C77.045 63.0229 77.0451 63.0234 77.0452 63.0238C77.0452 63.0243 77.0453 63.0248 77.0454 63.0253C77.0455 63.0258 77.0456 63.0262 77.0457 63.0267C77.0457 63.0272 77.0458 63.0277 77.0459 63.0281C77.046 63.0286 77.0461 63.0291 77.0462 63.0296C77.0462 63.03 77.0463 63.0305 77.0464 63.031C77.0465 63.0315 77.0466 63.0319 77.0467 63.0324C77.0467 63.0329 77.0468 63.0334 77.0469 63.0338C77.047 63.0343 77.0471 63.0348 77.0472 63.0352C77.0472 63.0357 77.0473 63.0362 77.0474 63.0366C77.0475 63.0371 77.0476 63.0376 77.0477 63.038C77.0477 63.0385 77.0478 63.039 77.0479 63.0395C77.048 63.0399 77.0481 63.0404 77.0482 63.0409C77.0482 63.0413 77.0483 63.0418 77.0484 63.0422C77.0485 63.0427 77.0486 63.0432 77.0486 63.0436C77.0487 63.0441 77.0488 63.0446 77.0489 63.045C77.049 63.0455 77.0491 63.046 77.0491 63.0464C77.0492 63.0469 77.0493 63.0473 77.0494 63.0478C77.0495 63.0483 77.0495 63.0487 77.0496 63.0492C77.0497 63.0496 77.0498 63.0501 77.0499 63.0505C77.0499 63.051 77.05 63.0515 77.0501 63.0519C77.0502 63.0524 77.0503 63.0528 77.0503 63.0533C77.0504 63.0537 77.0505 63.0542 77.0506 63.0547C77.0507 63.0551 77.0507 63.0556 77.0508 63.056C77.0509 63.0565 77.051 63.0569 77.0511 63.0574C77.0511 63.0578 77.0512 63.0583 77.0513 63.0587C77.0514 63.0592 77.0515 63.0596 77.0515 63.0601C77.0516 63.0605 77.0517 63.061 77.0518 63.0614C77.0519 63.0619 77.0519 63.0623 77.052 63.0628C77.0521 63.0632 77.0522 63.0637 77.0523 63.0641C77.0523 63.0646 77.0524 63.065 77.0525 63.0655C77.0526 63.0659 77.0526 63.0663 77.0527 63.0668C77.0528 63.0672 77.0529 63.0677 77.053 63.0681C77.053 63.0686 77.0531 63.069 77.0532 63.0694C77.0533 63.0699 77.0533 63.0703 77.0534 63.0708C77.0535 63.0712 77.0536 63.0717 77.0537 63.0721C77.0537 63.0725 77.0538 63.073 77.0539 63.0734C77.054 63.0738 77.054 63.0743 77.0541 63.0747C77.0542 63.0752 77.0543 63.0756 77.0544 63.076C77.0544 63.0765 77.0545 63.0769 77.0546 63.0773C77.0547 63.0778 77.0547 63.0782 77.0548 63.0786C77.0549 63.0791 77.055 63.0795 77.055 63.0799C77.0551 63.0804 77.0552 63.0808 77.0553 63.0812C77.0553 63.0817 77.0554 63.0821 77.0555 63.0825C77.0556 63.083 77.0557 63.0834 77.0557 63.0838C77.0558 63.0843 77.0559 63.0847 77.056 63.0851C77.056 63.0855 77.0561 63.086 77.0562 63.0864C77.0563 63.0868 77.0563 63.0873 77.0564 63.0877C77.0565 63.0881 77.0566 63.0885 77.0566 63.089C77.0567 63.0894 77.0568 63.0898 77.0569 63.0902C77.0569 63.0907 77.057 63.0911 77.0571 63.0915C77.0572 63.0919 77.0572 63.0923 77.0573 63.0928C77.0574 63.0932 77.0575 63.0936 77.0575 63.094C77.0576 63.0945 77.0577 63.0949 77.0578 63.0953C77.0578 63.0957 77.0579 63.0961 77.058 63.0966C77.058 63.097 77.0581 63.0974 77.0582 63.0978C77.0583 63.0982 77.0583 63.0986 77.0584 63.0991C77.0585 63.0995 77.0586 63.0999 77.0586 63.1003C77.0587 63.1007 77.0588 63.1011 77.0589 63.1015C77.0589 63.102 77.059 63.1024 77.0591 63.1028C77.0591 63.1032 77.0592 63.1036 77.0593 63.104C77.0594 63.1044 77.0594 63.1048 77.0595 63.1053C77.0596 63.1057 77.0597 63.1061 77.0597 63.1065C77.0598 63.1069 77.0599 63.1073 77.0599 63.1077C77.06 63.1081 77.0601 63.1085 77.0602 63.1089C77.0602 63.1093 77.0603 63.1098 77.0604 63.1102C77.0604 63.1106 77.0605 63.111 77.0606 63.1114C77.0607 63.1118 77.0607 63.1122 77.0608 63.1126C77.0609 63.113 77.0609 63.1134 77.061 63.1138C77.0611 63.1142 77.0612 63.1146 77.0612 63.115C77.0613 63.1154 77.0614 63.1158 77.0614 63.1162C77.0615 63.1166 77.0616 63.117 77.0617 63.1174C77.0617 63.1178 77.0618 63.1182 77.0619 63.1186C77.0619 63.119 77.062 63.1194 77.0621 63.1198C77.0621 63.1202 77.0622 63.1206 77.0623 63.121C77.0624 63.1214 77.0624 63.1218 77.0625 63.1222C77.0626 63.1226 77.0626 63.123 77.0627 63.1234C77.0628 63.1238 77.0628 63.1241 77.0629 63.1245C77.063 63.1249 77.063 63.1253 77.0631 63.1257C77.0632 63.1261 77.0633 63.1265 77.0633 63.1269C77.0634 63.1273 77.0635 63.1277 77.0635 63.1281C77.0636 63.1284 77.0637 63.1288 77.0637 63.1292C77.0638 63.1296 77.0639 63.13 77.0639 63.1304C77.064 63.1308 77.0641 63.1312 77.0641 63.1315C77.0642 63.1319 77.0643 63.1323 77.0643 63.1327C77.0644 63.1331 77.0645 63.1335 77.0646 63.1339C77.0646 63.1342 77.0647 63.1346 77.0648 63.135C77.0648 63.1354 77.0649 63.1358 77.065 63.1362C77.065 63.1365 77.0651 63.1369 77.0652 63.1373C77.0652 63.1377 77.0653 63.1381 77.0654 63.1384C77.0654 63.1388 77.0655 63.1392 77.0656 63.1396C77.0656 63.1399 77.0657 63.1403 77.0658 63.1407C77.0658 63.1411 77.0659 63.1415 77.066 63.1418C77.066 63.1422 77.0661 63.1426 77.0662 63.143C77.0662 63.1433 77.0663 63.1437 77.0664 63.1441C77.0664 63.1445 77.0665 63.1448 77.0666 63.1452C77.0666 63.1456 77.0667 63.1459 77.0667 63.1463C77.0668 63.1467 77.0669 63.1471 77.0669 63.1474C77.067 63.1478 77.0671 63.1482 77.0671 63.1485C77.0672 63.1489 77.0673 63.1493 77.0673 63.1496C77.0674 63.15 77.0675 63.1504 77.0675 63.1507C77.0676 63.1511 77.0677 63.1515 77.0677 63.1518C77.0678 63.1522 77.0679 63.1526 77.0679 63.1529C77.068 63.1533 77.068 63.1537 77.0681 63.154C77.0682 63.1544 77.0682 63.1548 77.0683 63.1551C77.0684 63.1555 77.0684 63.1558 77.0685 63.1562C77.0686 63.1566 77.0686 63.1569 77.0687 63.1573C77.0687 63.1576 77.0688 63.158 77.0689 63.1584C77.0689 63.1587 77.069 63.1591 77.0691 63.1594C77.0691 63.1598 77.0692 63.1602 77.0693 63.1605C77.0693 63.1609 77.0694 63.1612 77.0694 63.1616C77.0695 63.1619 77.0696 63.1623 77.0696 63.1626C77.0697 63.163 77.0698 63.1634 77.0698 63.1637C77.0699 63.1641 77.0699 63.1644 77.07 63.1648C77.0701 63.1651 77.0701 63.1655 77.0702 63.1658C77.0702 63.1662 77.0703 63.1665 77.0704 63.1669C77.0704 63.1672 77.0705 63.1676 77.0706 63.1679C77.0706 63.1683 77.0707 63.1686 77.0707 63.169C77.0708 63.1693 77.0709 63.1697 77.0709 63.17C77.071 63.1704 77.071 63.1707 77.0711 63.171C77.0712 63.1714 77.0712 63.1717 77.0713 63.1721C77.0714 63.1724 77.0714 63.1728 77.0715 63.1731C77.0715 63.1735 77.0716 63.1738 77.0717 63.1741C77.0717 63.1745 77.0718 63.1748 77.0718 63.1752C77.0719 63.1755 77.072 63.1759 77.072 63.1762C77.0721 63.1765 77.0721 63.1769 77.0722 63.1772C77.0723 63.1775 77.0723 63.1779 77.0724 63.1782C77.0724 63.1786 77.0725 63.1789 77.0726 63.1792C77.0726 63.1796 77.0727 63.1799 77.0727 63.1802C77.0728 63.1806 77.0728 63.1809 77.0729 63.1812C77.073 63.1816 77.073 63.1819 77.0731 63.1823C77.0731 63.1826 77.0732 63.1829 77.0733 63.1833C77.0733 63.1836 77.0734 63.1839 77.0734 63.1842C77.0735 63.1846 77.0736 63.1849 77.0736 63.1852C77.0737 63.1856 77.0737 63.1859 77.0738 63.1862C77.0738 63.1866 77.0739 63.1869 77.074 63.1872C77.074 63.1875 77.0741 63.1879 77.0741 63.1882C77.0742 63.1885 77.0742 63.1888 77.0743 63.1892C77.0744 63.1895 77.0744 63.1898 77.0745 63.1901C77.0745 63.1905 77.0746 63.1908 77.0746 63.1911C77.0747 63.1914 77.0748 63.1918 77.0748 63.1921C77.0749 63.1924 77.0749 63.1927 77.075 63.193C77.075 63.1934 77.0751 63.1937 77.0752 63.194C77.0752 63.1943 77.0753 63.1946 77.0753 63.195C77.0754 63.1953 77.0754 63.1956 77.0755 63.1959C77.0755 63.1962 77.0756 63.1966 77.0757 63.1969C77.0757 63.1972 77.0758 63.1975 77.0758 63.1978C77.0759 63.1981 77.0759 63.1984 77.076 63.1988C77.0761 63.1991 77.0761 63.1994 77.0762 63.1997C77.0762 63.2 77.0763 63.2003 77.0763 63.2006C77.0764 63.2009 77.0764 63.2013 77.0765 63.2016C77.0765 63.2019 77.0766 63.2022 77.0767 63.2025C77.0767 63.2028 77.0768 63.2031 77.0768 63.2034C77.0769 63.2037 77.0769 63.204 77.077 63.2044C77.077 63.2047 77.0771 63.205 77.0771 63.2053C77.0772 63.2056 77.0773 63.2059 77.0773 63.2062C77.0774 63.2065 77.0774 63.2068 77.0775 63.2071C77.0775 63.2074 77.0776 63.2077 77.0776 63.208C77.0777 63.2083 77.0777 63.2086 77.0778 63.2089C77.0778 63.2092 77.0779 63.2095 77.0779 63.2098C77.078 63.2101 77.0781 63.2104 77.0781 63.2107C77.0782 63.211 77.0782 63.2113 77.0783 63.2116C77.0783 63.2119 77.0784 63.2122 77.0784 63.2125C77.0785 63.2128 77.0785 63.2131 77.0786 63.2134C77.0786 63.2137 77.0787 63.214 77.0787 63.2143C77.0788 63.2146 77.0788 63.2149 77.0789 63.2152C77.0789 63.2155 77.079 63.2158 77.079 63.2161C77.0791 63.2164 77.0791 63.2166 77.0792 63.2169C77.0793 63.2172 77.0793 63.2175 77.0794 63.2178C77.0794 63.2181 77.0795 63.2184 77.0795 63.2187C77.0796 63.219 77.0796 63.2193 77.0797 63.2195C77.0797 63.2198 77.0798 63.2201 77.0798 63.2204C77.0799 63.2207 77.0799 63.221 77.08 63.2213C77.08 63.2216 77.0801 63.2218 77.0801 63.2221C77.0802 63.2224 77.0802 63.2227 77.0803 63.223C77.0803 63.2233 77.0804 63.2235 77.0804 63.2238C77.0805 63.2241 77.0805 63.2244 77.0806 63.2247C77.0806 63.225 77.0807 63.2252 77.0807 63.2255C77.0808 63.2258 77.0808 63.2261 77.0809 63.2264C77.0809 63.2266 77.081 63.2269 77.081 63.2272C77.0811 63.2275 77.0811 63.2278 77.0812 63.228C77.0812 63.2283 77.0813 63.2286 77.0813 63.2289C77.0814 63.2291 77.0814 63.2294 77.0814 63.2297C77.0815 63.23 77.0815 63.2302 77.0816 63.2305C77.0816 63.2308 77.0817 63.2311 77.0817 63.2313C77.0818 63.2316 77.0818 63.2319 77.0819 63.2321C77.0819 63.2324 77.082 63.2327 77.082 63.233C77.0821 63.2332 77.0821 63.2335 77.0822 63.2338C77.0822 63.234 77.0823 63.2343 77.0823 63.2346C77.0824 63.2348 77.0824 63.2351 77.0825 63.2354C77.0825 63.2356 77.0825 63.2359 77.0826 63.2362C77.0826 63.2364 77.0827 63.2367 77.0827 63.237C77.0828 63.2372 77.0828 63.2375 77.0829 63.2378C77.0829 63.238 77.083 63.2383 77.083 63.2386C77.0831 63.2388 77.0831 63.2391 77.0831 63.2393C77.0832 63.2396 77.0832 63.2399 77.0833 63.2401C77.0833 63.2404 77.0834 63.2406 77.0834 63.2409C77.0835 63.2412 77.0835 63.2414 77.0836 63.2417C77.0836 63.2419 77.0837 63.2422 77.0837 63.2425C77.0837 63.2427 77.0838 63.243 77.0838 63.2432C77.0839 63.2435 77.0839 63.2437 77.084 63.244C77.084 63.2442 77.0841 63.2445 77.0841 63.2447C77.0841 63.245 77.0842 63.2453 77.0842 63.2455C77.0843 63.2458 77.0843 63.246 77.0844 63.2463C77.0844 63.2465 77.0845 63.2468 77.0845 63.247C77.0845 63.2473 77.0846 63.2475 77.0846 63.2478C77.0847 63.248 77.0847 63.2483 77.0848 63.2485C77.0848 63.2488 77.0849 63.249 77.0849 63.2493C77.0849 63.2495 77.085 63.2497 77.085 63.25C77.0851 63.2502 77.0851 63.2505 77.0852 63.2507C77.0852 63.251 77.0852 63.2512 77.0853 63.2515C77.0853 63.2517 77.0854 63.2519 77.0854 63.2522C77.0855 63.2524 77.0855 63.2527 77.0855 63.2529C77.0856 63.2532 77.0856 63.2534 77.0857 63.2536C77.0857 63.2539 77.0858 63.2541 77.0858 63.2544C77.0858 63.2546 77.0859 63.2548 77.0859 63.2551C77.086 63.2553 77.086 63.2555 77.086 63.2558C77.0861 63.256 77.0861 63.2563 77.0862 63.2565C77.0862 63.2567 77.0863 63.257 77.0863 63.2572C77.0863 63.2574 77.0864 63.2577 77.0864 63.2579C77.0865 63.2581 77.0865 63.2584 77.0865 63.2586C77.0866 63.2588 77.0866 63.2591 77.0867 63.2593C77.0867 63.2595 77.0867 63.2598 77.0868 63.26C77.0868 63.2602 77.0869 63.2604 77.0869 63.2607C77.087 63.2609 77.087 63.2611 77.087 63.2614C77.0871 63.2616 77.0871 63.2618 77.0872 63.262C77.0872 63.2623 77.0872 63.2625 77.0873 63.2627C77.0873 63.2629 77.0874 63.2632 77.0874 63.2634C77.0874 63.2636 77.0875 63.2638 77.0875 63.2641C77.0875 63.2643 77.0876 63.2645 77.0876 63.2647C77.0877 63.2649 77.0877 63.2652 77.0877 63.2654C77.0878 63.2656 77.0878 63.2658 77.0879 63.2661C77.0879 63.2663 77.0879 63.2665 77.088 63.2667C77.088 63.2669 77.0881 63.2672 77.0881 63.2674C77.0881 63.2676 77.0882 63.2678 77.0882 63.268C77.0882 63.2682 77.0883 63.2685 77.0883 63.2687C77.0884 63.2689 77.0884 63.2691 77.0884 63.2693C77.0885 63.2695 77.0885 63.2697 77.0885 63.27C77.0886 63.2702 77.0886 63.2704 77.0887 63.2706C77.0887 63.2708 77.0887 63.271 77.0888 63.2712C77.0888 63.2714 77.0888 63.2716 77.0889 63.2719C77.0889 63.2721 77.089 63.2723 77.089 63.2725C77.089 63.2727 77.0891 63.2729 77.0891 63.2731C77.0891 63.2733 77.0892 63.2735 77.0892 63.2737C77.0893 63.2739 77.0893 63.2741 77.0893 63.2743C77.0894 63.2746 77.0894 63.2748 77.0894 63.275C77.0895 63.2752 77.0895 63.2754 77.0895 63.2756C77.0896 63.2758 77.0896 63.276 77.0896 63.2762C77.0897 63.2764 77.0897 63.2766 77.0898 63.2768C77.0898 63.277 77.0898 63.2772 77.0899 63.2774C77.0899 63.2776 77.0899 63.2778 77.09 63.278C77.09 63.2782 77.09 63.2784 77.0901 63.2786C77.0901 63.2788 77.0901 63.279 77.0902 63.2792C77.0902 63.2794 77.0902 63.2796 77.0903 63.2798C77.0903 63.28 77.0903 63.2801 77.0904 63.2803C77.0904 63.2805 77.0904 63.2807 77.0905 63.2809C77.0905 63.2811 77.0905 63.2813 77.0906 63.2815C77.0906 63.2817 77.0907 63.2819 77.0907 63.2821C77.0907 63.2823 77.0908 63.2825 77.0908 63.2826C77.0908 63.2828 77.0909 63.283 77.0909 63.2832C77.0909 63.2834 77.091 63.2836 77.091 63.2838C77.091 63.284 77.0911 63.2841 77.0911 63.2843C77.0911 63.2845 77.0911 63.2847 77.0912 63.2849C77.0912 63.2851 77.0912 63.2853 77.0913 63.2854C77.0913 63.2856 77.0913 63.2858 77.0914 63.286C77.0914 63.2862 77.0914 63.2864 77.0915 63.2865C77.0915 63.2867 77.0915 63.2869 77.0916 63.2871C77.0916 63.2873 77.0916 63.2874 77.0917 63.2876C77.0917 63.2878 77.0917 63.288 77.0918 63.2882C77.0918 63.2883 77.0918 63.2885 77.0919 63.2887C77.0919 63.2889 77.0919 63.289 77.0919 63.2892C77.092 63.2894 77.092 63.2896 77.092 63.2898C77.0921 63.2899 77.0921 63.2901 77.0921 63.2903C77.0922 63.2905 77.0922 63.2906 77.0922 63.2908C77.0923 63.291 77.0923 63.2911 77.0923 63.2913C77.0923 63.2915 77.0924 63.2917 77.0924 63.2918C77.0924 63.292 77.0925 63.2922 77.0925 63.2923C77.0925 63.2925 77.0926 63.2927 77.0926 63.2928C77.0926 63.293 77.0926 63.2932 77.0927 63.2933C77.0927 63.2935 77.0927 63.2937 77.0928 63.2938C77.0928 63.294 77.0928 63.2942 77.0928 63.2943C77.0929 63.2945 77.0929 63.2947 77.0929 63.2948C77.093 63.295 77.093 63.2952 77.093 63.2953C77.0931 63.2955 77.0931 63.2956 77.0931 63.2958C77.0931 63.296 77.0932 63.2961 77.0932 63.2963C77.0932 63.2965 77.0932 63.2966 77.0933 63.2968C77.0933 63.2969 77.0933 63.2971 77.0934 63.2973C77.0934 63.2974 77.0934 63.2976 77.0934 63.2977C77.0935 63.2979 77.0935 63.298 77.0935 63.2982C77.0936 63.2983 77.0936 63.2985 77.0936 63.2987C77.0936 63.2988 77.0937 63.299 77.0937 63.2991C77.0937 63.2993 77.0937 63.2994 77.0938 63.2996C77.0938 63.2997 77.0938 63.2999 77.0939 63.3C77.0939 63.3002 77.0939 63.3003 77.0939 63.3005C77.094 63.3006 77.094 63.3008 77.094 63.3009C77.094 63.3011 77.0941 63.3012 77.0941 63.3014C77.0941 63.3015 77.0941 63.3017 77.0942 63.3018C77.0942 63.302 77.0942 63.3021 77.0942 63.3023C77.0943 63.3024 77.0943 63.3026 77.0943 63.3027C77.0943 63.3028 77.0944 63.303 77.0944 63.3031C77.0944 63.3033 77.0944 63.3034 77.0945 63.3036C77.0945 63.3037 77.0945 63.3038 77.0945 63.304C77.0946 63.3041 77.0946 63.3043 77.0946 63.3044C77.0946 63.3046 77.0947 63.3047 77.0947 63.3048C77.0947 63.305 77.0947 63.3051 77.0948 63.3052C77.0948 63.3054 77.0948 63.3055 77.0948 63.3057C77.0949 63.3058 77.0949 63.3059 77.0949 63.3061C77.0949 63.3062 77.095 63.3063 77.095 63.3065C77.095 63.3066 77.095 63.3067 77.0951 63.3069C77.0951 63.307 77.0951 63.3071 77.0951 63.3073C77.0952 63.3074 77.0952 63.3075 77.0952 63.3077C77.0952 63.3078 77.0952 63.3079 77.0953 63.3081C77.0953 63.3082 77.0953 63.3083 77.0953 63.3085C77.0954 63.3086 77.0954 63.3087 77.0954 63.3088C77.0954 63.309 77.0954 63.3091 77.0955 63.3092C77.0955 63.3093 77.0955 63.3095 77.0955 63.3096C77.0956 63.3097 77.0956 63.3099 77.0956 63.31C77.0956 63.3101 77.0956 63.3102 77.0957 63.3103C77.0957 63.3105 77.0957 63.3106 77.0957 63.3107C77.0958 63.3108 77.0958 63.311 77.0958 63.3111C77.0958 63.3112 77.0958 63.3113 77.0959 63.3114C77.0959 63.3116 77.0959 63.3117 77.0959 63.3118C77.0959 63.3119 77.096 63.312 77.096 63.3122C77.096 63.3123 77.096 63.3124 77.0961 63.3125C77.0961 63.3126 77.0961 63.3127 77.0961 63.3129C77.0961 63.313 77.0962 63.3131 77.0962 63.3132C77.0962 63.3133 77.0962 63.3134 77.0962 63.3135C77.0963 63.3137 77.0963 63.3138 77.0963 63.3139C77.0963 63.314 77.0963 63.3141 77.0964 63.3142C77.0964 63.3143 77.0964 63.3144 77.0964 63.3145C77.0964 63.3147 77.0964 63.3148 77.0965 63.3149C77.0965 63.315 77.0965 63.3151 77.0965 63.3152C77.0965 63.3153 77.0966 63.3154 77.0966 63.3155C77.0966 63.3156 77.0966 63.3157 77.0966 63.3158C77.0967 63.3159 77.0967 63.316 77.0967 63.3162C77.0967 63.3163 77.0967 63.3164 77.0967 63.3165C77.0968 63.3166 77.0968 63.3167 77.0968 63.3168C77.0968 63.3169 77.0968 63.317 77.0969 63.3171C77.0969 63.3172 77.0969 63.3173 77.0969 63.3174C77.0969 63.3175 77.0969 63.3176 77.097 63.3177C77.097 63.3178 77.097 63.3179 77.097 63.318C77.097 63.3181 77.097 63.3182 77.0971 63.3183C77.0971 63.3184 77.0971 63.3185 77.0971 63.3186C77.0971 63.3186 77.0972 63.3187 77.0972 63.3188C77.0972 63.3189 77.0972 63.319 77.0972 63.3191C77.0972 63.3192 77.0972 63.3193 77.0973 63.3194C77.0973 63.3195 77.0973 63.3196 77.0973 63.3197C77.0973 63.3198 77.0973 63.3198 77.0974 63.3199C77.0974 63.32 77.0974 63.3201 77.0974 63.3202C77.0974 63.3203 77.0974 63.3204 77.0975 63.3205C77.0975 63.3206 77.0975 63.3206 77.0975 63.3207C77.0975 63.3208 77.0975 63.3209 77.0975 63.321C77.0976 63.3211 77.0976 63.3212 77.0976 63.3212C77.0976 63.3213 77.0976 63.3214 77.0976 63.3215C77.0977 63.3216 77.0977 63.3217 77.0977 63.3217C77.0977 63.3218 77.0977 63.3219 77.0977 63.322C77.0977 63.3221 77.0978 63.3221 77.0978 63.3222C77.0978 63.3223 77.0978 63.3224 77.0978 63.3225C77.0978 63.3225 77.0978 63.3226 77.0978 63.3227C77.0979 63.3228 77.0979 63.3229 77.0979 63.3229C77.0979 63.323 77.0979 63.3231 77.0979 63.3232C77.0979 63.3232 77.098 63.3233 77.098 63.3234C77.098 63.3235 77.098 63.3235 77.098 63.3236C77.098 63.3237 77.098 63.3237 77.098 63.3238C77.0981 63.3239 77.0981 63.324 77.0981 63.324C77.0981 63.3241 77.0981 63.3242 77.0981 63.3242C77.0981 63.3243 77.0981 63.3244 77.0982 63.3244C77.0982 63.3245 77.0982 63.3246 77.0982 63.3247C77.0982 63.3247 77.0982 63.3248 77.0982 63.3249C77.0982 63.3249 77.0983 63.325 77.0983 63.325C77.0983 63.3251 77.0983 63.3252 77.0983 63.3252C77.0983 63.3253 77.0983 63.3254 77.0983 63.3254C77.0983 63.3255 77.0984 63.3256 77.0984 63.3256C77.0984 63.3257 77.0984 63.3257 77.0984 63.3258C77.0984 63.3259 77.0984 63.3259 77.0984 63.326C77.0984 63.326 77.0984 63.3261 77.0985 63.3262C77.0985 63.3262 77.0985 63.3263 77.0985 63.3263C77.0985 63.3264 77.0985 63.3264 77.0985 63.3265C77.0985 63.3266 77.0985 63.3266 77.0985 63.3267C77.0986 63.3267 77.0986 63.3268 77.0986 63.3268C77.0986 63.3269 77.0986 63.3269 77.0986 63.327C77.0986 63.327 77.0986 63.3271 77.0986 63.3272C77.0986 63.3272 77.0987 63.3273 77.0987 63.3273C77.0987 63.3274 77.0987 63.3274 77.0987 63.3275C77.0987 63.3275 77.0987 63.3275 77.0987 63.3276C77.0987 63.3276 77.0987 63.3277 77.0987 63.3277C77.0987 63.3278 77.0988 63.3278 77.0988 63.3279C77.0988 63.3279 77.0988 63.328 77.0988 63.328C77.0988 63.3281 77.0988 63.3281 77.0988 63.3281C77.0988 63.3282 77.0988 63.3282 77.0988 63.3283C77.0988 63.3283 77.0988 63.3284 77.0989 63.3284C77.0989 63.3284 77.0989 63.3285 77.0989 63.3285C77.0989 63.3286 77.0989 63.3286 77.0989 63.3286C77.0989 63.3287 77.0989 63.3287 77.0989 63.3288C77.0989 63.3288 77.0989 63.3288 77.0989 63.3289C77.0989 63.3289 77.099 63.3289 77.099 63.329C77.099 63.329 77.099 63.3291 77.099 63.3291C77.099 63.3291 77.099 63.3292 77.099 63.3292C77.099 63.3292 77.099 63.3293 77.099 63.3293C77.099 63.3293 77.099 63.3294 77.099 63.3294C77.099 63.3294 77.099 63.3295 77.099 63.3295C77.099 63.3295 77.0991 63.3295 77.0991 63.3296C77.0991 63.3296 77.0991 63.3296 77.0991 63.3297C77.0991 63.3297 77.0991 63.3297 77.0991 63.3297C77.0991 63.3298 77.0991 63.3298 77.0991 63.3298C77.0991 63.3298 77.0991 63.3299 77.0991 63.3299C77.0991 63.3299 77.0991 63.3299 77.0991 63.33C77.0991 63.33 77.0991 63.33 77.0991 63.33C77.0991 63.3301 77.0991 63.3301 77.0992 63.3301C77.0992 63.3301 77.0992 63.3301 77.0992 63.3302C77.0992 63.3302 77.0992 63.3302 77.0992 63.3302C77.0992 63.3302 77.0992 63.3303 77.0992 63.3303C77.0992 63.3303 77.0992 63.3303 77.0992 63.3303C77.0992 63.3303 77.0992 63.3304 77.0992 63.3304C77.0992 63.3304 77.0992 63.3304 77.0992 63.3304C77.0992 63.3304 77.0992 63.3305 77.0992 63.3305C77.0992 63.3305 77.0992 63.3305 77.0992 63.3305C77.0992 63.3305 77.0992 63.3305 77.0992 63.3305C77.0992 63.3306 77.0992 63.3306 77.0992 63.3306C77.0992 63.3306 77.0992 63.3306 77.0992 63.3306C77.0992 63.3306 77.0992 63.3306 77.0992 63.3306C77.0992 63.3306 77.0992 63.3306 77.0992 63.3306C77.0993 63.3307 77.0993 63.3307 77.0993 63.3307C77.0993 63.3307 77.0993 63.3307 77.0993 63.3307C77.0993 63.3307 77.0993 63.3307 77.0993 63.3307C77.0993 63.3307 77.0993 63.3307 77.0993 63.3307L77.0993 63.3307C77.0993 63.3307 77.0993 63.3307 84.9777 61.9415C92.8562 60.5523 92.8562 60.5523 92.8562 60.5523L92.8562 60.5523C92.8562 60.5523 92.8562 60.5523 92.8562 60.5523C92.8562 60.5523 92.8562 60.5523 92.8562 60.5523C92.8562 60.5523 92.8562 60.5523 92.8562 60.5523C92.8562 60.5523 92.8562 60.5523 92.8562 60.5523C92.8562 60.5523 92.8562 60.5523 92.8562 60.5523C92.8562 60.5522 92.8562 60.5522 92.8562 60.5522C92.8562 60.5522 92.8562 60.5522 92.8562 60.5522C92.8562 60.5522 92.8562 60.5522 92.8562 60.5522C92.8562 60.5522 92.8562 60.5521 92.8561 60.5521C92.8561 60.5521 92.8561 60.5521 92.8561 60.5521C92.8561 60.5521 92.8561 60.5521 92.8561 60.5521C92.8561 60.552 92.8561 60.552 92.8561 60.552C92.8561 60.552 92.8561 60.552 92.8561 60.552C92.8561 60.5519 92.8561 60.5519 92.8561 60.5519C92.8561 60.5519 92.8561 60.5519 92.8561 60.5519C92.8561 60.5518 92.8561 60.5518 92.8561 60.5518C92.8561 60.5518 92.8561 60.5518 92.8561 60.5517C92.8561 60.5517 92.8561 60.5517 92.8561 60.5517C92.8561 60.5516 92.8561 60.5516 92.8561 60.5516C92.856 60.5516 92.856 60.5515 92.856 60.5515C92.856 60.5515 92.856 60.5515 92.856 60.5515C92.856 60.5514 92.856 60.5514 92.856 60.5514C92.856 60.5513 92.856 60.5513 92.856 60.5513C92.856 60.5513 92.856 60.5512 92.856 60.5512C92.856 60.5512 92.856 60.5511 92.856 60.5511C92.856 60.5511 92.856 60.5511 92.856 60.551C92.8559 60.551 92.8559 60.551 92.8559 60.5509C92.8559 60.5509 92.8559 60.5509 92.8559 60.5508C92.8559 60.5508 92.8559 60.5508 92.8559 60.5507C92.8559 60.5507 92.8559 60.5507 92.8559 60.5506C92.8559 60.5506 92.8559 60.5505 92.8559 60.5505C92.8559 60.5505 92.8558 60.5504 92.8558 60.5504C92.8558 60.5504 92.8558 60.5503 92.8558 60.5503C92.8558 60.5502 92.8558 60.5502 92.8558 60.5502C92.8558 60.5501 92.8558 60.5501 92.8558 60.55C92.8558 60.55 92.8558 60.55 92.8558 60.5499C92.8557 60.5499 92.8557 60.5498 92.8557 60.5498C92.8557 60.5497 92.8557 60.5497 92.8557 60.5496C92.8557 60.5496 92.8557 60.5496 92.8557 60.5495C92.8557 60.5495 92.8557 60.5494 92.8557 60.5494C92.8557 60.5493 92.8556 60.5493 92.8556 60.5492C92.8556 60.5492 92.8556 60.5491 92.8556 60.5491C92.8556 60.549 92.8556 60.549 92.8556 60.5489C92.8556 60.5489 92.8556 60.5488 92.8556 60.5488C92.8555 60.5487 92.8555 60.5487 92.8555 60.5486C92.8555 60.5486 92.8555 60.5485 92.8555 60.5485C92.8555 60.5484 92.8555 60.5484 92.8555 60.5483C92.8555 60.5482 92.8555 60.5482 92.8554 60.5481C92.8554 60.5481 92.8554 60.548 92.8554 60.548C92.8554 60.5479 92.8554 60.5478 92.8554 60.5478C92.8554 60.5477 92.8554 60.5477 92.8554 60.5476C92.8553 60.5476 92.8553 60.5475 92.8553 60.5474C92.8553 60.5474 92.8553 60.5473 92.8553 60.5472C92.8553 60.5472 92.8553 60.5471 92.8553 60.5471C92.8552 60.547 92.8552 60.5469 92.8552 60.5469C92.8552 60.5468 92.8552 60.5467 92.8552 60.5467C92.8552 60.5466 92.8552 60.5465 92.8552 60.5465C92.8551 60.5464 92.8551 60.5463 92.8551 60.5463C92.8551 60.5462 92.8551 60.5461 92.8551 60.5461C92.8551 60.546 92.8551 60.5459 92.855 60.5459C92.855 60.5458 92.855 60.5457 92.855 60.5457C92.855 60.5456 92.855 60.5455 92.855 60.5454C92.855 60.5454 92.8549 60.5453 92.8549 60.5452C92.8549 60.5452 92.8549 60.5451 92.8549 60.545C92.8549 60.5449 92.8549 60.5449 92.8549 60.5448C92.8548 60.5447 92.8548 60.5446 92.8548 60.5446C92.8548 60.5445 92.8548 60.5444 92.8548 60.5443C92.8548 60.5442 92.8547 60.5442 92.8547 60.5441C92.8547 60.544 92.8547 60.5439 92.8547 60.5439C92.8547 60.5438 92.8547 60.5437 92.8546 60.5436C92.8546 60.5435 92.8546 60.5435 92.8546 60.5434C92.8546 60.5433 92.8546 60.5432 92.8546 60.5431C92.8545 60.543 92.8545 60.543 92.8545 60.5429C92.8545 60.5428 92.8545 60.5427 92.8545 60.5426C92.8545 60.5425 92.8544 60.5424 92.8544 60.5424C92.8544 60.5423 92.8544 60.5422 92.8544 60.5421C92.8544 60.542 92.8543 60.5419 92.8543 60.5418C92.8543 60.5417 92.8543 60.5417 92.8543 60.5416C92.8543 60.5415 92.8543 60.5414 92.8542 60.5413C92.8542 60.5412 92.8542 60.5411 92.8542 60.541C92.8542 60.5409 92.8542 60.5408 92.8541 60.5407C92.8541 60.5406 92.8541 60.5406 92.8541 60.5405C92.8541 60.5404 92.8541 60.5403 92.854 60.5402C92.854 60.5401 92.854 60.54 92.854 60.5399C92.854 60.5398 92.854 60.5397 92.8539 60.5396C92.8539 60.5395 92.8539 60.5394 92.8539 60.5393C92.8539 60.5392 92.8539 60.5391 92.8538 60.539C92.8538 60.5389 92.8538 60.5388 92.8538 60.5387C92.8538 60.5386 92.8537 60.5385 92.8537 60.5384C92.8537 60.5383 92.8537 60.5382 92.8537 60.5381C92.8537 60.538 92.8536 60.5379 92.8536 60.5378C92.8536 60.5377 92.8536 60.5376 92.8536 60.5375C92.8535 60.5374 92.8535 60.5373 92.8535 60.5371C92.8535 60.537 92.8535 60.5369 92.8534 60.5368C92.8534 60.5367 92.8534 60.5366 92.8534 60.5365C92.8534 60.5364 92.8534 60.5363 92.8533 60.5362C92.8533 60.5361 92.8533 60.536 92.8533 60.5358C92.8533 60.5357 92.8532 60.5356 92.8532 60.5355C92.8532 60.5354 92.8532 60.5353 92.8532 60.5352C92.8531 60.5351 92.8531 60.5349 92.8531 60.5348C92.8531 60.5347 92.8531 60.5346 92.853 60.5345C92.853 60.5344 92.853 60.5343 92.853 60.5341C92.853 60.534 92.8529 60.5339 92.8529 60.5338C92.8529 60.5337 92.8529 60.5335 92.8529 60.5334C92.8528 60.5333 92.8528 60.5332 92.8528 60.5331C92.8528 60.5329 92.8527 60.5328 92.8527 60.5327C92.8527 60.5326 92.8527 60.5325 92.8527 60.5323C92.8526 60.5322 92.8526 60.5321 92.8526 60.532C92.8526 60.5319 92.8526 60.5317 92.8525 60.5316C92.8525 60.5315 92.8525 60.5314 92.8525 60.5312C92.8524 60.5311 92.8524 60.531 92.8524 60.5308C92.8524 60.5307 92.8524 60.5306 92.8523 60.5305C92.8523 60.5303 92.8523 60.5302 92.8523 60.5301C92.8522 60.53 92.8522 60.5298 92.8522 60.5297C92.8522 60.5296 92.8521 60.5294 92.8521 60.5293C92.8521 60.5292 92.8521 60.529 92.8521 60.5289C92.852 60.5288 92.852 60.5286 92.852 60.5285C92.852 60.5284 92.8519 60.5282 92.8519 60.5281C92.8519 60.528 92.8519 60.5278 92.8518 60.5277C92.8518 60.5276 92.8518 60.5274 92.8518 60.5273C92.8517 60.5272 92.8517 60.527 92.8517 60.5269C92.8517 60.5267 92.8516 60.5266 92.8516 60.5265C92.8516 60.5263 92.8516 60.5262 92.8515 60.526C92.8515 60.5259 92.8515 60.5258 92.8515 60.5256C92.8514 60.5255 92.8514 60.5253 92.8514 60.5252C92.8514 60.5251 92.8513 60.5249 92.8513 60.5248C92.8513 60.5246 92.8513 60.5245 92.8512 60.5243C92.8512 60.5242 92.8512 60.524 92.8512 60.5239C92.8511 60.5237 92.8511 60.5236 92.8511 60.5235C92.8511 60.5233 92.851 60.5232 92.851 60.523C92.851 60.5229 92.851 60.5227 92.8509 60.5226C92.8509 60.5224 92.8509 60.5223 92.8509 60.5221C92.8508 60.522 92.8508 60.5218 92.8508 60.5217C92.8507 60.5215 92.8507 60.5214 92.8507 60.5212C92.8507 60.5211 92.8506 60.5209 92.8506 60.5208C92.8506 60.5206 92.8506 60.5204 92.8505 60.5203C92.8505 60.5201 92.8505 60.52 92.8505 60.5198C92.8504 60.5197 92.8504 60.5195 92.8504 60.5194C92.8503 60.5192 92.8503 60.519 92.8503 60.5189C92.8503 60.5187 92.8502 60.5186 92.8502 60.5184C92.8502 60.5182 92.8501 60.5181 92.8501 60.5179C92.8501 60.5178 92.8501 60.5176 92.85 60.5174C92.85 60.5173 92.85 60.5171 92.8499 60.517C92.8499 60.5168 92.8499 60.5166 92.8499 60.5165C92.8498 60.5163 92.8498 60.5161 92.8498 60.516C92.8497 60.5158 92.8497 60.5156 92.8497 60.5155C92.8497 60.5153 92.8496 60.5151 92.8496 60.515C92.8496 60.5148 92.8495 60.5146 92.8495 60.5145C92.8495 60.5143 92.8494 60.5141 92.8494 60.514C92.8494 60.5138 92.8494 60.5136 92.8493 60.5135C92.8493 60.5133 92.8493 60.5131 92.8492 60.5129C92.8492 60.5128 92.8492 60.5126 92.8491 60.5124C92.8491 60.5123 92.8491 60.5121 92.8491 60.5119C92.849 60.5117 92.849 60.5116 92.849 60.5114C92.8489 60.5112 92.8489 60.511 92.8489 60.5109C92.8488 60.5107 92.8488 60.5105 92.8488 60.5103C92.8487 60.5101 92.8487 60.51 92.8487 60.5098C92.8487 60.5096 92.8486 60.5094 92.8486 60.5093C92.8486 60.5091 92.8485 60.5089 92.8485 60.5087C92.8485 60.5085 92.8484 60.5084 92.8484 60.5082C92.8484 60.508 92.8483 60.5078 92.8483 60.5076C92.8483 60.5074 92.8482 60.5073 92.8482 60.5071C92.8482 60.5069 92.8481 60.5067 92.8481 60.5065C92.8481 60.5063 92.848 60.5061 92.848 60.506C92.848 60.5058 92.8479 60.5056 92.8479 60.5054C92.8479 60.5052 92.8478 60.505 92.8478 60.5048C92.8478 60.5046 92.8477 60.5045 92.8477 60.5043C92.8477 60.5041 92.8476 60.5039 92.8476 60.5037C92.8476 60.5035 92.8475 60.5033 92.8475 60.5031C92.8475 60.5029 92.8474 60.5027 92.8474 60.5025C92.8474 60.5024 92.8473 60.5022 92.8473 60.502C92.8473 60.5018 92.8472 60.5016 92.8472 60.5014C92.8472 60.5012 92.8471 60.501 92.8471 60.5008C92.8471 60.5006 92.847 60.5004 92.847 60.5002C92.847 60.5 92.8469 60.4998 92.8469 60.4996C92.8469 60.4994 92.8468 60.4992 92.8468 60.499C92.8467 60.4988 92.8467 60.4986 92.8467 60.4984C92.8466 60.4982 92.8466 60.498 92.8466 60.4978C92.8465 60.4976 92.8465 60.4974 92.8465 60.4972C92.8464 60.497 92.8464 60.4968 92.8464 60.4966C92.8463 60.4964 92.8463 60.4962 92.8462 60.496C92.8462 60.4958 92.8462 60.4956 92.8461 60.4954C92.8461 60.4952 92.8461 60.4949 92.846 60.4947C92.846 60.4945 92.846 60.4943 92.8459 60.4941C92.8459 60.4939 92.8458 60.4937 92.8458 60.4935C92.8458 60.4933 92.8457 60.4931 92.8457 60.4929C92.8457 60.4926 92.8456 60.4924 92.8456 60.4922C92.8455 60.492 92.8455 60.4918 92.8455 60.4916C92.8454 60.4914 92.8454 60.4912 92.8454 60.4909C92.8453 60.4907 92.8453 60.4905 92.8452 60.4903C92.8452 60.4901 92.8452 60.4899 92.8451 60.4896C92.8451 60.4894 92.8451 60.4892 92.845 60.489C92.845 60.4888 92.8449 60.4886 92.8449 60.4883C92.8449 60.4881 92.8448 60.4879 92.8448 60.4877C92.8447 60.4875 92.8447 60.4872 92.8447 60.487C92.8446 60.4868 92.8446 60.4866 92.8446 60.4864C92.8445 60.4861 92.8445 60.4859 92.8444 60.4857C92.8444 60.4855 92.8444 60.4852 92.8443 60.485C92.8443 60.4848 92.8442 60.4846 92.8442 60.4843C92.8442 60.4841 92.8441 60.4839 92.8441 60.4837C92.844 60.4834 92.844 60.4832 92.844 60.483C92.8439 60.4828 92.8439 60.4825 92.8438 60.4823C92.8438 60.4821 92.8438 60.4818 92.8437 60.4816C92.8437 60.4814 92.8436 60.4812 92.8436 60.4809C92.8436 60.4807 92.8435 60.4805 92.8435 60.4802C92.8434 60.48 92.8434 60.4798 92.8433 60.4795C92.8433 60.4793 92.8433 60.4791 92.8432 60.4788C92.8432 60.4786 92.8431 60.4784 92.8431 60.4781C92.8431 60.4779 92.843 60.4776 92.843 60.4774C92.8429 60.4772 92.8429 60.4769 92.8428 60.4767C92.8428 60.4765 92.8428 60.4762 92.8427 60.476C92.8427 60.4757 92.8426 60.4755 92.8426 60.4753C92.8426 60.475 92.8425 60.4748 92.8425 60.4745C92.8424 60.4743 92.8424 60.4741 92.8423 60.4738C92.8423 60.4736 92.8423 60.4733 92.8422 60.4731C92.8422 60.4728 92.8421 60.4726 92.8421 60.4724C92.842 60.4721 92.842 60.4719 92.842 60.4716C92.8419 60.4714 92.8419 60.4711 92.8418 60.4709C92.8418 60.4706 92.8417 60.4704 92.8417 60.4701C92.8416 60.4699 92.8416 60.4696 92.8416 60.4694C92.8415 60.4691 92.8415 60.4689 92.8414 60.4686C92.8414 60.4684 92.8413 60.4681 92.8413 60.4679C92.8413 60.4676 92.8412 60.4674 92.8412 60.4671C92.8411 60.4669 92.8411 60.4666 92.841 60.4664C92.841 60.4661 92.8409 60.4659 92.8409 60.4656C92.8408 60.4654 92.8408 60.4651 92.8408 60.4648C92.8407 60.4646 92.8407 60.4643 92.8406 60.4641C92.8406 60.4638 92.8405 60.4636 92.8405 60.4633C92.8404 60.4631 92.8404 60.4628 92.8403 60.4625C92.8403 60.4623 92.8403 60.462 92.8402 60.4618C92.8402 60.4615 92.8401 60.4612 92.8401 60.461C92.84 60.4607 92.84 60.4604 92.8399 60.4602C92.8399 60.4599 92.8398 60.4597 92.8398 60.4594C92.8397 60.4591 92.8397 60.4589 92.8397 60.4586C92.8396 60.4583 92.8396 60.4581 92.8395 60.4578C92.8395 60.4575 92.8394 60.4573 92.8394 60.457C92.8393 60.4567 92.8393 60.4565 92.8392 60.4562C92.8392 60.4559 92.8391 60.4557 92.8391 60.4554C92.839 60.4551 92.839 60.4549 92.8389 60.4546C92.8389 60.4543 92.8389 60.454 92.8388 60.4538C92.8388 60.4535 92.8387 60.4532 92.8387 60.453C92.8386 60.4527 92.8386 60.4524 92.8385 60.4521C92.8385 60.4519 92.8384 60.4516 92.8384 60.4513C92.8383 60.451 92.8383 60.4508 92.8382 60.4505C92.8382 60.4502 92.8381 60.4499 92.8381 60.4497C92.838 60.4494 92.838 60.4491 92.8379 60.4488C92.8379 60.4485 92.8378 60.4483 92.8378 60.448C92.8377 60.4477 92.8377 60.4474 92.8376 60.4472C92.8376 60.4469 92.8375 60.4466 92.8375 60.4463C92.8374 60.446 92.8374 60.4457 92.8373 60.4455C92.8373 60.4452 92.8372 60.4449 92.8372 60.4446C92.8371 60.4443 92.8371 60.444 92.837 60.4438C92.837 60.4435 92.8369 60.4432 92.8369 60.4429C92.8368 60.4426 92.8368 60.4423 92.8367 60.442C92.8367 60.4418 92.8366 60.4415 92.8366 60.4412C92.8365 60.4409 92.8365 60.4406 92.8364 60.4403C92.8364 60.44 92.8363 60.4397 92.8363 60.4394C92.8362 60.4391 92.8362 60.4389 92.8361 60.4386C92.8361 60.4383 92.836 60.438 92.836 60.4377C92.8359 60.4374 92.8359 60.4371 92.8358 60.4368C92.8358 60.4365 92.8357 60.4362 92.8357 60.4359C92.8356 60.4356 92.8356 60.4353 92.8355 60.435C92.8354 60.4347 92.8354 60.4344 92.8353 60.4341C92.8353 60.4339 92.8352 60.4336 92.8352 60.4333C92.8351 60.433 92.8351 60.4327 92.835 60.4324C92.835 60.4321 92.8349 60.4318 92.8349 60.4315C92.8348 60.4312 92.8348 60.4309 92.8347 60.4306C92.8347 60.4303 92.8346 60.4299 92.8346 60.4296C92.8345 60.4293 92.8344 60.429 92.8344 60.4287C92.8343 60.4284 92.8343 60.4281 92.8342 60.4278C92.8342 60.4275 92.8341 60.4272 92.8341 60.4269C92.834 60.4266 92.834 60.4263 92.8339 60.426C92.8339 60.4257 92.8338 60.4254 92.8337 60.4251C92.8337 60.4248 92.8336 60.4244 92.8336 60.4241C92.8335 60.4238 92.8335 60.4235 92.8334 60.4232C92.8334 60.4229 92.8333 60.4226 92.8332 60.4223C92.8332 60.422 92.8331 60.4216 92.8331 60.4213C92.833 60.421 92.833 60.4207 92.8329 60.4204C92.8329 60.4201 92.8328 60.4198 92.8328 60.4194C92.8327 60.4191 92.8326 60.4188 92.8326 60.4185C92.8325 60.4182 92.8325 60.4179 92.8324 60.4175C92.8324 60.4172 92.8323 60.4169 92.8322 60.4166C92.8322 60.4163 92.8321 60.416 92.8321 60.4156C92.832 60.4153 92.832 60.415 92.8319 60.4147C92.8319 60.4144 92.8318 60.414 92.8317 60.4137C92.8317 60.4134 92.8316 60.4131 92.8316 60.4127C92.8315 60.4124 92.8315 60.4121 92.8314 60.4118C92.8313 60.4114 92.8313 60.4111 92.8312 60.4108C92.8312 60.4105 92.8311 60.4101 92.8311 60.4098C92.831 60.4095 92.8309 60.4092 92.8309 60.4088C92.8308 60.4085 92.8308 60.4082 92.8307 60.4079C92.8307 60.4075 92.8306 60.4072 92.8305 60.4069C92.8305 60.4065 92.8304 60.4062 92.8304 60.4059C92.8303 60.4055 92.8302 60.4052 92.8302 60.4049C92.8301 60.4045 92.8301 60.4042 92.83 60.4039C92.8299 60.4035 92.8299 60.4032 92.8298 60.4029C92.8298 60.4025 92.8297 60.4022 92.8297 60.4019C92.8296 60.4015 92.8295 60.4012 92.8295 60.4009C92.8294 60.4005 92.8294 60.4002 92.8293 60.3999C92.8292 60.3995 92.8292 60.3992 92.8291 60.3988C92.8291 60.3985 92.829 60.3982 92.8289 60.3978C92.8289 60.3975 92.8288 60.3971 92.8288 60.3968C92.8287 60.3965 92.8286 60.3961 92.8286 60.3958C92.8285 60.3954 92.8285 60.3951 92.8284 60.3947C92.8283 60.3944 92.8283 60.3941 92.8282 60.3937C92.8282 60.3934 92.8281 60.393 92.828 60.3927C92.828 60.3923 92.8279 60.392 92.8278 60.3916C92.8278 60.3913 92.8277 60.3909 92.8277 60.3906C92.8276 60.3903 92.8275 60.3899 92.8275 60.3896C92.8274 60.3892 92.8274 60.3889 92.8273 60.3885C92.8272 60.3882 92.8272 60.3878 92.8271 60.3875C92.827 60.3871 92.827 60.3868 92.8269 60.3864C92.8269 60.386 92.8268 60.3857 92.8267 60.3853C92.8267 60.385 92.8266 60.3846 92.8266 60.3843C92.8265 60.3839 92.8264 60.3836 92.8264 60.3832C92.8263 60.3829 92.8262 60.3825 92.8262 60.3821C92.8261 60.3818 92.826 60.3814 92.826 60.3811C92.8259 60.3807 92.8259 60.3804 92.8258 60.38C92.8257 60.3796 92.8257 60.3793 92.8256 60.3789C92.8255 60.3786 92.8255 60.3782 92.8254 60.3778C92.8254 60.3775 92.8253 60.3771 92.8252 60.3768C92.8252 60.3764 92.8251 60.376 92.825 60.3757C92.825 60.3753 92.8249 60.3749 92.8248 60.3746C92.8248 60.3742 92.8247 60.3738 92.8246 60.3735C92.8246 60.3731 92.8245 60.3727 92.8245 60.3724C92.8244 60.372 92.8243 60.3716 92.8243 60.3713C92.8242 60.3709 92.8241 60.3705 92.8241 60.3702C92.824 60.3698 92.8239 60.3694 92.8239 60.3691C92.8238 60.3687 92.8237 60.3683 92.8237 60.3679C92.8236 60.3676 92.8235 60.3672 92.8235 60.3668C92.8234 60.3665 92.8233 60.3661 92.8233 60.3657C92.8232 60.3653 92.8231 60.365 92.8231 60.3646C92.823 60.3642 92.8229 60.3638 92.8229 60.3635C92.8228 60.3631 92.8227 60.3627 92.8227 60.3623C92.8226 60.362 92.8225 60.3616 92.8225 60.3612C92.8224 60.3608 92.8223 60.3604 92.8223 60.3601C92.8222 60.3597 92.8221 60.3593 92.8221 60.3589C92.822 60.3585 92.8219 60.3582 92.8219 60.3578C92.8218 60.3574 92.8217 60.357 92.8217 60.3566C92.8216 60.3563 92.8215 60.3559 92.8215 60.3555C92.8214 60.3551 92.8213 60.3547 92.8213 60.3543C92.8212 60.3539 92.8211 60.3536 92.8211 60.3532C92.821 60.3528 92.8209 60.3524 92.8209 60.352C92.8208 60.3516 92.8207 60.3512 92.8207 60.3509C92.8206 60.3505 92.8205 60.3501 92.8205 60.3497C92.8204 60.3493 92.8203 60.3489 92.8202 60.3485C92.8202 60.3481 92.8201 60.3477 92.82 60.3473C92.82 60.347 92.8199 60.3466 92.8198 60.3462C92.8198 60.3458 92.8197 60.3454 92.8196 60.345C92.8196 60.3446 92.8195 60.3442 92.8194 60.3438C92.8193 60.3434 92.8193 60.343 92.8192 60.3426C92.8191 60.3422 92.8191 60.3418 92.819 60.3414C92.8189 60.341 92.8189 60.3406 92.8188 60.3402C92.8187 60.3398 92.8186 60.3394 92.8186 60.339C92.8185 60.3386 92.8184 60.3382 92.8184 60.3378C92.8183 60.3374 92.8182 60.337 92.8182 60.3366C92.8181 60.3362 92.818 60.3358 92.8179 60.3354C92.8179 60.335 92.8178 60.3346 92.8177 60.3342C92.8177 60.3338 92.8176 60.3334 92.8175 60.333C92.8174 60.3326 92.8174 60.3322 92.8173 60.3318C92.8172 60.3314 92.8172 60.331 92.8171 60.3306C92.817 60.3302 92.8169 60.3298 92.8169 60.3293C92.8168 60.3289 92.8167 60.3285 92.8166 60.3281C92.8166 60.3277 92.8165 60.3273 92.8164 60.3269C92.8164 60.3265 92.8163 60.3261 92.8162 60.3257C92.8161 60.3252 92.8161 60.3248 92.816 60.3244C92.8159 60.324 92.8159 60.3236 92.8158 60.3232C92.8157 60.3228 92.8156 60.3223 92.8156 60.3219C92.8155 60.3215 92.8154 60.3211 92.8153 60.3207C92.8153 60.3203 92.8152 60.3199 92.8151 60.3194C92.815 60.319 92.815 60.3186 92.8149 60.3182C92.8148 60.3178 92.8147 60.3173 92.8147 60.3169C92.8146 60.3165 92.8145 60.3161 92.8145 60.3157C92.8144 60.3152 92.8143 60.3148 92.8142 60.3144C92.8142 60.314 92.8141 60.3136 92.814 60.3131C92.8139 60.3127 92.8139 60.3123 92.8138 60.3119C92.8137 60.3114 92.8136 60.311 92.8136 60.3106C92.8135 60.3102 92.8134 60.3097 92.8133 60.3093C92.8133 60.3089 92.8132 60.3085 92.8131 60.308C92.813 60.3076 92.813 60.3072 92.8129 60.3067C92.8128 60.3063 92.8127 60.3059 92.8127 60.3055C92.8126 60.305 92.8125 60.3046 92.8124 60.3042C92.8123 60.3037 92.8123 60.3033 92.8122 60.3029C92.8121 60.3024 92.812 60.302 92.812 60.3016C92.8119 60.3011 92.8118 60.3007 92.8117 60.3003C92.8117 60.2998 92.8116 60.2994 92.8115 60.299C92.8114 60.2985 92.8114 60.2981 92.8113 60.2977C92.8112 60.2972 92.8111 60.2968 92.811 60.2964C92.811 60.2959 92.8109 60.2955 92.8108 60.295C92.8107 60.2946 92.8107 60.2942 92.8106 60.2937C92.8105 60.2933 92.8104 60.2928 92.8103 60.2924C92.8103 60.292 92.8102 60.2915 92.8101 60.2911C92.81 60.2906 92.81 60.2902 92.8099 60.2897C92.8098 60.2893 92.8097 60.2889 92.8096 60.2884C92.8096 60.288 92.8095 60.2875 92.8094 60.2871C92.8093 60.2866 92.8093 60.2862 92.8092 60.2857C92.8091 60.2853 92.809 60.2848 92.8089 60.2844C92.8089 60.284 92.8088 60.2835 92.8087 60.2831C92.8086 60.2826 92.8085 60.2822 92.8085 60.2817C92.8084 60.2813 92.8083 60.2808 92.8082 60.2804C92.8081 60.2799 92.8081 60.2795 92.808 60.279C92.8079 60.2785 92.8078 60.2781 92.8077 60.2776C92.8077 60.2772 92.8076 60.2767 92.8075 60.2763C92.8074 60.2758 92.8073 60.2754 92.8073 60.2749C92.8072 60.2745 92.8071 60.274 92.807 60.2735C92.8069 60.2731 92.8069 60.2726 92.8068 60.2722C92.8067 60.2717 92.8066 60.2713 92.8065 60.2708C92.8065 60.2703 92.8064 60.2699 92.8063 60.2694C92.8062 60.269 92.8061 60.2685 92.8061 60.268C92.806 60.2676 92.8059 60.2671 92.8058 60.2667C92.8057 60.2662 92.8056 60.2657 92.8056 60.2653C92.8055 60.2648 92.8054 60.2643 92.8053 60.2639C92.8052 60.2634 92.8052 60.2629 92.8051 60.2625C92.805 60.262 92.8049 60.2615 92.8048 60.2611C92.8047 60.2606 92.8047 60.2601 92.8046 60.2597C92.8045 60.2592 92.8044 60.2587 92.8043 60.2583C92.8043 60.2578 92.8042 60.2573 92.8041 60.2569C92.804 60.2564 92.8039 60.2559 92.8038 60.2555C92.8038 60.255 92.8037 60.2545 92.8036 60.254C92.8035 60.2536 92.8034 60.2531 92.8033 60.2526C92.8033 60.2521 92.8032 60.2517 92.8031 60.2512C92.803 60.2507 92.8029 60.2502 92.8028 60.2498C92.8027 60.2493 92.8027 60.2488 92.8026 60.2483C92.8025 60.2479 92.8024 60.2474 92.8023 60.2469C92.8022 60.2464 92.8022 60.246 92.8021 60.2455C92.802 60.245 92.8019 60.2445 92.8018 60.244C92.8017 60.2436 92.8017 60.2431 92.8016 60.2426C92.8015 60.2421 92.8014 60.2416 92.8013 60.2411C92.8012 60.2407 92.8011 60.2402 92.8011 60.2397C92.801 60.2392 92.8009 60.2387 92.8008 60.2382C92.8007 60.2378 92.8006 60.2373 92.8005 60.2368C92.8005 60.2363 92.8004 60.2358 92.8003 60.2353C92.8002 60.2348 92.8001 60.2344 92.8 60.2339C92.7999 60.2334 92.7999 60.2329 92.7998 60.2324C92.7997 60.2319 92.7996 60.2314 92.7995 60.2309C92.7994 60.2304 92.7993 60.23 92.7993 60.2295C92.7992 60.229 92.7991 60.2285 92.799 60.228C92.7989 60.2275 92.7988 60.227 92.7987 60.2265C92.7986 60.226 92.7986 60.2255 92.7985 60.225C92.7984 60.2245 92.7983 60.224 92.7982 60.2235C92.7981 60.223 92.798 60.2225 92.7979 60.222C92.7979 60.2216 92.7978 60.2211 92.7977 60.2206C92.7976 60.2201 92.7975 60.2196 92.7974 60.2191C92.7973 60.2186 92.7972 60.2181 92.7972 60.2176C92.7971 60.2171 92.797 60.2166 92.7969 60.2161C92.7968 60.2156 92.7967 60.2151 92.7966 60.2145C92.7965 60.214 92.7964 60.2135 92.7964 60.213C92.7963 60.2125 92.7962 60.212 92.7961 60.2115C92.796 60.211 92.7959 60.2105 92.7958 60.21C92.7957 60.2095 92.7956 60.209 92.7956 60.2085C92.7955 60.208 92.7954 60.2075 92.7953 60.207C92.7952 60.2065 92.7951 60.206 92.795 60.2054C92.7949 60.2049 92.7948 60.2044 92.7947 60.2039C92.7947 60.2034 92.7946 60.2029 92.7945 60.2024C92.7944 60.2019 92.7943 60.2014 92.7942 60.2008C92.7941 60.2003 92.794 60.1998 92.7939 60.1993C92.7938 60.1988 92.7938 60.1983 92.7937 60.1978C92.7936 60.1972 92.7935 60.1967 92.7934 60.1962C92.7933 60.1957 92.7932 60.1952 92.7931 60.1947C92.793 60.1941 92.7929 60.1936 92.7928 60.1931C92.7928 60.1926 92.7927 60.1921 92.7926 60.1916C92.7925 60.191 92.7924 60.1905 92.7923 60.19C92.7922 60.1895 92.7921 60.189 92.792 60.1884C92.7919 60.1879 92.7918 60.1874 92.7917 60.1869C92.7916 60.1863 92.7916 60.1858 92.7915 60.1853C92.7914 60.1848 92.7913 60.1842 92.7912 60.1837C92.7911 60.1832 92.791 60.1827 92.7909 60.1821C92.7908 60.1816 92.7907 60.1811 92.7906 60.1806C92.7905 60.18 92.7904 60.1795 92.7904 60.179C92.7903 60.1784 92.7902 60.1779 92.7901 60.1774C92.79 60.1769 92.7899 60.1763 92.7898 60.1758C92.7897 60.1753 92.7896 60.1747 92.7895 60.1742C92.7894 60.1737 92.7893 60.1731 92.7892 60.1726C92.7891 60.1721 92.789 60.1715 92.7889 60.171C92.7889 60.1705 92.7888 60.1699 92.7887 60.1694C92.7886 60.1689 92.7885 60.1683 92.7884 60.1678C92.7883 60.1673 92.7882 60.1667 92.7881 60.1662C92.788 60.1656 92.7879 60.1651 92.7878 60.1646C92.7877 60.164 92.7876 60.1635 92.7875 60.163C92.7874 60.1624 92.7873 60.1619 92.7872 60.1613C92.7871 60.1608 92.787 60.1602 92.787 60.1597C92.7869 60.1592 92.7868 60.1586 92.7867 60.1581C92.7866 60.1575 92.7865 60.157 92.7864 60.1565C92.7863 60.1559 92.7862 60.1554 92.7861 60.1548C92.786 60.1543 92.7859 60.1537 92.7858 60.1532C92.7857 60.1526 92.7856 60.1521 92.7855 60.1515C92.7854 60.151 92.7853 60.1504 92.7852 60.1499C92.7851 60.1493 92.785 60.1488 92.7849 60.1482C92.7848 60.1477 92.7847 60.1471 92.7846 60.1466C92.7845 60.146 92.7844 60.1455 92.7843 60.1449C92.7843 60.1444 92.7842 60.1438 92.7841 60.1433C92.784 60.1427 92.7839 60.1422 92.7838 60.1416C92.7837 60.1411 92.7836 60.1405 92.7835 60.14C92.7834 60.1394 92.7833 60.1388 92.7832 60.1383C92.7831 60.1377 92.783 60.1372 92.7829 60.1366C92.7828 60.1361 92.7827 60.1355 92.7826 60.1349C92.7825 60.1344 92.7824 60.1338 92.7823 60.1333C92.7822 60.1327 92.7821 60.1321 92.782 60.1316C92.7819 60.131 92.7818 60.1305 92.7817 60.1299C92.7816 60.1293 92.7815 60.1288 92.7814 60.1282C92.7813 60.1276 92.7812 60.1271 92.7811 60.1265C92.781 60.126 92.7809 60.1254 92.7808 60.1248C92.7807 60.1243 92.7806 60.1237 92.7805 60.1231C92.7804 60.1226 92.7803 60.122 92.7802 60.1214C92.7801 60.1209 92.78 60.1203 92.7799 60.1197C92.7798 60.1192 92.7797 60.1186 92.7796 60.118C92.7795 60.1174 92.7794 60.1169 92.7793 60.1163C92.7792 60.1157 92.7791 60.1152 92.779 60.1146C92.7789 60.114 92.7788 60.1134 92.7787 60.1129C92.7786 60.1123 92.7785 60.1117 92.7784 60.1111L77.0215 62.8895ZM77.0993 63.3307C77.6634 66.53 78.5197 69.6639 79.9402 72.2873L94.01 64.6687C93.7601 64.2073 93.2849 62.9835 92.8562 60.5523L77.0993 63.3307ZM79.9705 72.3425C81.1542 74.4882 82.9222 76.8985 85.6223 78.4804L93.7103 64.6752C94.124 64.9175 94.3094 65.1331 94.3097 65.1336C94.3131 65.1375 94.2821 65.1021 94.222 65.0137C94.162 64.9257 94.08 64.7952 93.9798 64.6134L79.9705 72.3425ZM85.8294 78.5976C88.0212 79.7956 90.779 80.5448 93.8174 80.009L91.039 64.2521C91.6243 64.1489 92.178 64.171 92.646 64.2646C93.0962 64.3547 93.3865 64.4941 93.5031 64.5579L85.8294 78.5976ZM93.8174 80.009C97.4802 79.3632 100.354 77.2837 102.296 74.51L89.1897 65.3328C89.2509 65.2455 89.4483 64.9969 89.8287 64.7434C90.223 64.4806 90.6535 64.3201 91.039 64.2521L93.8174 80.009ZM102.385 74.3807C104.318 71.5017 105.165 68.0701 104.53 64.4727L88.7734 67.2511C88.7245 66.9741 88.7169 66.6018 88.8068 66.2004C88.8947 65.808 89.0375 65.5567 89.101 65.4621L102.385 74.3807ZM104.53 64.4727C103.785 60.2462 101.212 57.134 97.9845 55.1707L89.6701 68.8408C89.7302 68.8773 89.5292 68.7669 89.2807 68.4277C89.014 68.0636 88.8416 67.6379 88.7734 67.2511L104.53 64.4727ZM98.0885 55.2351C96.1566 54.0193 93.8783 52.8213 91.3277 51.6324L84.5679 66.1342C86.7378 67.1457 88.3791 68.0294 89.5662 68.7765L98.0885 55.2351ZM91.5635 51.747C90.3382 51.1262 88.9959 50.4109 87.5337 49.5972L79.7539 63.5784C81.3661 64.4756 82.8931 65.2905 84.3321 66.0196L91.5635 51.747ZM87.7707 49.7344C86.9861 49.262 86.2663 48.666 85.6013 47.9125L73.605 58.4997C75.3223 60.4455 77.2962 62.104 79.5169 63.4412L87.7707 49.7344ZM85.665 47.9856C85.5483 47.85 85.2896 47.4937 85.1282 46.578L69.3712 49.3564C69.9507 52.6425 71.261 55.7788 73.5413 58.4266L85.665 47.9856ZM85.1282 46.578C84.965 45.6527 85.0749 45.1176 85.2104 44.7641L70.2695 39.0397C68.9807 42.4033 68.7638 45.9117 69.3712 49.3564L85.1282 46.578ZM85.1571 44.8995C85.4817 44.0962 85.9569 43.3806 86.6513 42.7095L75.5329 31.2038C73.266 33.3945 71.5063 35.9757 70.3227 38.9044L85.1571 44.8995ZM86.6825 42.6793C87.5906 41.7921 88.6116 41.0685 89.7744 40.4948L82.6952 26.1461C80.0317 27.4601 77.6243 29.1607 75.5018 31.2341L86.6825 42.6793ZM89.8693 40.4472C91.1578 39.79 92.3868 39.3843 93.571 39.1755L90.7926 23.4185C87.943 23.921 85.2073 24.8642 82.6003 26.1937L89.8693 40.4472ZM93.571 39.1755C95.275 38.875 96.0492 39.032 96.2258 39.0845L100.787 23.7485C97.4891 22.7674 94.0468 22.8447 90.7926 23.4185L93.571 39.1755ZM96.2258 39.0845C96.5444 39.1792 96.7059 39.2647 96.7616 39.2978C96.8105 39.3268 96.7842 39.3185 96.7312 39.2604L108.556 28.4824C106.378 26.0923 103.645 24.5984 100.787 23.7485L96.2258 39.0845ZM96.7312 39.2604C96.8061 39.3426 96.7944 39.3487 96.7552 39.272C96.7365 39.2353 96.7153 39.187 96.6958 39.129C96.6763 39.0709 96.6616 39.0124 96.6519 38.9571L112.409 36.1788C111.88 33.181 110.482 30.5953 108.556 28.4824L96.7312 39.2604ZM96.6519 38.9571C96.6298 38.8318 96.6269 38.7022 96.6392 38.5916C96.651 38.4856 96.6702 38.4544 96.6481 38.5112L111.559 44.3138C112.546 41.7765 112.908 39.0124 112.409 36.1788L96.6519 38.9571ZM96.6175 38.5911C96.6413 38.5279 96.6689 38.4694 96.6977 38.418C96.7263 38.3669 96.7515 38.3308 96.7675 38.31C96.8003 38.2672 96.7789 38.308 96.6441 38.4133L106.49 51.025C108.685 49.3117 110.523 47.063 111.589 44.2338L96.6175 38.5911ZM96.6441 38.4133C96.718 38.3556 96.4449 38.6037 95.3877 38.7901L98.166 54.5471C101.059 54.037 103.979 52.9855 106.49 51.025L96.6441 38.4133ZM104.772 46.961C104.802 46.1179 104.796 45.2455 104.723 44.3783L88.7793 45.7186C88.7853 45.7906 88.796 45.9983 88.7822 46.3762L104.772 46.961ZM104.718 44.3183C104.657 43.6544 104.575 42.9797 104.459 42.3246L88.7023 45.1029C88.7202 45.2041 88.7516 45.4192 88.7845 45.7786L104.718 44.3183ZM104.459 42.3246C103.943 39.3989 102.619 35.3423 98.8401 32.8252L89.9701 46.1414C89.1502 45.5952 88.768 44.9789 88.6447 44.7392C88.5383 44.5323 88.6117 44.5889 88.7023 45.1029L104.459 42.3246ZM99.1448 33.0385C96.6632 31.2134 93.422 30.1035 89.8091 30.7405L92.5875 46.4975C91.9819 46.6043 91.3372 46.5766 90.7375 46.415C90.1648 46.2606 89.8066 46.0319 89.6654 45.928L99.1448 33.0385ZM89.8091 30.7405C86.5891 31.3083 84.0842 33.062 82.2955 35.1607L94.4728 45.5392C94.4251 45.5952 94.2441 45.7921 93.8983 46.0048C93.537 46.227 93.0874 46.4093 92.5875 46.4975L89.8091 30.7405ZM82.4346 35.0018C79.364 38.4177 79.1629 42.6009 79.7117 45.7134L95.4687 42.935C95.4409 42.7779 95.5163 43.0528 95.4058 43.6058C95.2814 44.2286 94.9568 45.0049 94.3337 45.6982L82.4346 35.0018ZM79.7117 45.7134C80.2211 48.6022 81.5064 51.3933 83.8096 53.6366L94.9734 42.1751C95.1502 42.3472 95.2897 42.5445 95.382 42.7282C95.47 42.903 95.4788 42.9924 95.4687 42.935L79.7117 45.7134ZM83.9595 53.779C85.6782 55.3685 87.6403 56.5913 89.7502 57.497L96.0614 42.7943C95.4528 42.533 95.072 42.2626 94.8235 42.0327L83.9595 53.779ZM89.8641 57.5448C91.4353 58.1907 93.0594 58.795 94.7347 59.3592L99.8408 44.1958C98.4762 43.7363 97.179 43.2527 95.9476 42.7465L89.8641 57.5448ZM94.8293 59.3904C96.0645 59.7893 97.2546 60.2611 98.4024 60.8052L105.256 46.3473C103.472 45.5019 101.635 44.7746 99.7463 44.1646L94.8293 59.3904ZM98.668 60.9252C99.3378 61.2133 99.8063 61.543 100.159 61.8845L111.292 50.3926C109.45 48.6083 107.321 47.2297 104.99 46.2273L98.668 60.9252ZM100.159 61.8846C100.086 61.814 100.025 61.7421 99.9779 61.676C99.9308 61.6104 99.9048 61.5619 99.8946 61.5408C99.8746 61.5001 99.9285 61.594 99.9817 61.8954L115.739 59.117C115.188 55.9948 113.853 52.8742 111.292 50.3926L100.159 61.8846ZM99.9817 61.8954C100.058 62.3301 100.056 62.9095 99.7484 63.7724L114.821 69.1408C115.962 65.9355 116.344 62.548 115.739 59.117L99.9817 61.8954ZM99.7754 63.6976C99.4232 64.6563 98.8344 65.6727 97.8783 66.747L109.831 77.3838C111.984 74.9637 113.682 72.2409 114.794 69.2155L99.7754 63.6976ZM97.9559 66.6611C97.0078 67.696 95.7969 68.6707 94.2457 69.5539L102.162 83.4584C105.02 81.8309 107.577 79.8452 109.753 77.4697L97.9559 66.6611ZM94.2058 69.5767C92.8845 70.3391 91.4098 70.8804 89.7256 71.1774L92.504 86.9343C95.9461 86.3274 99.1974 85.1689 102.202 83.4355L94.2058 69.5767ZM116.5 72.8901L112.036 79.5287L116.5 72.8901ZM115.229 64.2109L121.707 68.9063L121.709 68.9029L115.229 64.2109ZM124.376 62.2732L119.912 68.9118L119.972 68.9523L120.033 68.9917L124.376 62.2732ZM125.657 71.0154L132.059 75.8129L132.099 75.7605L132.137 75.7075L125.657 71.0154ZM119.685 65.8946C119.665 65.8982 119.845 65.8654 120.155 65.9252C120.479 65.9876 120.764 66.1167 120.964 66.2515L112.036 79.5287C115.249 81.6893 118.912 82.2778 122.464 81.6516L119.685 65.8946ZM120.964 66.2515C121.128 66.3616 121.389 66.5869 121.62 66.945C121.85 67.3011 121.938 67.6133 121.965 67.7672L106.208 70.5456C106.862 74.25 108.876 77.4043 112.036 79.5287L120.964 66.2515ZM121.965 67.7672C121.977 67.8319 121.999 68.0575 121.928 68.3657C121.857 68.6734 121.739 68.8612 121.707 68.9063L108.752 59.5154C106.405 62.7539 105.512 66.5967 106.208 70.5456L121.965 67.7672ZM121.709 68.9029C121.705 68.9077 121.678 68.9447 121.621 68.9982C121.563 69.0524 121.491 69.1087 121.409 69.1593C121.231 69.2694 121.124 69.2802 121.19 69.2686L118.412 53.5117C114.507 54.2003 111.127 56.2365 108.75 59.5188L121.709 68.9029ZM121.19 69.2686C121.211 69.265 121.03 69.2979 120.721 69.2381C120.397 69.1756 120.112 69.0465 119.912 68.9118L128.84 55.6345C125.627 53.474 121.963 52.8854 118.412 53.5117L121.19 69.2686ZM120.033 68.9917C119.883 68.895 119.611 68.674 119.361 68.2981C119.11 67.9213 119.007 67.5769 118.973 67.3849L134.73 64.6066C134.06 60.8054 131.944 57.6396 128.719 55.5546L120.033 68.9917ZM118.973 67.3849C118.956 67.2855 118.939 67.0493 119.01 66.7538C119.078 66.4646 119.184 66.3155 119.178 66.3234L132.137 75.7075C134.471 72.4848 135.44 68.6312 134.73 64.6066L118.973 67.3849ZM119.256 66.2179C119.263 66.2078 119.293 66.1702 119.349 66.1194C119.405 66.068 119.472 66.0173 119.545 65.9734C119.704 65.8781 119.782 65.8775 119.685 65.8946L122.464 81.6516C126.291 80.9768 129.654 79.0223 132.059 75.8129L119.256 66.2179Z" fill="#4579A0" mask="url(#path-1-outside-1_3_8)"/>
</g>
<defs>
<filter id="filter0_d_3_8" x="0.626106" y="0.414352" width="161.382" height="122.578" filterUnits="userSpaceOnUse" color-interpolation-filters="sRGB">
<feFlood flood-opacity="0" result="BackgroundImageFix"/>
<feColorMatrix in="SourceAlpha" type="matrix" values="0 0 0 0 0 0 0 0 0 0 0 0 0 0 0 0 0 0 127 0" result="hardAlpha"/>
<feOffset dx="4" dy="4"/>
<feGaussianBlur stdDeviation="15"/>
<feComposite in2="hardAlpha" operator="out"/>
<feColorMatrix type="matrix" values="0 0 0 0 0 0 0 0 0 0 0 0 0 0 0 0 0 0 0.25 0"/>
<feBlend mode="normal" in2="BackgroundImageFix" result="effect1_dropShadow_3_8"/>
<feBlend mode="normal" in="SourceGraphic" in2="effect1_dropShadow_3_8" result="shape"/>
</filter>
</defs>
</svg>
